<svg width="42" height="29" viewBox="0 0 42 29" fill="none" xmlns="http://www.w3.org/2000/svg">
<mask id="mask0_7510_46584" style="mask-type:alpha" maskUnits="userSpaceOnUse" x="0" y="0" width="42" height="29">
<rect width="41.7565" height="28.633" fill="#016FD0"/>
</mask>
<g mask="url(#mask0_7510_46584)">
<rect width="41.7565" height="28.633" rx="2.00627" fill="#F7F6F9"/>
<path d="M10.0234 21.9053V16.2065H16.0574L16.7048 17.0504L17.3735 16.2065H39.2752V21.5123C39.2752 21.5123 38.7025 21.8996 38.04 21.9053H25.9126L25.1827 21.007V21.9053H22.7909V20.3718C22.7909 20.3718 22.4642 20.5859 21.7578 20.5859H20.9437V21.9053H17.3224L16.6759 21.0432L16.0195 21.9053H10.0234Z" fill="white"/>
<path d="M2.97656 11.9115L4.33724 8.73932H6.69039L7.46259 10.5163V8.73932H10.3878L10.8475 10.0236L11.2931 8.73932H24.4241V9.38499C24.4241 9.38499 25.1144 8.73932 26.2489 8.73932L30.5094 8.75421L31.2683 10.5079V8.73932H33.7162L34.39 9.74667V8.73932H36.8604V14.4381H34.39L33.7443 13.4275V14.4381H30.1477L29.786 13.5398H28.8192L28.4634 14.4381H26.0243C25.0481 14.4381 24.4241 13.8056 24.4241 13.8056V14.4381H20.7466L20.0167 13.5398V14.4381H6.34178L5.98035 13.5398H5.01655L4.65767 14.4381H2.97656V11.9115Z" fill="white"/>
<path d="M4.81963 9.44183L2.98438 13.7089H4.17922L4.51785 12.8544H6.48645L6.82332 13.7089H8.04449L6.21099 9.44183H4.81963ZM5.49864 10.4349L6.0987 11.928H4.89683L5.49864 10.4349Z" fill="#016FD0"/>
<path d="M8.17188 13.7079V9.44086L9.86982 9.44716L10.8574 12.1983L11.8213 9.44086H13.5057V13.7079H12.4389V10.5638L11.3081 13.7079H10.3726L9.23864 10.5638V13.7079H8.17188Z" fill="#016FD0"/>
<path d="M14.2344 13.708V9.44086H17.7154V10.3953H15.3124V11.1252H17.6593V12.0236H15.3124V12.7815H17.7154V13.708H14.2344Z" fill="#016FD0"/>
<path d="M18.3281 9.44183V13.7089H19.3949V12.193H19.8441L21.1231 13.7089H22.4268L21.0231 12.1368C21.5992 12.0882 22.1934 11.5938 22.1934 10.8262C22.1934 9.92824 21.4886 9.44183 20.702 9.44183H18.3281ZM19.3949 10.3963H20.6143C20.9068 10.3963 21.1196 10.6251 21.1196 10.8455C21.1196 11.129 20.8439 11.2947 20.6301 11.2947H19.3949V10.3963Z" fill="#016FD0"/>
<path d="M23.722 13.708H22.6328V9.44086H23.722V13.708Z" fill="#016FD0"/>
<path d="M26.3056 13.708H26.0704C24.9329 13.708 24.2422 12.8117 24.2422 11.592C24.2422 10.342 24.9251 9.44086 26.3617 9.44086H27.5408V10.4515H26.3186C25.7354 10.4515 25.323 10.9066 25.323 11.6025C25.323 12.4289 25.7946 12.7759 26.474 12.7759H26.7547L26.3056 13.708Z" fill="#016FD0"/>
<path d="M28.6321 9.44183L26.7969 13.7089H27.9917L28.3303 12.8544H30.2989L30.6358 13.7089H31.857L30.0235 9.44183H28.6321ZM29.3111 10.4349L29.9112 11.928H28.7093L29.3111 10.4349Z" fill="#016FD0"/>
<path d="M31.9766 13.708V9.44086H33.3328L35.0646 12.1218V9.44086H36.1314V13.708H34.819L33.0433 10.9568V13.708H31.9766Z" fill="#016FD0"/>
<path d="M10.7578 21.176V16.9089H14.2389V17.8634H11.8358V18.5933H14.1827V19.4916H11.8358V20.2496H14.2389V21.176H10.7578Z" fill="#016FD0"/>
<path d="M27.8047 21.176V16.9089H31.2857V17.8634H28.8827V18.5933H31.2184V19.4916H28.8827V20.2496H31.2857V21.176H27.8047Z" fill="#016FD0"/>
<path d="M14.3685 21.176L16.0634 19.0688L14.3281 16.9089H15.6721L16.7055 18.2441L17.7425 16.9089H19.0338L17.3214 19.0424L19.0194 21.176H17.6756L16.6722 19.8618L15.6932 21.176H14.3685Z" fill="#016FD0"/>
<path d="M19.1406 16.9089V21.176H20.2355V19.8285H21.3584C22.3085 19.8285 23.0287 19.3244 23.0287 18.3441C23.0287 17.5321 22.4639 16.9089 21.497 16.9089H19.1406ZM20.2355 17.8739H21.418C21.725 17.8739 21.9444 18.062 21.9444 18.3652C21.9444 18.65 21.7261 18.8565 21.4145 18.8565H20.2355V17.8739Z" fill="#016FD0"/>
<path d="M23.5 16.9089V21.176H24.5668V19.6601H25.0159L26.295 21.176H27.5987L26.195 19.6039C26.7711 19.5553 27.3653 19.0609 27.3653 18.2933C27.3653 17.3953 26.6605 16.9089 25.8739 16.9089H23.5ZM24.5668 17.8634H25.7862C26.0787 17.8634 26.2915 18.0922 26.2915 18.3126C26.2915 18.596 26.0158 18.7617 25.802 18.7617H24.5668V17.8634Z" fill="#016FD0"/>
<path d="M31.7839 21.176V20.2496H33.9188C34.2347 20.2496 34.3715 20.0789 34.3715 19.8917C34.3715 19.7123 34.2352 19.5309 33.9188 19.5309H32.9541C32.1155 19.5309 31.6484 19.02 31.6484 18.2529C31.6484 17.5687 32.0761 16.9089 33.3223 16.9089H35.3997L34.9505 17.869H33.1539C32.8104 17.869 32.7047 18.0492 32.7047 18.2213C32.7047 18.3982 32.8353 18.5933 33.0977 18.5933H34.1083C35.0432 18.5933 35.4488 19.1236 35.4488 19.818C35.4488 20.5645 34.9968 21.176 34.0574 21.176H31.7839Z" fill="#016FD0"/>
<path d="M35.698 21.176V20.2496H37.8329C38.1488 20.2496 38.2856 20.0789 38.2856 19.8917C38.2856 19.7123 38.1492 19.5309 37.8329 19.5309H36.8681C36.0295 19.5309 35.5625 19.02 35.5625 18.2529C35.5625 17.5687 35.9902 16.9089 37.2364 16.9089H39.2713L38.8646 17.869H37.0679C36.7245 17.869 36.6187 18.0492 36.6187 18.2213C36.6187 18.3982 36.7494 18.5933 37.0118 18.5933H38.0224C38.9572 18.5933 39.3629 19.1236 39.3629 19.818C39.3629 20.5645 38.9109 21.176 37.9715 21.176H35.698Z" fill="#016FD0"/>
</g>
</svg>
