<svg width="15" height="18" viewBox="0 0 15 18" fill="none" xmlns="http://www.w3.org/2000/svg">
<path d="M15 13.2064C14.5909 14.1434 14.3937 14.5622 13.8675 15.3891C13.1307 16.5447 12.0916 17.9876 10.8079 17.9968C9.66495 18.0075 9.36996 17.228 7.81792 17.2417C6.26736 17.2494 5.9442 18.0121 4.79981 17.9999C3.5146 17.9876 2.53179 16.6884 1.79505 15.5344C-0.265444 12.2985 -0.483353 8.50469 0.790003 6.48704C1.69128 5.05635 3.11584 4.21566 4.45442 4.21566C5.8182 4.21566 6.67501 4.98756 7.80161 4.98756C8.8956 4.98756 9.56119 4.21413 11.1384 4.21413C12.3303 4.21413 13.5903 4.88362 14.4915 6.03918C11.5446 7.70527 12.0234 12.0447 15 13.2064ZM9.94067 2.92253C10.5143 2.16286 10.9502 1.09136 10.7916 0C9.85618 0.0657265 8.76219 0.68172 8.12329 1.47961C7.54368 2.20718 7.06339 3.28632 7.25017 4.3303C8.27152 4.36393 9.32845 3.7357 9.94067 2.92253Z" fill="#111111"/>
</svg>
