<svg width="40" height="24" viewBox="0 0 40 24" fill="none" xmlns="http://www.w3.org/2000/svg">
<path d="M9.82608 4C9.8984 4.6327 9.63378 5.26777 9.24014 5.72438C8.8465 6.18098 8.20098 6.53594 7.56943 6.48866C7.48315 5.86896 7.802 5.22286 8.16647 4.81826C8.57326 4.36205 9.25946 4.02246 9.82608 4Z" fill="black"/>
<path d="M11.8711 7.68503C11.7678 7.7456 10.6465 8.40285 10.6598 9.73733C10.6746 11.3339 12.0891 11.8897 12.1685 11.9209C12.1704 11.9216 12.1719 11.9222 12.1719 11.9222C12.1711 11.9244 12.1697 11.9288 12.1675 11.9354C12.132 12.0442 11.9043 12.7404 11.3916 13.4583C10.9219 14.1158 10.4358 14.7714 9.66786 14.7848C9.29928 14.7913 9.05281 14.6892 8.79658 14.5829C8.52836 14.4718 8.24944 14.3561 7.80855 14.3561C7.34683 14.3561 7.05509 14.4753 6.77403 14.59C6.53033 14.6895 6.29467 14.7857 5.96321 14.7982C5.22236 14.8246 4.65861 14.0871 4.18526 13.4315C3.21759 12.0913 2.47839 9.64317 3.47112 7.99011C3.96419 7.16948 4.84516 6.64984 5.80173 6.63684C6.214 6.62947 6.61334 6.78123 6.96291 6.91408C7.23001 7.01559 7.46806 7.10605 7.66063 7.10605C7.83336 7.10605 8.06496 7.01845 8.33506 6.91629C8.76015 6.75551 9.2806 6.55865 9.81702 6.61045C10.184 6.62621 11.2149 6.75346 11.8768 7.68163C11.8768 7.68163 11.8736 7.68353 11.8711 7.68503Z" fill="black"/>
<path d="M14.9035 5.63815H18.9172C19.418 5.63815 19.8771 5.72077 20.2944 5.886C20.7117 6.05123 21.0701 6.28692 21.3696 6.59309C21.674 6.89439 21.9072 7.25401 22.0693 7.67195C22.2362 8.08503 22.3197 8.54184 22.3197 9.0424C22.3197 9.53323 22.2362 9.98519 22.0693 10.3983C21.9023 10.8065 21.6642 11.1612 21.3549 11.4625C21.0505 11.759 20.6896 11.9898 20.2723 12.1551C19.8599 12.3203 19.4033 12.4029 18.9025 12.4029H16.2291V16.1571H14.9035V5.63815ZM16.2291 6.80449V11.2366H18.5711C19.3272 11.2366 19.9139 11.0446 20.3312 10.6607C20.7485 10.2768 20.9572 9.73734 20.9572 9.0424C20.9572 8.32315 20.751 7.77157 20.3386 7.38766C19.9311 6.99888 19.3419 6.80449 18.5711 6.80449H16.2291Z" fill="black"/>
<path d="M25.7014 15.1948C26.1334 15.1948 26.5213 15.1098 26.865 14.9397C27.2087 14.7647 27.4787 14.529 27.6751 14.2326C27.8715 13.9362 27.9697 13.6008 27.9697 13.2266V12.505L25.8339 12.6435C25.23 12.6823 24.7882 12.8087 24.5083 13.0225C24.2334 13.2315 24.0959 13.5328 24.0959 13.9264C24.0959 14.1937 24.1646 14.4221 24.3021 14.6117C24.4445 14.8012 24.636 14.947 24.8765 15.049C25.122 15.1462 25.397 15.1948 25.7014 15.1948ZM25.4657 16.2956C24.9551 16.2956 24.496 16.2008 24.0885 16.0113C23.6859 15.8217 23.3668 15.552 23.1311 15.2021C22.9004 14.8474 22.785 14.4318 22.785 13.9556C22.785 13.2509 23.0354 12.7018 23.5362 12.3081C24.0419 11.9096 24.7562 11.6837 25.6793 11.6302L27.9697 11.4917V10.7773C27.9697 10.2913 27.8175 9.91958 27.5131 9.66201C27.2136 9.40445 26.7668 9.27566 26.1727 9.27566C25.6965 9.27566 25.3012 9.36071 24.987 9.5308C24.6728 9.70089 24.4715 9.94145 24.3831 10.2525H23.1017C23.1557 9.83453 23.3226 9.46762 23.6025 9.15174C23.8823 8.83586 24.2456 8.59287 24.6924 8.42278C25.1441 8.24783 25.6523 8.16035 26.2169 8.16035C26.865 8.16035 27.4124 8.26484 27.8592 8.47381C28.3109 8.68278 28.6521 8.98408 28.8829 9.37772C29.1185 9.7665 29.2364 10.233 29.2364 10.7773V16.1571H28.0286V14.998H27.9107C27.6554 15.4159 27.3167 15.7367 26.8944 15.9602C26.4722 16.1838 25.996 16.2956 25.4657 16.2956Z" fill="black"/>
<path d="M31.182 19C31.0985 19 31.0052 18.9951 30.9021 18.9854C30.799 18.9806 30.7033 18.9708 30.6149 18.9563V17.8847C30.6935 17.8993 30.7794 17.909 30.8727 17.9138C30.966 17.9187 31.0568 17.9211 31.1452 17.9211C31.5085 17.9211 31.8006 17.8239 32.0215 17.6296C32.2425 17.4352 32.4364 17.1023 32.6033 16.6309L32.7506 16.1643L29.8122 8.29886H31.182L33.3619 14.7647H33.4797L35.6523 8.29886H37L33.8995 16.6382C33.7277 17.095 33.5558 17.474 33.384 17.7753C33.2122 18.0815 33.0231 18.3245 32.8169 18.5043C32.6107 18.6841 32.375 18.8105 32.1099 18.8834C31.8448 18.9611 31.5355 19 31.182 19Z" fill="black"/>
</svg>
