<svg width="16" height="16" viewBox="0 0 16 16" fill="none" xmlns="http://www.w3.org/2000/svg">
<path d="M13.5 8C13.7761 8 14 7.77614 14 7.5C14 7.22386 13.7761 7 13.5 7L13.5 8ZM2.14645 7.14645C1.95118 7.34171 1.95118 7.65829 2.14645 7.85355L5.32843 11.0355C5.52369 11.2308 5.84027 11.2308 6.03553 11.0355C6.2308 10.8403 6.2308 10.5237 6.03553 10.3284L3.20711 7.5L6.03553 4.67157C6.2308 4.47631 6.2308 4.15973 6.03553 3.96447C5.84027 3.7692 5.52369 3.7692 5.32843 3.96447L2.14645 7.14645ZM13.5 7L2.5 7L2.5 8L13.5 8L13.5 7Z" fill="#111111"/>
</svg>
