<svg width="16" height="16" viewBox="0 0 16 16" fill="none" xmlns="http://www.w3.org/2000/svg">
<path d="M2.5 7C2.22386 7 2 7.22386 2 7.5C2 7.77614 2.22386 8 2.5 8V7ZM13.8536 7.85355C14.0488 7.65829 14.0488 7.34171 13.8536 7.14645L10.6716 3.96447C10.4763 3.7692 10.1597 3.7692 9.96447 3.96447C9.7692 4.15973 9.7692 4.47631 9.96447 4.67157L12.7929 7.5L9.96447 10.3284C9.7692 10.5237 9.7692 10.8403 9.96447 11.0355C10.1597 11.2308 10.4763 11.2308 10.6716 11.0355L13.8536 7.85355ZM2.5 8L13.5 8V7L2.5 7V8Z" fill="#111111"/>
</svg>
