<svg width="44" height="44" viewBox="0 0 44 44" fill="none" xmlns="http://www.w3.org/2000/svg">
<path d="M4 6H6.50155C7.42203 6 8.2252 6.62883 8.46344 7.53083L9.1547 10.1653M9.1547 10.1653L13.4756 26.625M9.1547 10.1653C12.1273 10.0807 18.099 10.1204 21.0625 10.2834M13.4756 26.625C12.0395 26.625 10.6623 27.2045 9.64685 28.2359C8.63142 29.2674 8.06095 30.6663 8.06095 32.125H36.4876M13.4756 26.625H33.7226C35.7458 22.4083 37.5128 18.0377 39 13.5387C37.2499 13.0854 35.4902 12.6769 33.7226 12.3134M10.7683 37.625C10.7683 37.9897 10.6256 38.3394 10.3718 38.5973C10.1179 38.8551 9.77361 39 9.4146 39C9.05559 39 8.71129 38.8551 8.45743 38.5973C8.20357 38.3394 8.06095 37.9897 8.06095 37.625C8.06095 37.2603 8.20357 36.9106 8.45743 36.6527C8.71129 36.3949 9.05559 36.25 9.4146 36.25C9.77361 36.25 10.1179 36.3949 10.3718 36.6527C10.6256 36.9106 10.7683 37.2603 10.7683 37.625ZM33.7803 37.625C33.7803 37.9897 33.6377 38.3394 33.3838 38.5973C33.13 38.8551 32.7857 39 32.4267 39C32.0677 39 31.7234 38.8551 31.4695 38.5973C31.2156 38.3394 31.073 37.9897 31.073 37.625C31.073 37.2603 31.2156 36.9106 31.4695 36.6527C31.7234 36.3949 32.0677 36.25 32.4267 36.25C32.7857 36.25 33.13 36.3949 33.3838 36.6527C33.6377 36.9106 33.7803 37.2603 33.7803 37.625Z" stroke="#6C3C87" stroke-width="2" stroke-linecap="round" stroke-linejoin="round"/>
</svg>
