<svg width="20" height="21" viewBox="0 0 20 21" fill="none" xmlns="http://www.w3.org/2000/svg">
<path d="M1.875 2.83203H3.03C3.455 2.83203 3.82583 3.11786 3.93583 3.52786L4.255 4.72536M4.255 4.72536C8.8972 4.59527 13.5349 5.11132 18.035 6.2587C17.3483 8.3037 16.5325 10.2904 15.5983 12.207H6.25M4.255 4.72536L6.25 12.207M6.25 12.207C5.58696 12.207 4.95107 12.4704 4.48223 12.9393C4.01339 13.4081 3.75 14.044 3.75 14.707H16.875M5 17.207C5 17.3728 4.93415 17.5318 4.81694 17.649C4.69973 17.7662 4.54076 17.832 4.375 17.832C4.20924 17.832 4.05027 17.7662 3.93306 17.649C3.81585 17.5318 3.75 17.3728 3.75 17.207C3.75 17.0413 3.81585 16.8823 3.93306 16.7651C4.05027 16.6479 4.20924 16.582 4.375 16.582C4.54076 16.582 4.69973 16.6479 4.81694 16.7651C4.93415 16.8823 5 17.0413 5 17.207ZM15.625 17.207C15.625 17.3728 15.5592 17.5318 15.4419 17.649C15.3247 17.7662 15.1658 17.832 15 17.832C14.8342 17.832 14.6753 17.7662 14.5581 17.649C14.4408 17.5318 14.375 17.3728 14.375 17.207C14.375 17.0413 14.4408 16.8823 14.5581 16.7651C14.6753 16.6479 14.8342 16.582 15 16.582C15.1658 16.582 15.3247 16.6479 15.4419 16.7651C15.5592 16.8823 15.625 17.0413 15.625 17.207Z" stroke="#111111" stroke-linecap="round" stroke-linejoin="round"/>
</svg>
