<svg width="14" height="14" viewBox="0 0 14 14" fill="none" xmlns="http://www.w3.org/2000/svg">
<path d="M7.73231 4.96185C8.1322 5.15278 8.48043 5.43688 8.74776 5.7903C9.01508 6.14372 9.19368 6.55614 9.26857 6.9929C9.34345 7.42966 9.31242 7.87801 9.1781 8.30029C9.04377 8.72257 8.81006 9.10646 8.49661 9.41969L5.72739 12.1889C5.20806 12.7082 4.50369 13 3.76924 13C3.03479 13 2.33042 12.7082 1.81109 12.1889C1.29176 11.6696 1 10.9652 1 10.2308C1 9.49631 1.29176 8.79195 1.81109 8.27261L2.89232 7.19138M11.1077 6.80862L12.1889 5.72739C12.7082 5.20806 13 4.50369 13 3.76924C13 3.03479 12.7082 2.33042 12.1889 1.81109C11.6696 1.29176 10.9652 1 10.2308 1C9.49631 1 8.79195 1.29176 8.27261 1.81109L5.50339 4.58031C5.18994 4.89355 4.95623 5.27743 4.8219 5.69971C4.68758 6.12199 4.65655 6.57035 4.73144 7.00711C4.80632 7.44387 4.98492 7.85628 5.25225 8.2097C5.51957 8.56312 5.8678 8.84722 6.26769 9.03815" stroke="#111111" stroke-width="1.3" stroke-linecap="round" stroke-linejoin="round"/>
</svg>
