<svg width="40" height="39" viewBox="0 0 40 39" fill="none" xmlns="http://www.w3.org/2000/svg">
<path d="M13.4221 21.4345C14.3337 21.4345 15.0727 20.6955 15.0727 19.7839C15.0727 18.8723 14.3337 18.1333 13.4221 18.1333C12.5105 18.1333 11.7715 18.8723 11.7715 19.7839C11.7715 20.6955 12.5105 21.4345 13.4221 21.4345Z" fill="#6C3C87"/>
<path d="M18.383 21.4345C19.2946 21.4345 20.0336 20.6955 20.0336 19.7839C20.0336 18.8723 19.2946 18.1333 18.383 18.1333C17.4714 18.1333 16.7324 18.8723 16.7324 19.7839C16.7324 20.6955 17.4714 21.4345 18.383 21.4345Z" fill="#6C3C87"/>
<path d="M23.3322 21.4345C24.2438 21.4345 24.9828 20.6955 24.9828 19.7839C24.9828 18.8723 24.2438 18.1333 23.3322 18.1333C22.4206 18.1333 21.6816 18.8723 21.6816 19.7839C21.6816 20.6955 22.4206 21.4345 23.3322 21.4345Z" fill="#6C3C87"/>
<path d="M30.794 0.5H18.3818C14.1571 0.5 10.5219 3.40819 9.53281 7.50192C4.05048 9.02151 0.21875 14.1043 0.21875 19.8486C0.21875 25.927 4.50898 31.0753 10.3254 32.3329L9.33631 36.5576C9.13981 37.5466 9.86686 38.4047 10.7904 38.4047C11.1834 38.4047 11.5175 38.2737 11.714 38.0772L18.1853 32.5949H23.7332C31.3966 32.5949 37.4029 25.8615 36.4139 18.198C38.5295 16.4819 39.7806 13.8423 39.7806 11.1306V9.61101C39.8461 4.59373 35.7523 0.5 30.8006 0.5H30.794ZM23.7266 30.9443H17.9168C17.7203 30.9443 17.5238 31.0098 17.3862 31.1408L11.0459 36.4921L12.1004 31.8023C12.2314 31.3373 11.9039 30.8788 11.4389 30.8133C5.95653 30.0862 1.86279 25.3309 1.86279 19.7831C1.86279 13.7047 6.68357 8.81847 12.6964 8.62197C13.0239 8.62197 12.4344 8.62197 23.7266 8.62197C30.0015 8.68747 34.8878 13.7047 34.8878 19.7831C34.8878 25.8615 29.8705 30.9443 23.7266 30.9443ZM38.1889 11.1306C38.1889 13.1087 37.3964 14.9623 36.0733 16.3509C34.4882 10.8031 29.4709 7.03687 23.7266 7.03687C12.1724 7.03687 12.4999 6.97137 11.3799 7.16787C12.4344 4.25968 15.2116 2.21609 18.3818 2.21609H30.794C34.8878 2.21609 38.2544 5.51728 38.2544 9.67651V11.1306H38.1889Z" fill="#6C3C87"/>
</svg>
