<svg width="16" height="16" viewBox="0 0 16 16" fill="none" xmlns="http://www.w3.org/2000/svg">
<mask id="path-1-inside-1_10977_123859" fill="white">
<path d="M11.7554 2.59097C11.4593 2.59097 11.1691 2.62976 10.8886 2.70651C10.6497 2.25955 10.3069 1.87484 9.88204 1.58027C9.33457 1.20066 8.6904 1 8.01922 1C7.34504 1 6.69849 1.2023 6.14951 1.58504C5.72467 1.88126 5.38255 2.26743 5.14488 2.71577C4.85407 2.63282 4.55264 2.59095 4.2445 2.59095C2.45548 2.59097 1 4.02796 1 5.79419C1 7.27937 2.03854 8.55865 3.46873 8.90508V14H12.5335V8.90454C13.9624 8.55719 15 7.2781 15 5.79419C15 4.02796 13.5445 2.59097 11.7554 2.59097ZM11.7116 13.1887H4.29057V12.3725H11.7116V13.1887ZM12.0698 8.16603L11.7116 8.21173V11.5611H4.29057V8.21173L3.93199 8.16625C2.729 8.01369 1.82184 6.99394 1.82184 5.79419C1.82184 4.47533 2.90865 3.40232 4.24455 3.40232C4.57749 3.40232 4.89957 3.46757 5.2018 3.5962L5.59837 3.765L5.74945 3.36558C6.10109 2.43594 7.01325 1.81132 8.01922 1.81132C9.01943 1.81132 9.92981 2.43119 10.2846 3.35378L10.4351 3.74527L10.8266 3.58437C11.1206 3.46354 11.4331 3.40229 11.7554 3.40229C13.0913 3.40229 14.1781 4.47528 14.1781 5.79416C14.1782 6.99292 13.2718 8.01259 12.0698 8.16603Z"/>
</mask>
<path d="M10.8886 2.70651L10.0066 3.17786L10.3828 3.88163L11.1525 3.67107L10.8886 2.70651ZM9.88204 1.58027L9.31224 2.40205L9.31224 2.40205L9.88204 1.58027ZM6.14951 1.58504L5.5776 0.764728L5.57756 0.764754L6.14951 1.58504ZM5.14488 2.71577L4.87055 3.67741L5.64917 3.89953L6.02841 3.18415L5.14488 2.71577ZM4.2445 2.59095V1.59095H4.24448L4.2445 2.59095ZM3.46873 8.90508H4.46873V8.11839L3.70415 7.93319L3.46873 8.90508ZM3.46873 14H2.46873V15H3.46873V14ZM12.5335 14V15H13.5335V14H12.5335ZM12.5335 8.90454L12.2973 7.93284L11.5335 8.11851V8.90454H12.5335ZM11.7116 13.1887V14.1887H12.7116V13.1887H11.7116ZM4.29057 13.1887H3.29057V14.1887H4.29057V13.1887ZM4.29057 12.3725V11.3725H3.29057V12.3725H4.29057ZM11.7116 12.3725H12.7116V11.3725H11.7116V12.3725ZM12.0698 8.16603L12.1964 9.15799L12.1965 9.15798L12.0698 8.16603ZM11.7116 8.21173L11.5851 7.21977L10.7116 7.33122V8.21173H11.7116ZM11.7116 11.5611V12.5611H12.7116V11.5611H11.7116ZM4.29057 11.5611H3.29057V12.5611H4.29057V11.5611ZM4.29057 8.21173H5.29057V7.33057L4.41642 7.21968L4.29057 8.21173ZM3.93199 8.16625L4.05783 7.1742L4.05779 7.17419L3.93199 8.16625ZM5.2018 3.5962L5.59346 2.67609L5.59342 2.67607L5.2018 3.5962ZM5.59837 3.765L5.20672 4.68511L6.16519 5.09309L6.5337 4.11877L5.59837 3.765ZM5.74945 3.36558L4.81412 3.01179L4.81411 3.01181L5.74945 3.36558ZM10.2846 3.35378L11.218 2.99495L11.2179 2.99488L10.2846 3.35378ZM10.4351 3.74527L9.50167 4.1041L9.86879 5.05908L10.8151 4.67023L10.4351 3.74527ZM10.8266 3.58437L11.2067 4.50934L11.2068 4.50931L10.8266 3.58437ZM14.1781 5.79416H13.1781L13.1781 5.79418L14.1781 5.79416ZM11.7554 1.59097C11.3714 1.59097 10.9924 1.64136 10.6247 1.74195L11.1525 3.67107C11.3458 3.61817 11.5472 3.59097 11.7554 3.59097V1.59097ZM11.7705 2.23516C11.4561 1.64672 11.0056 1.14244 10.4518 0.758484L9.31224 2.40205C9.60817 2.60724 9.84339 2.87238 10.0066 3.17786L11.7705 2.23516ZM10.4518 0.758486C9.73568 0.261912 8.89243 0 8.01922 0V2C8.48838 2 8.93345 2.1394 9.31224 2.40205L10.4518 0.758486ZM8.01922 0C7.14214 0 6.29569 0.264088 5.5776 0.764728L6.72142 2.40536C7.1013 2.14052 7.54793 2 8.01922 2V0ZM5.57756 0.764754C5.02393 1.15078 4.57432 1.65701 4.26134 2.2474L6.02841 3.18415C6.19077 2.87786 6.42542 2.61175 6.72146 2.40533L5.57756 0.764754ZM5.4192 1.75414C5.03774 1.64531 4.6439 1.59095 4.2445 1.59095V3.59095C4.46137 3.59095 4.67041 3.62032 4.87055 3.67741L5.4192 1.75414ZM4.24448 1.59095C1.9153 1.59098 0 3.46365 0 5.79419H2C2 4.59228 2.99566 3.59096 4.24451 3.59095L4.24448 1.59095ZM0 5.79419C0 7.75362 1.36691 9.42488 3.23331 9.87698L3.70415 7.93319C2.71018 7.69242 2 6.80512 2 5.79419H0ZM2.46873 8.90508V14H4.46873V8.90508H2.46873ZM3.46873 15H12.5335V13H3.46873V15ZM13.5335 14V8.90454H11.5335V14H13.5335ZM12.7697 9.87624C14.6343 9.42297 16 7.75213 16 5.79419H14C14 6.80406 13.2904 7.69142 12.2973 7.93284L12.7697 9.87624ZM16 5.79419C16 3.46364 14.0847 1.59097 11.7554 1.59097V3.59097C13.0044 3.59097 14 4.59229 14 5.79419H16ZM11.7116 12.1887H4.29057V14.1887H11.7116V12.1887ZM5.29057 13.1887V12.3725H3.29057V13.1887H5.29057ZM4.29057 13.3725H11.7116V11.3725H4.29057V13.3725ZM10.7116 12.3725V13.1887H12.7116V12.3725H10.7116ZM11.9433 7.17407L11.5851 7.21977L11.8382 9.20369L12.1964 9.15799L11.9433 7.17407ZM10.7116 8.21173V11.5611H12.7116V8.21173H10.7116ZM11.7116 10.5611H4.29057V12.5611H11.7116V10.5611ZM5.29057 11.5611V8.21173H3.29057V11.5611H5.29057ZM4.41642 7.21968L4.05783 7.1742L3.80615 9.1583L4.16473 9.20378L4.41642 7.21968ZM4.05779 7.17419C3.34614 7.08395 2.82184 6.48197 2.82184 5.79419H0.821844C0.821844 7.50592 2.11186 8.94344 3.80619 9.1583L4.05779 7.17419ZM2.82184 5.79419C2.82184 5.03964 3.44883 4.40232 4.24455 4.40232V2.40232C2.36847 2.40232 0.821844 3.91102 0.821844 5.79419H2.82184ZM4.24455 4.40232C4.44475 4.40232 4.63347 4.44112 4.81019 4.51633L5.59342 2.67607C5.16567 2.49402 4.71024 2.40232 4.24455 2.40232V4.40232ZM4.81015 4.51631L5.20672 4.68511L5.99003 2.84489L5.59346 2.67609L4.81015 4.51631ZM6.5337 4.11877L6.68478 3.71935L4.81411 3.01181L4.66304 3.41123L6.5337 4.11877ZM6.68477 3.71937C6.88693 3.18493 7.42229 2.81132 8.01922 2.81132V0.811319C6.60421 0.811319 5.31525 1.68695 4.81412 3.01179L6.68477 3.71937ZM8.01922 2.81132C8.61222 2.81132 9.14731 3.18244 9.3512 3.71268L11.2179 2.99488C10.7123 1.67993 9.42664 0.811319 8.01922 0.811319V2.81132ZM9.35117 3.71261L9.50167 4.1041L11.3685 3.38644L11.218 2.99495L9.35117 3.71261ZM10.8151 4.67023L11.2067 4.50934L10.4466 2.65941L10.055 2.82031L10.8151 4.67023ZM11.2068 4.50931C11.3784 4.43876 11.5616 4.40229 11.7554 4.40229V2.40229C11.3047 2.40229 10.8628 2.48833 10.4465 2.65945L11.2068 4.50931ZM11.7554 4.40229C12.5511 4.40229 13.1781 5.0396 13.1781 5.79416H15.1781C15.1781 3.91095 13.6315 2.40229 11.7554 2.40229V4.40229ZM13.1781 5.79418C13.1781 6.48121 12.6542 7.08331 11.9432 7.17408L12.1965 9.15798C13.8893 8.94187 15.1782 7.50463 15.1781 5.79414L13.1781 5.79418Z" fill="#6D6D6D" mask="url(#path-1-inside-1_10977_123859)"/>
</svg>
