<svg width="16" height="16" viewBox="0 0 16 16" fill="none" xmlns="http://www.w3.org/2000/svg">
<mask id="path-1-inside-1_8501_55394" fill="white">
<path d="M12.2919 1.84172C11.9535 1.84172 11.6219 1.88662 11.3013 1.97547C11.0283 1.45806 10.6364 1.01272 10.1509 0.671719C9.52522 0.232281 8.78903 0 8.02197 0C7.25147 0 6.51256 0.234187 5.88516 0.67725C5.39962 1.02016 5.00863 1.46719 4.737 1.98619C4.40466 1.89016 4.06016 1.84169 3.708 1.84169C1.66341 1.84172 0 3.50519 0 5.54978C0 7.26903 1.18691 8.74994 2.82141 9.15097V15.0489H13.1811V9.15034C14.8141 8.74825 16 7.26756 16 5.54978C16 3.50519 14.3366 1.84172 12.2919 1.84172ZM12.2418 14.1097H3.76066V13.1649H12.2418V14.1097ZM12.6512 8.29544L12.2419 8.34834V12.2256H3.76066V8.34834L3.35084 8.29569C1.976 8.11909 0.93925 6.93862 0.93925 5.54978C0.93925 4.02306 2.18131 2.78094 3.70806 2.78094C4.08856 2.78094 4.45666 2.85647 4.80206 3.00537L5.25528 3.20078L5.42794 2.73841C5.82981 1.66225 6.87228 0.939187 8.02197 0.939187C9.16506 0.939187 10.2055 1.65675 10.6109 2.72475L10.7829 3.17794L11.2304 2.99169C11.5664 2.85181 11.9236 2.78091 12.2919 2.78091C13.8186 2.78091 15.0607 4.023 15.0607 5.54975C15.0608 6.93744 14.0249 8.11781 12.6512 8.29544Z"/>
</mask>
<path d="M11.3013 1.97547L10.4168 2.44213L10.7925 3.15413L11.5683 2.93916L11.3013 1.97547ZM10.1509 0.671719L9.57617 1.49005L9.57617 1.49006L10.1509 0.671719ZM5.88516 0.67725L5.30831 -0.139603L5.30827 -0.139577L5.88516 0.67725ZM4.737 1.98619L4.4594 2.94689L5.2442 3.17365L5.62299 2.44988L4.737 1.98619ZM3.708 1.84169V0.841687H3.70798L3.708 1.84169ZM2.82141 9.15097H3.82141V8.36666L3.05969 8.17977L2.82141 9.15097ZM2.82141 15.0489H1.82141V16.0489H2.82141V15.0489ZM13.1811 15.0489V16.0489H14.1811V15.0489H13.1811ZM13.1811 9.15034L12.942 8.17935L12.1811 8.3667V9.15034H13.1811ZM12.2418 14.1097V15.1097H13.2418V14.1097H12.2418ZM3.76066 14.1097H2.76066V15.1097H3.76066V14.1097ZM3.76066 13.1649V12.1649H2.76066V13.1649H3.76066ZM12.2418 13.1649H13.2418V12.1649H12.2418V13.1649ZM12.6512 8.29544L12.7794 9.28719L12.7795 9.28718L12.6512 8.29544ZM12.2419 8.34834L12.1137 7.35659L11.2419 7.46926V8.34834H12.2419ZM12.2419 12.2256V13.2256H13.2419V12.2256H12.2419ZM3.76066 12.2256H2.76066V13.2256H3.76066V12.2256ZM3.76066 8.34834H4.76066V7.46861L3.8881 7.3565L3.76066 8.34834ZM3.35084 8.29569L3.47828 7.30384L3.47824 7.30384L3.35084 8.29569ZM4.80206 3.00537L5.19798 2.08709L5.19795 2.08707L4.80206 3.00537ZM5.25528 3.20078L4.85936 4.11907L5.82445 4.53517L6.1921 3.5506L5.25528 3.20078ZM5.42794 2.73841L4.49113 2.38857L4.49112 2.38859L5.42794 2.73841ZM10.6109 2.72475L11.5459 2.36991L11.5458 2.36984L10.6109 2.72475ZM10.7829 3.17794L9.84801 3.53277L10.2143 4.49778L11.1672 4.10117L10.7829 3.17794ZM11.2304 2.99169L11.6147 3.91492L11.6148 3.91489L11.2304 2.99169ZM15.0607 5.54975H14.0607V5.54977L15.0607 5.54975ZM12.2919 0.841719C11.8645 0.841719 11.4429 0.89853 11.0342 1.01178L11.5683 2.93916C11.8008 2.87472 12.0426 2.84172 12.2919 2.84172V0.841719ZM12.1857 1.50881C11.8384 0.850582 11.3401 0.284954 10.7256 -0.146619L9.57617 1.49006C9.93274 1.74048 10.2181 2.06554 10.4168 2.44213L12.1857 1.50881ZM10.7256 -0.146617C9.93104 -0.704692 8.99402 -1 8.02197 -1V1C8.58404 1 9.1194 1.16925 9.57617 1.49005L10.7256 -0.146617ZM8.02197 -1C7.04559 -1 6.10504 -0.702239 5.30831 -0.139603L6.462 1.4941C6.92008 1.17061 7.45735 1 8.02197 1V-1ZM5.30827 -0.139577C4.6939 0.294322 4.19662 0.862115 3.85101 1.52249L5.62299 2.44988C5.82063 2.07226 6.10535 1.74599 6.46204 1.49408L5.30827 -0.139577ZM5.0146 1.02549C4.59065 0.90299 4.15264 0.841687 3.708 0.841687V2.84169C3.96768 2.84169 4.21866 2.87732 4.4594 2.94689L5.0146 1.02549ZM3.70798 0.841687C1.1111 0.841727 -1 2.95292 -1 5.54978H1C1 4.05745 2.21571 2.84171 3.70802 2.84169L3.70798 0.841687ZM-1 5.54978C-1 7.73414 0.505873 9.6125 2.58312 10.1222L3.05969 8.17977C1.86794 7.88737 1 6.80392 1 5.54978H-1ZM1.82141 9.15097V15.0489H3.82141V9.15097H1.82141ZM2.82141 16.0489H13.1811V14.0489H2.82141V16.0489ZM14.1811 15.0489V9.15034H12.1811V15.0489H14.1811ZM13.4202 10.1213C15.4955 9.61035 17 7.73246 17 5.54978H15C15 6.80266 14.1328 7.88615 12.942 8.17935L13.4202 10.1213ZM17 5.54978C17 2.95291 14.8889 0.841719 12.2919 0.841719V2.84172C13.7843 2.84172 15 4.05746 15 5.54978H17ZM12.2418 13.1097H3.76066V15.1097H12.2418V13.1097ZM4.76066 14.1097V13.1649H2.76066V14.1097H4.76066ZM3.76066 14.1649H12.2418V12.1649H3.76066V14.1649ZM11.2418 13.1649V14.1097H13.2418V13.1649H11.2418ZM12.5231 7.30369L12.1137 7.35659L12.37 9.3401L12.7794 9.28719L12.5231 7.30369ZM11.2419 8.34834V12.2256H13.2419V8.34834H11.2419ZM12.2419 11.2256H3.76066V13.2256H12.2419V11.2256ZM4.76066 12.2256V8.34834H2.76066V12.2256H4.76066ZM3.8881 7.3565L3.47828 7.30384L3.2234 9.28753L3.63322 9.34019L3.8881 7.3565ZM3.47824 7.30384C2.60384 7.19152 1.93925 6.43711 1.93925 5.54978H-0.06075C-0.06075 7.44013 1.34816 9.04667 3.22344 9.28754L3.47824 7.30384ZM1.93925 5.54978C1.93925 4.57533 2.73362 3.78094 3.70806 3.78094V1.78094C1.62901 1.78094 -0.06075 3.4708 -0.06075 5.54978H1.93925ZM3.70806 3.78094C3.954 3.78094 4.18724 3.82929 4.40618 3.92368L5.19795 2.08707C4.72607 1.88365 4.22313 1.78094 3.70806 1.78094V3.78094ZM4.40614 3.92366L4.85936 4.11907L5.6512 2.2825L5.19798 2.08709L4.40614 3.92366ZM6.1921 3.5506L6.36476 3.08822L4.49112 2.38859L4.31846 2.85096L6.1921 3.5506ZM6.36475 3.08824C6.62046 2.40349 7.28917 1.93919 8.02197 1.93919V-0.0608126C6.45539 -0.0608126 5.03917 0.921011 4.49113 2.38857L6.36475 3.08824ZM8.02197 1.93919C8.75006 1.93919 9.41814 2.40032 9.67604 3.07966L11.5458 2.36984C10.9929 0.913177 9.58006 -0.0608126 8.02197 -0.0608126V1.93919ZM9.67601 3.07959L9.84801 3.53277L11.7179 2.8231L11.5459 2.36991L9.67601 3.07959ZM11.1672 4.10117L11.6147 3.91492L10.8462 2.06846L10.3987 2.25471L11.1672 4.10117ZM11.6148 3.91489C11.8274 3.82635 12.0538 3.78091 12.2919 3.78091V1.78091C11.7933 1.78091 11.3054 1.87728 10.8461 2.06849L11.6148 3.91489ZM12.2919 3.78091C13.2663 3.78091 14.0607 4.57528 14.0607 5.54975H16.0607C16.0607 3.47072 14.3709 1.78091 12.2919 1.78091V3.78091ZM14.0607 5.54977C14.0607 6.43619 13.3966 7.19072 12.523 7.30369L12.7795 9.28718C14.6531 9.0449 16.0608 7.43869 16.0607 5.54973L14.0607 5.54977Z" fill="#6D6D6D" mask="url(#path-1-inside-1_8501_55394)"/>
</svg>
