<svg width="17" height="17" viewBox="0 0 17 17" fill="none" xmlns="http://www.w3.org/2000/svg">
<path d="M14.5 8.1256L8.82667 13.4763C8.13165 14.1317 7.18899 14.5 6.20608 14.5C5.22317 14.5 4.28051 14.1317 3.58549 13.4763C2.89046 12.8208 2.5 11.9317 2.5 11.0047C2.5 10.0777 2.89046 9.18865 3.58549 8.53315L9.25881 3.1825C9.72216 2.7455 10.3506 2.5 11.0059 2.5C11.6611 2.5 12.2896 2.7455 12.7529 3.1825C13.2163 3.6195 13.4766 4.21219 13.4766 4.8302C13.4766 5.44821 13.2163 6.0409 12.7529 6.4779L7.07344 11.8286C6.84176 12.0471 6.52754 12.1698 6.19991 12.1698C5.87227 12.1698 5.55805 12.0471 5.32638 11.8286C5.0947 11.6101 4.96455 11.3137 4.96455 11.0047C4.96455 10.6957 5.0947 10.3994 5.32638 10.1809L10.5676 5.24358" stroke="currentColor" stroke-linecap="round" stroke-linejoin="round"/>
</svg>
