<svg width="27" height="27" viewBox="0 0 27 27" fill="none" xmlns="http://www.w3.org/2000/svg">
<g clip-path="url(#clip0_8501_71451)">
<path d="M13.491 0.677246C6.40352 0.677246 0.666016 6.41475 0.666016 13.5022C0.666016 16.2832 1.57052 18.8617 3.06902 20.9677L1.97552 25.0582C1.89452 25.3822 2.19152 25.6792 2.51552 25.5982L6.70052 24.4777C6.70052 24.4777 6.75452 24.4507 6.78152 24.4372C8.73902 25.6387 11.034 26.3542 13.491 26.3542C20.5785 26.3542 26.316 20.6167 26.316 13.5292C26.316 6.44175 20.5785 0.677246 13.491 0.677246Z" stroke="black" stroke-miterlimit="10"/>
<path d="M8.01562 10.5469C8.01562 15.2066 11.7934 18.9844 16.4531 18.9844H17.7188C18.0544 18.9844 18.3763 18.851 18.6137 18.6137C18.851 18.3763 18.9844 18.0544 18.9844 17.7188V16.947C18.9844 16.6568 18.7869 16.4036 18.5051 16.3333L16.0172 15.7112C15.7697 15.6493 15.5098 15.7421 15.3574 15.9457L14.8117 16.6731C14.6531 16.8846 14.3792 16.9779 14.1311 16.8868C13.2102 16.5483 12.374 16.0136 11.6802 15.3198C10.9864 14.626 10.4517 13.7898 10.1132 12.8689C10.0221 12.6208 10.1154 12.3469 10.3269 12.1883L11.0542 11.6426C11.2584 11.4902 11.3507 11.2298 11.2888 10.9828L10.6667 8.49487C10.6325 8.35802 10.5535 8.23652 10.4423 8.14969C10.3311 8.06286 10.1941 8.01567 10.053 8.01562H9.28125C8.94559 8.01562 8.62367 8.14897 8.38632 8.38632C8.14897 8.62367 8.01562 8.94559 8.01562 9.28125V10.5469Z" stroke="black" stroke-linecap="round" stroke-linejoin="round"/>
</g>
<defs>
<clipPath id="clip0_8501_71451">
<rect width="27" height="27" fill="white"/>
</clipPath>
</defs>
</svg>
