<svg width="24" height="24" viewBox="0 0 24 24" fill="none" xmlns="http://www.w3.org/2000/svg">
<path d="M18.5957 6.65C18.789 6.65 18.9457 6.8067 18.9457 7C18.9457 7.1933 18.789 7.35 18.5957 7.35V6.65ZM8.0047 7.20674L8.3459 7.12874L8.3459 7.12874L8.0047 7.20674ZM2.00058 13.3502L1.65414 13.4L1.65414 13.4L2.00058 13.3502ZM2.24499 15.0512L1.89855 15.101V15.101L2.24499 15.0512ZM3.70213 15.9577C3.89543 15.9577 4.05213 16.1144 4.05213 16.3077C4.05213 16.501 3.89543 16.6577 3.70213 16.6577V15.9577ZM22 12.15C22.1933 12.15 22.35 12.3067 22.35 12.5C22.35 12.6933 22.1933 12.85 22 12.85V12.15ZM16.0426 12.85C15.8493 12.85 15.6926 12.6933 15.6926 12.5C15.6926 12.3067 15.8493 12.15 16.0426 12.15V12.85ZM20.2979 10.4577C20.4912 10.4577 20.6479 10.6144 20.6479 10.8077C20.6479 11.001 20.4912 11.1577 20.2979 11.1577V10.4577ZM16.0426 11.1577C15.8493 11.1577 15.6926 11.001 15.6926 10.8077C15.6926 10.6144 15.8493 10.4577 16.0426 10.4577V11.1577ZM19.4468 8.76538C19.6401 8.76538 19.7968 8.92208 19.7968 9.11538C19.7968 9.30868 19.6401 9.46538 19.4468 9.46538V8.76538ZM16.0426 9.46538C15.8493 9.46538 15.6926 9.30868 15.6926 9.11538C15.6926 8.92208 15.8493 8.76538 16.0426 8.76538V9.46538ZM7.53191 16.6577C7.33861 16.6577 7.18191 16.501 7.18191 16.3077C7.18191 16.1144 7.33861 15.9577 7.53191 15.9577V16.6577ZM14.3404 15.9577C14.5337 15.9577 14.6904 16.1144 14.6904 16.3077C14.6904 16.501 14.5337 16.6577 14.3404 16.6577V15.9577ZM18.5957 16.6577C18.4024 16.6577 18.2457 16.501 18.2457 16.3077C18.2457 16.1144 18.4024 15.9577 18.5957 15.9577V16.6577ZM20.7234 15.9577C20.9167 15.9577 21.0734 16.1144 21.0734 16.3077C21.0734 16.501 20.9167 16.6577 20.7234 16.6577V15.9577ZM18.5957 7.35H8.17068V6.65H18.5957V7.35ZM8.3459 7.12874L10.4263 16.2297L9.74391 16.3857L7.66351 7.28473L8.3459 7.12874ZM8.17068 7.35C8.28365 7.35 8.37236 7.24449 8.3459 7.12874L7.66351 7.28473C7.58863 6.95719 7.83926 6.65 8.17068 6.65V7.35ZM8.38298 9.88846H5.40425V9.18846H8.38298V9.88846ZM2.35 12.9231V13.3421H1.65V12.9231H2.35ZM2.34702 13.3004L2.59144 15.0014L1.89855 15.101L1.65414 13.4L2.34702 13.3004ZM2.35 13.3421C2.35 13.3281 2.349 13.3141 2.34702 13.3004L1.65414 13.4C1.65139 13.3809 1.65 13.3615 1.65 13.3421H2.35ZM2.59144 15.0014C2.67006 15.5486 3.14217 15.9577 3.70213 15.9577V16.6577C2.79707 16.6577 2.02712 15.9958 1.89855 15.101L2.59144 15.0014ZM5.40425 9.88846C3.71552 9.88846 2.35 11.249 2.35 12.9231H1.65C1.65 10.8586 3.33275 9.18846 5.40425 9.18846V9.88846ZM4.05213 16.0962C4.05213 16.9524 4.75084 17.65 5.61702 17.65V18.35C4.36807 18.35 3.35213 17.3428 3.35213 16.0962H4.05213ZM5.61702 17.65C6.4832 17.65 7.18191 16.9524 7.18191 16.0962H7.88191C7.88191 17.3428 6.86598 18.35 5.61702 18.35V17.65ZM7.18191 16.0962C7.18191 15.2399 6.4832 14.5423 5.61702 14.5423V13.8423C6.86598 13.8423 7.88191 14.8495 7.88191 16.0962H7.18191ZM5.61702 14.5423C4.75084 14.5423 4.05213 15.2399 4.05213 16.0962H3.35213C3.35213 14.8495 4.36807 13.8423 5.61702 13.8423V14.5423ZM15.116 16.0962C15.116 16.9524 15.8147 17.65 16.6809 17.65V18.35C15.4319 18.35 14.416 17.3428 14.416 16.0962H15.116ZM16.6809 17.65C17.547 17.65 18.2457 16.9524 18.2457 16.0962H18.9457C18.9457 17.3428 17.9298 18.35 16.6809 18.35V17.65ZM18.2457 16.0962C18.2457 15.2399 17.547 14.5423 16.6809 14.5423V13.8423C17.9298 13.8423 18.9457 14.8495 18.9457 16.0962H18.2457ZM16.6809 14.5423C15.8147 14.5423 15.116 15.2399 15.116 16.0962H14.416C14.416 14.8495 15.4319 13.8423 16.6809 13.8423V14.5423ZM22 12.85H16.0426V12.15H22V12.85ZM20.2979 11.1577H16.0426V10.4577H20.2979V11.1577ZM19.4468 9.46538H16.0426V8.76538H19.4468V9.46538ZM7.53191 15.9577H14.3404V16.6577H7.53191V15.9577ZM18.5957 15.9577H20.7234V16.6577H18.5957V15.9577Z" fill="white"/>
</svg>
