<svg width="16" height="16" viewBox="0 0 16 16" fill="none" xmlns="http://www.w3.org/2000/svg">
<path d="M15.6596 12.4061C15.3536 12.5674 14.9769 12.4441 14.819 12.1273C13.8607 10.2039 11.3163 7.44657 7.99997 7.44657C5.02585 7.44657 2.38281 9.71527 1.181 12.1273C1.02291 12.4429 0.646408 12.5675 0.339689 12.4052C0.033002 12.243 -0.088373 11.856 0.0687207 11.5399C1.44953 8.76302 4.48606 6.15921 7.99997 6.15921C12.0075 6.15921 14.8777 9.42111 15.9312 11.5399C16.0885 11.8563 15.9669 12.2442 15.6596 12.4061ZM0.242846 5.493L1.63485 6.78628C1.89266 7.02583 2.28772 7.00185 2.51756 6.73948C2.74875 6.47551 2.72844 6.06852 2.47213 5.83039L1.08013 4.53711C0.823908 4.29904 0.428721 4.3199 0.197408 4.5839C-0.0337793 4.84788 -0.0134668 5.25487 0.242846 5.493ZM14.3651 6.78628L15.757 5.493C16.0133 5.25487 16.0337 4.84788 15.8025 4.5839C15.5712 4.31996 15.1761 4.29898 14.9198 4.53711L13.5278 5.83039C13.2715 6.06848 13.2512 6.47551 13.4823 6.73948C13.7124 7.00214 14.1076 7.02554 14.3651 6.78628ZM7.99994 4.22013C8.34513 4.22013 8.62494 3.93192 8.62494 3.57645V1.64368C8.62494 1.28821 8.34513 1 7.99994 1C7.65475 1 7.37494 1.28821 7.37494 1.64368V3.57645C7.37497 3.93195 7.65478 4.22013 7.99994 4.22013ZM11.0703 11.8331C11.0703 13.5793 9.69291 15 7.99997 15C6.30703 15 4.92969 13.5793 4.92969 11.8331C4.92969 10.0869 6.30703 8.66627 7.99997 8.66627C9.69291 8.66627 11.0703 10.0869 11.0703 11.8331ZM9.82028 11.8331C9.82028 10.7968 9.00372 9.95363 8 9.95363C6.99628 9.95363 6.17969 10.7968 6.17969 11.8331C6.17969 12.8695 6.99625 13.7126 7.99997 13.7126C9.00369 13.7126 9.82028 12.8695 9.82028 11.8331Z" fill="#b0b0b0"/>
</svg>
