<svg width="16" height="16" viewBox="0 0 16 16" fill="none" xmlns="http://www.w3.org/2000/svg">
<path fill-rule="evenodd" clip-rule="evenodd" d="M0.192058 4.12084C0.418393 3.93644 0.754685 3.96645 0.943179 4.18786C2.18935 5.65167 4.44975 7.47826 8.00001 7.47826C11.5502 7.47826 13.8106 5.65168 15.0567 4.18788C15.2453 3.96647 15.5815 3.93646 15.8079 4.12085C16.0342 4.30525 16.0649 4.63423 15.8764 4.85565C15.4921 5.30708 15.0159 5.79394 14.442 6.26078C14.4728 6.29457 14.4997 6.33288 14.5214 6.37535L15.9436 9.1579C16.0753 9.41564 15.9685 9.72903 15.7051 9.8579C15.4416 9.98677 15.1213 9.88226 14.9895 9.62459L13.5895 6.88539C12.702 7.4683 11.6351 7.97019 10.3746 8.25928L11.0118 11.3759C11.0695 11.6584 10.8823 11.9332 10.5934 11.9898C10.3046 12.0463 10.0236 11.8631 9.96583 11.5805L9.3243 8.44262C8.90197 8.49404 8.46066 8.52168 8.00001 8.52168C7.53928 8.52168 7.09797 8.49404 6.67557 8.44262L6.03407 11.5805C5.97631 11.8631 5.69533 12.0463 5.4065 11.9898C5.11767 11.9332 4.93036 11.6584 4.98812 11.3759L5.6253 8.25921C4.58535 8.02073 3.67724 7.63739 2.89286 7.1832L0.960023 9.7043C0.783296 9.93477 0.449004 9.98154 0.21336 9.80866C-0.0222764 9.63572 -0.0700328 9.30873 0.106698 9.07819L2.00365 6.60393C1.22604 6.03787 0.603274 5.41914 0.123542 4.85563C-0.0649557 4.63421 -0.0342793 4.30524 0.192058 4.12084Z" fill="#b0b0b0"/>
</svg>
