<svg width="20" height="20" viewBox="0 0 20 20" fill="none" xmlns="http://www.w3.org/2000/svg">
<path d="M9.99435 0C15.5141 0 19.9887 4.50384 19.9887 10.0597H20C20 15.081 16.3446 19.2437 11.565 20V12.9713H13.8927L14.3333 10.0654H14.3259L14.3262 10.0638H11.5593V8.17742C11.5593 7.38129 11.9435 6.6079 13.1864 6.6079H14.4463V4.13421C14.4463 4.13421 14.4439 4.13378 14.4392 4.13298C14.4392 4.13298 13.2979 3.93359 12.2019 3.93359C9.91941 3.93359 8.42788 5.32683 8.42788 7.84602V10.0638H5.89116V12.9697H5.8983V12.9713H8.42788V19.9984C8.43027 19.9988 8.43265 19.9992 8.43503 19.9995C3.65537 19.2432 0 15.081 0 10.0597C0 4.50384 4.47458 0 9.99435 0Z" fill="#337FFF"/>
</svg>
