<svg width="31" height="30" viewBox="0 0 31 30" fill="none" xmlns="http://www.w3.org/2000/svg">

<path d="M25.6452 14.5726C25.6452 8.73347 20.9118 4 15.0726 4C9.23347 4 4.5 8.73347 4.5 14.5726C4.5 19.85 8.36686 24.2248 13.4231 25.0197V17.6326H10.7396V14.5786H13.4231V12.2477C13.4231 9.60008 15.0009 8.13581 17.4154 8.13581C18.5749 8.13581 19.7822 8.34499 19.7822 8.34499V10.9448H18.4494C17.1345 10.9448 16.7281 11.7576 16.7281 12.5944V14.5786H19.6626L19.1965 17.6326H16.7341V25.0197C21.7903 24.2248 25.6572 19.85 25.6572 14.5726H25.6452Z" fill="currentColor"/>

</svg>
