<svg width="40" height="24" viewBox="0 0 40 24" fill="none" xmlns="http://www.w3.org/2000/svg">
<path d="M18.0102 11.7925V15.9422H16.6602V5.67969H20.1702C21.0252 5.67969 21.8352 5.99202 22.4652 6.57208C23.0952 7.10751 23.4102 7.91066 23.4102 8.75843C23.4102 9.6062 23.0952 10.3647 22.4652 10.9448C21.8352 11.5248 21.0702 11.8372 20.1702 11.8372L18.0102 11.7925ZM18.0102 6.92903V10.4986H20.2602C20.7552 10.4986 21.2502 10.3201 21.5652 9.96315C22.2852 9.29386 22.2852 8.17838 21.6102 7.50908L21.5652 7.46446C21.2052 7.10751 20.7552 6.88441 20.2602 6.92903H18.0102Z" fill="#5F6368"/>
<path d="M26.5152 8.71094C27.5052 8.71094 28.2702 8.97865 28.8552 9.51409C29.4402 10.0495 29.7102 10.7634 29.7102 11.6558V15.9393H28.4502V14.9577H28.4052C27.8652 15.7608 27.1002 16.1624 26.2002 16.1624C25.4352 16.1624 24.7602 15.9393 24.2202 15.4931C23.7252 15.0469 23.4102 14.4222 23.4102 13.7529C23.4102 13.039 23.6802 12.459 24.2202 12.0128C24.7602 11.5666 25.5252 11.3881 26.4252 11.3881C27.2352 11.3881 27.8652 11.522 28.3602 11.8343V11.522C28.3602 11.0758 28.1802 10.6296 27.8202 10.3619C27.4602 10.0495 27.0102 9.87104 26.5152 9.87104C25.7502 9.87104 25.1652 10.1834 24.7602 10.8081L23.5902 10.0941C24.3102 9.15713 25.2552 8.71094 26.5152 8.71094ZM24.8052 13.7976C24.8052 14.1545 24.9852 14.4668 25.2552 14.6453C25.5702 14.8684 25.9302 15.0023 26.2902 15.0023C26.8302 15.0023 27.3702 14.7792 27.7752 14.3776C28.2252 13.976 28.4502 13.4852 28.4502 12.9498C28.0452 12.6374 27.4602 12.459 26.6952 12.459C26.1552 12.459 25.7052 12.5928 25.3452 12.8605C24.9852 13.0836 24.8052 13.396 24.8052 13.7976Z" fill="#5F6368"/>
<path d="M36.9986 8.9375L32.5436 19.0661H31.1936L32.8586 15.5412L29.9336 8.98212H31.3736L33.4886 14.0241H33.5336L35.6036 8.98212H36.9986V8.9375Z" fill="#5F6368"/>
<path d="M12.6564 10.9C12.6564 10.4985 12.6114 10.0969 12.5664 9.69531H6.94141V11.9709H10.1364C10.0014 12.6848 9.59641 13.3541 8.96641 13.7557V15.2281H10.9014C12.0264 14.2019 12.6564 12.6848 12.6564 10.9Z" fill="#4285F4"/>
<path d="M6.93891 16.6571C8.55891 16.6571 9.90891 16.1217 10.8989 15.2293L8.96391 13.7568C8.42391 14.1138 7.74891 14.3369 6.93891 14.3369C5.40891 14.3369 4.05891 13.3106 3.60891 11.8828H1.62891V13.3999C2.66391 15.4077 4.68891 16.6571 6.93891 16.6571Z" fill="#34A853"/>
<path d="M3.60953 11.8786C3.33953 11.1647 3.33953 10.3615 3.60953 9.603V8.08594H1.62953C0.774531 9.73686 0.774531 11.7001 1.62953 13.3956L3.60953 11.8786Z" fill="#FBBC04"/>
<path d="M6.94078 7.19761C7.79578 7.19761 8.60578 7.50995 9.23578 8.09L10.9458 6.39446C9.86578 5.41283 8.42578 4.83278 6.98578 4.8774C4.73578 4.8774 2.66578 6.12674 1.67578 8.13462L3.65578 9.65168C4.06078 8.22386 5.41078 7.19761 6.94078 7.19761Z" fill="#EA4335"/>
</svg>
