<svg width="18" height="18" viewBox="0 0 18 18" fill="none" xmlns="http://www.w3.org/2000/svg">
<path d="M3.98925 10.88L3.36268 13.2191L1.0726 13.2675C0.388202 11.9981 0 10.5458 0 9.00237C0 7.50993 0.36296 6.10253 1.00633 4.86328H1.00682L3.04564 5.23707L3.93876 7.26365C3.75184 7.80862 3.64995 8.39363 3.64995 9.00237C3.65002 9.66304 3.76969 10.296 3.98925 10.88Z" fill="#FBBB00"/>
<path d="M17.8404 7.32031C17.9437 7.86475 17.9976 8.42702 17.9976 9.00165C17.9976 9.64601 17.9299 10.2745 17.8008 10.8808C17.3627 12.9439 16.2179 14.7454 14.632 16.0203L14.6315 16.0198L12.0635 15.8888L11.7 13.6199C12.7523 13.0028 13.5747 12.037 14.0079 10.8808H9.19531V7.32031H14.0781H17.8404Z" fill="#518EF8"/>
<path d="M14.6397 16.0194L14.6402 16.0199C13.0978 17.2596 11.1385 18.0014 9.00568 18.0014C5.5782 18.0014 2.59827 16.0856 1.07812 13.2664L3.99477 10.8789C4.75483 12.9074 6.71163 14.3514 9.00568 14.3514C9.99173 14.3514 10.9155 14.0848 11.7082 13.6195L14.6397 16.0194Z" fill="#28B446"/>
<path d="M14.7464 2.07201L11.8307 4.45902C11.0104 3.94622 10.0406 3.64999 9.00164 3.64999C6.65566 3.64999 4.66226 5.16022 3.94028 7.26144L1.0083 4.86107H1.00781C2.50571 1.97311 5.52322 0 9.00164 0C11.1854 0 13.1877 0.777881 14.7464 2.07201Z" fill="#F14336"/>
</svg>
