<svg width="24" height="24" viewBox="0 0 24 24" fill="none" xmlns="http://www.w3.org/2000/svg">
<rect width="24" height="24" rx="12" fill="#F5F2FF"/>
<path d="M15.0385 8.60415C15.0382 8.85935 15.0379 10.8013 15.0379 11.1628C15.0379 12.7057 13.9815 14.0096 12.5303 14.4359C12.2045 14.5318 11.8588 14.5832 11.5004 14.5832C11.142 14.5832 10.7963 14.5318 10.4705 14.4359C9.01932 14.0096 7.96296 12.7057 7.96296 11.1628C7.96296 10.7645 7.96255 8.87492 7.96213 8.60448M7.96296 8.60449C9.30324 8.64731 11.1071 8.18258 11.5004 6.78451C11.6534 7.3859 12.29 7.88382 12.8393 8.18257C13.5259 8.51452 14.2812 8.61411 15.0379 8.60448M6.59824 20L6.34073 19.9054C5.20324 19.4876 4.66679 18.206 5.22014 17.1582C5.23102 17.1376 5.24224 17.1171 5.25385 17.0968C5.54875 16.5796 5.61535 15.9691 5.43889 15.4038L5.09696 14.3104C4.95551 13.8583 4.96925 13.3739 5.13541 12.9295L5.70873 11.3982C5.83576 11.0589 5.87421 10.6944 5.82099 10.3376C5.56763 8.64564 5.83507 7.29029 7.07441 6.02224C8.23136 4.83817 9.7838 4 11.5 4M6.59824 20L16.4018 20M6.59824 20C6.83719 18.3363 7.96083 16.9461 9.49474 16.2878C9.58571 16.2486 9.67772 16.2124 9.77144 16.1786C10.1906 16.0276 10.4701 15.6422 10.4701 15.2096V14.4359M11.5 4H11.5003M11.5 4L11.4997 4M11.5 4C13.2162 4 14.7686 4.83817 15.9256 6.02224C17.1649 7.29029 17.4324 8.64564 17.179 10.3376C17.1258 10.6944 17.1642 11.0589 17.2913 11.3982L17.8646 12.9295C18.0308 13.3739 18.0445 13.8583 17.903 14.3104L17.5611 15.4038C17.3846 15.9691 17.4513 16.5796 17.7462 17.0968C17.7578 17.1171 17.769 17.1376 17.7799 17.1582C18.3332 18.206 17.7968 19.4876 16.6593 19.9054L16.4018 20M16.4018 20C16.1628 18.3363 15.0392 16.9461 13.5053 16.2878C13.4143 16.2486 13.3223 16.2124 13.2286 16.1786C12.8094 16.0276 12.5299 15.6422 12.5299 15.2096V14.4359" stroke="#6C3C87" stroke-miterlimit="10" stroke-linecap="round" stroke-linejoin="round"/>
</svg>
