<svg width="53" height="31" viewBox="0 0 53 31" fill="none" xmlns="http://www.w3.org/2000/svg">
<path d="M51.3244 24.1015C51.2593 23.9861 51.112 23.9448 50.9953 24.0092L46.9319 26.2566L37.6618 10.4985C37.5647 10.3333 37.539 10.1413 37.5905 9.95791C37.6421 9.77448 37.7624 9.62142 37.9356 9.52667L46.9859 4.36265C47.1013 4.29706 47.1419 4.15007 47.0743 4.03588C47.0068 3.92169 46.8594 3.8816 46.744 3.94841L37.6974 9.11C37.4137 9.26549 37.2111 9.52181 37.1251 9.83036C37.0392 10.1389 37.0821 10.462 37.2442 10.739L37.3228 10.8714L36.7309 11.1933C36.4166 11.3646 36.1882 11.6464 36.0899 11.9878C36.0236 12.2162 36.0273 12.4506 36.085 12.6742L30.5222 11.3379C30.257 10.971 29.8235 10.7451 29.3642 10.7451H25.4457C25.1387 10.7451 24.8513 10.8544 24.6168 11.0464C24.6008 11.0354 24.5848 11.0233 24.5652 11.016L21.8906 10.077C21.0912 9.74776 20.3213 9.86316 19.9725 10.3624C19.5992 10.8969 19.8104 11.672 20.5386 12.4348C20.546 12.4433 20.5546 12.4506 20.5632 12.4579L22.0134 13.6059L21.1747 14.4356C21.0703 14.5388 20.9009 14.5388 20.7965 14.4356L19.5218 13.1746L19.7539 12.7786C19.8153 12.6742 19.7883 12.5405 19.6901 12.4676L18.1993 11.3513L18.9729 10.0357C19.0048 9.98099 19.0147 9.91539 18.9975 9.85344C18.9815 9.79149 18.9398 9.73925 18.8845 9.70767L12.7752 6.23584C12.6598 6.17024 12.5112 6.20911 12.4449 6.32452C12.3786 6.43871 12.4179 6.58569 12.5345 6.65129L18.4326 10.0029L9.56525 25.0879C9.32702 25.4949 8.81003 25.6419 8.39006 25.4232L1.91853 22.0425C1.79942 21.9805 1.65328 22.0255 1.59066 22.1421C1.52803 22.2587 1.57347 22.4033 1.69135 22.4652L8.16165 25.846C8.3655 25.9529 8.58408 26.0027 8.80021 26.0027C9.27176 26.0027 9.72857 25.7597 9.98154 25.3285L10.8411 23.8671L11.7253 24.3044C11.8911 24.387 12.0691 24.4259 12.2447 24.4259C12.6487 24.4259 13.0405 24.2182 13.2554 23.8513L15.117 20.6783L17.8002 22.5223C17.783 22.543 17.7658 22.5636 17.7486 22.5843C16.9246 23.6302 17.1186 24.8049 17.7191 25.3807C17.9807 25.631 18.3515 25.8071 18.801 25.8071C19.0797 25.8071 19.3904 25.7366 19.7232 25.5775C19.6176 25.9395 19.6508 26.2225 19.7048 26.4072C19.8386 26.8615 20.2292 27.1956 20.7474 27.3013C20.8567 27.3231 20.9745 27.3353 21.101 27.3353C21.4756 27.3353 21.914 27.2223 22.3388 26.9441C22.318 27.1215 22.3339 27.2758 22.3683 27.4033C22.4874 27.8503 22.8681 28.1832 23.4109 28.3144C23.5754 28.3545 23.7424 28.3739 23.9094 28.3739C24.4129 28.3739 24.9115 28.1978 25.3045 27.8831C25.3118 27.9342 25.3216 27.984 25.3339 28.0277C25.4874 28.5561 26.0584 28.9886 26.8223 29.155C26.9831 29.1902 27.1477 29.2073 27.311 29.2073C27.941 29.2073 28.5721 28.9521 29.0376 28.4917L29.2267 28.3047C29.4244 28.8112 29.9217 29.172 30.5025 29.172C31.2578 29.172 31.8718 28.5646 31.8718 27.8175V27.5637C32.11 27.7641 32.4194 27.8856 32.7559 27.8856C33.5111 27.8856 34.1239 27.2782 34.1239 26.5311V26.0756C34.3855 26.3112 34.7318 26.4558 35.1124 26.4558C35.8087 26.4558 36.392 25.9747 36.5455 25.3321L39.9483 25.1705C40.4849 25.1705 40.9368 24.8693 41.1886 24.3445C41.4771 23.742 41.428 23.018 41.0682 22.5831C40.9294 22.4154 40.7526 22.3012 40.5488 22.2405L41.1922 21.7898L42.9434 24.8766C42.9753 24.9337 43.0293 24.9738 43.0932 24.9908C43.114 24.9956 43.1349 24.9993 43.1546 24.9993C43.1988 24.9993 43.2418 24.9871 43.2798 24.9653L45.0015 23.9351L46.6286 26.7C46.674 26.7765 46.755 26.819 46.8386 26.819C46.8791 26.819 46.9196 26.8093 46.9564 26.7886L51.2274 24.4259C51.3441 24.3615 51.3858 24.2157 51.3207 24.1003L51.3244 24.1015ZM20.8775 12.0971C20.336 11.5238 20.1407 10.965 20.3691 10.6382C20.5816 10.3345 21.1293 10.2871 21.715 10.5276L24.2324 11.4108L22.356 13.267L20.8775 12.0971ZM12.8366 23.612C12.6561 23.9193 12.2632 24.0359 11.9414 23.8768L11.0855 23.4529L17.9537 11.7691L19.2259 12.7215L19.0454 13.0301C19.0454 13.0301 19.0392 13.0337 19.0368 13.0362C19.0048 13.0677 18.9876 13.1066 18.9778 13.1467L14.8469 20.1875C14.8469 20.1875 14.8407 20.1924 14.8383 20.1948C14.8333 20.2021 14.8321 20.2106 14.8284 20.2191L12.8379 23.612H12.8366ZM15.3614 20.2629L19.2676 13.6047L20.4514 14.7757C20.7351 15.0563 21.2312 15.0563 21.5149 14.7757L24.8611 11.4642C25.0159 11.3112 25.2222 11.2261 25.442 11.2261H29.3605C29.6872 11.2261 29.9966 11.3986 30.1661 11.6756L32.9327 16.1994C33.2643 16.8178 33.2262 17.3012 32.8259 17.5624C32.2426 17.9414 30.8231 17.7799 29.7866 16.4983L28.399 14.7186C28.1337 14.3785 27.7162 14.1756 27.2815 14.1756H25.3045C25.1706 14.1756 25.0625 14.2825 25.0625 14.4149C25.0625 14.5473 25.1706 14.6542 25.3045 14.6542H25.5832C22.8165 16.7801 20.5546 19.2145 18.1072 22.1506L15.3602 20.2616L15.3614 20.2629ZM31.3904 27.8188C31.3904 28.301 30.9937 28.6934 30.5062 28.6934C30.0187 28.6934 29.6221 28.301 29.6221 27.8188V26.0476C29.6221 25.5654 30.0187 25.173 30.5062 25.173C30.9937 25.173 31.3904 25.5654 31.3904 26.0476V27.8188ZM33.6438 26.5323C33.6438 27.0146 33.2471 27.407 32.7596 27.407C32.2721 27.407 31.8754 27.0146 31.8754 26.5323V24.7612C31.8754 24.2789 32.2721 23.8865 32.7596 23.8865C33.2471 23.8865 33.6438 24.2789 33.6438 24.7612V26.5323ZM36.1059 25.0005C36.1059 25.5398 35.6626 25.9784 35.1173 25.9784C34.5721 25.9784 34.1288 25.5398 34.1288 25.0005V23.0653C34.1288 22.526 34.5721 22.0874 35.1173 22.0874C35.6626 22.0874 36.1059 22.526 36.1059 23.0653V25.0005ZM40.6961 22.888C40.9331 23.1747 40.9589 23.714 40.7538 24.1416C40.6556 24.3481 40.4198 24.6931 39.9397 24.6944L36.5897 24.8535V24.6931L38.7805 23.3581C38.8247 23.3314 38.8701 23.3071 38.9168 23.284C39.1734 23.1528 39.6536 22.8673 39.8832 22.7106C39.8967 22.7106 39.9102 22.7118 39.9237 22.7094C40.2688 22.6244 40.5279 22.6863 40.6974 22.8892L40.6961 22.888ZM39.6339 22.2976C39.4337 22.4373 38.9425 22.7301 38.6945 22.8576C38.638 22.8868 38.5827 22.9159 38.5275 22.9487L36.5897 24.1295V23.0641C36.5897 22.2612 35.9291 21.6064 35.1161 21.6064C34.3032 21.6064 33.6425 22.2599 33.6425 23.0641V23.7286C33.4043 23.5282 33.0948 23.4067 32.7584 23.4067C32.0032 23.4067 31.3892 24.0141 31.3892 24.7612V25.0151C31.1509 24.8146 30.8415 24.6931 30.505 24.6931C29.7498 24.6931 29.137 25.3005 29.137 26.0476V27.7204L28.6974 28.1553C28.2271 28.6205 27.5505 28.8246 26.9291 28.6885C26.3556 28.5634 25.9025 28.2439 25.8018 27.8953C25.7281 27.6426 25.8349 27.3742 26.1174 27.0972L28.8558 24.3882C28.9504 24.2947 28.9504 24.1428 28.8558 24.0493C28.7613 23.9558 28.6078 23.9558 28.5132 24.0493L25.7785 26.7546C25.7785 26.7546 25.7785 26.7546 25.7772 26.7546C25.776 26.7558 25.7748 26.757 25.7735 26.7595L25.1902 27.3365C24.7138 27.854 24.0114 27.9657 23.5263 27.8491C23.1604 27.7605 22.9086 27.5527 22.8362 27.2806C22.7306 26.8858 22.9921 26.3671 23.5656 25.8168L26.6417 22.905C26.7387 22.8139 26.7412 22.662 26.6491 22.5661C26.557 22.4701 26.4035 22.4677 26.3065 22.5588L23.2869 25.4171C23.2869 25.4171 23.2819 25.4196 23.2807 25.4208C23.2537 25.4463 23.2291 25.4718 23.2034 25.4973L22.6237 26.0452C22.6164 26.0513 22.6102 26.0586 22.6041 26.0658C22.0134 26.7741 21.3073 26.9271 20.8431 26.8324C20.4981 26.7619 20.2513 26.559 20.1678 26.2736C20.0314 25.8144 20.3212 25.1973 20.9598 24.579L24.575 20.8751C24.6683 20.7803 24.6647 20.6285 24.5689 20.5362C24.4731 20.4451 24.3196 20.4475 24.2263 20.5423L20.6221 24.2352C20.5497 24.3056 20.4821 24.3749 20.4195 24.4429L20.1125 24.7575C19.329 25.3977 18.5407 25.5058 18.0531 25.0381C17.6037 24.6081 17.4772 23.7043 18.1244 22.8843C20.8346 19.6032 23.2795 16.9465 26.3814 14.6567H27.2803C27.5652 14.6567 27.8403 14.7903 28.0134 15.0138L29.4035 16.7959C30.1894 17.7665 31.243 18.2245 32.1051 18.2245C32.4833 18.2245 32.8247 18.1358 33.0899 17.9645C33.7101 17.5612 33.8108 16.8178 33.3527 15.965L30.8795 11.921L36.2594 13.2123C36.279 13.2172 36.2975 13.2196 36.3171 13.2196C36.3208 13.2196 36.3245 13.2184 36.3282 13.2172L40.954 21.3707L39.6302 22.2976H39.6339ZM43.2467 24.4283L36.629 12.7653C36.5173 12.5685 36.4902 12.3389 36.5529 12.1214C36.6155 11.904 36.7604 11.7242 36.9606 11.6149L37.5635 11.2869L44.7608 23.5221L43.2454 24.4283H43.2467Z" fill="#6C3C87" stroke="#6C3C87" stroke-width="0.56" stroke-linejoin="round"/>
</svg>
