<svg width="16" height="17" viewBox="0 0 16 17" fill="none" xmlns="http://www.w3.org/2000/svg">
<path d="M7.5 8L7.52733 7.98667C7.61282 7.94396 7.70875 7.92664 7.80378 7.93677C7.8988 7.9469 7.98893 7.98404 8.0635 8.04381C8.13806 8.10357 8.19394 8.18345 8.22451 8.27399C8.25508 8.36453 8.25907 8.46193 8.236 8.55467L7.764 10.4453C7.74076 10.5381 7.74463 10.6356 7.77513 10.7263C7.80563 10.8169 7.86149 10.8969 7.93609 10.9568C8.01069 11.0166 8.10089 11.0538 8.196 11.064C8.2911 11.0741 8.38712 11.0568 8.47267 11.014L8.5 11M14 8.5C14 9.28793 13.8448 10.0681 13.5433 10.7961C13.2417 11.5241 12.7998 12.1855 12.2426 12.7426C11.6855 13.2998 11.0241 13.7417 10.2961 14.0433C9.56815 14.3448 8.78793 14.5 8 14.5C7.21207 14.5 6.43185 14.3448 5.7039 14.0433C4.97595 13.7417 4.31451 13.2998 3.75736 12.7426C3.20021 12.1855 2.75825 11.5241 2.45672 10.7961C2.15519 10.0681 2 9.28793 2 8.5C2 6.9087 2.63214 5.38258 3.75736 4.25736C4.88258 3.13214 6.4087 2.5 8 2.5C9.5913 2.5 11.1174 3.13214 12.2426 4.25736C13.3679 5.38258 14 6.9087 14 8.5ZM8 6H8.00533V6.00533H8V6Z" stroke="#111111" stroke-linecap="round" stroke-linejoin="round"/>
</svg>
