<svg width="30" height="30" viewBox="0 0 30 30" fill="none" xmlns="http://www.w3.org/2000/svg">

<path d="M20.1668 7.78125C19.4795 7.78125 18.9297 8.33707 18.9297 9.01841C18.9297 9.69974 19.4855 10.2556 20.1668 10.2556C20.8482 10.2556 21.404 9.69974 21.404 9.01841C21.404 8.33707 20.8482 7.78125 20.1668 7.78125Z" fill="currentColor"/>
<path d="M14.6587 9.36719C11.79 9.36719 9.45312 11.704 9.45312 14.5728C9.45312 17.4416 11.79 19.7784 14.6587 19.7784C17.5275 19.7784 19.8644 17.4416 19.8644 14.5728C19.8644 11.704 17.5275 9.36719 14.6587 9.36719ZM14.6587 17.9078C12.818 17.9078 11.3238 16.4136 11.3238 14.5728C11.3238 12.732 12.818 11.2379 14.6587 11.2379C16.4995 11.2379 17.9937 12.732 17.9937 14.5728C17.9937 16.4136 16.4995 17.9078 14.6587 17.9078Z" fill="currentColor"/>
<path d="M18.7903 25.1452H10.3453C6.84303 25.1452 3.99219 22.2944 3.99219 18.7921V10.3472C3.99816 6.85084 6.849 4 10.3513 4H18.7962C22.2985 4 25.1494 6.85084 25.1494 10.3531V18.7981C25.1494 22.3004 22.2985 25.1512 18.7962 25.1512L18.7903 25.1452ZM10.3513 5.99021C7.9487 5.99021 5.98837 7.94456 5.98837 10.3531V18.7981C5.98837 21.2007 7.94272 23.161 10.3513 23.161H18.7962C21.1988 23.161 23.1592 21.2066 23.1592 18.7981V10.3531C23.1592 7.95054 21.2048 5.99021 18.7962 5.99021H10.3513Z" fill="currentColor"/>

</svg>
