<svg width="24" height="24" viewBox="0 0 24 24" fill="none" xmlns="http://www.w3.org/2000/svg">
<rect width="24" height="24" rx="12" fill="#F5F2FF"/>
<circle cx="12" cy="12" r="7.5" stroke="#6C3C87"/>
<mask id="path-3-outside-1_7511_45581" maskUnits="userSpaceOnUse" x="7" y="8" width="10" height="8" fill="black">
<rect fill="white" x="7" y="8" width="10" height="8"/>
<path d="M12.8518 13.1086C12.9478 14.1416 13.9859 14.6067 14.882 14.0649C14.9104 14.0481 14.9361 14.0275 14.9631 14.0094C15.1794 13.8679 15.3923 13.8635 15.5538 14.0693C15.7085 14.2675 15.6139 14.4402 15.4328 14.5861C14.5941 15.2601 13.0951 15.0868 12.4591 14.242C11.8854 13.4795 11.884 12.174 12.4571 11.4078C12.9153 10.7949 13.6973 10.5268 14.5056 10.7058C15.2909 10.8797 15.8755 11.5318 15.9796 12.3511C15.9904 12.4334 15.9965 12.5163 15.9992 12.5992C16.0113 12.9895 15.8944 13.1061 15.472 13.1079C14.7293 13.111 13.9865 13.1086 13.2438 13.1092C13.1221 13.1092 12.9991 13.1086 12.8518 13.1086ZM15.1577 12.3716C15.101 11.7588 14.6056 11.3492 13.9669 11.3729C13.3803 11.3947 12.9106 11.8348 12.9086 12.3716H15.1577Z"/>
<path d="M8.7718 11.6883C9.4375 11.6883 10.0444 11.6871 10.6513 11.6883C10.9966 11.6896 11.1866 11.8143 11.1724 12.0431C11.1541 12.3442 10.9277 12.4028 10.6506 12.4009C10.0444 12.3972 9.4375 12.3997 8.79275 12.3997C8.78464 12.5225 8.77248 12.621 8.77248 12.7195C8.77045 13.3324 8.77045 13.9452 8.77112 14.5581C8.77112 14.7956 8.67718 14.9801 8.39469 14.9833C8.09394 14.987 8 14.8 8 14.5456C8.0027 12.8423 8 11.1384 8.00338 9.43518C8.00338 9.1141 8.12368 9.00438 8.47173 9.00313C9.39492 8.99876 10.3181 9.005 11.242 9.00001C11.5089 8.99876 11.6982 9.0954 11.7029 9.34665C11.7076 9.6191 11.5028 9.71324 11.2264 9.71199C10.5168 9.70825 9.80718 9.71947 9.09823 9.70638C8.8556 9.70202 8.75761 9.75563 8.76572 9.99878C8.78397 10.5468 8.7718 11.0954 8.7718 11.6883Z"/>
<path d="M12.8518 13.1086C12.9478 14.1416 13.9859 14.6067 14.882 14.0649C14.9104 14.0481 14.9361 14.0275 14.9631 14.0094C15.1794 13.8679 15.3923 13.8635 15.5538 14.0693C15.7085 14.2675 15.6139 14.4402 15.4328 14.5861C14.5941 15.2601 13.0951 15.0868 12.4591 14.242C11.8854 13.4795 11.884 12.174 12.4571 11.4078C12.9153 10.7949 13.6973 10.5268 14.5056 10.7058C15.2909 10.8797 15.8755 11.5318 15.9796 12.3511C15.9904 12.4334 15.9965 12.5163 15.9992 12.5992C16.0113 12.9895 15.8944 13.1061 15.472 13.1079C14.7293 13.111 13.9865 13.1086 13.2438 13.1092C13.1221 13.1092 12.9991 13.1086 12.8518 13.1086ZM15.1577 12.3716C15.101 11.7588 14.6056 11.3492 13.9669 11.3729C13.3803 11.3947 12.9106 11.8348 12.9086 12.3716H15.1577Z"/>
<path d="M8.7718 11.6883C9.4375 11.6883 10.0444 11.6871 10.6513 11.6883C10.9966 11.6896 11.1866 11.8143 11.1724 12.0431C11.1541 12.3442 10.9277 12.4028 10.6506 12.4009C10.0444 12.3972 9.4375 12.3997 8.79275 12.3997C8.78464 12.5225 8.77248 12.621 8.77248 12.7195C8.77045 13.3324 8.77045 13.9452 8.77112 14.5581C8.77112 14.7956 8.67718 14.9801 8.39469 14.9833C8.09394 14.987 8 14.8 8 14.5456C8.0027 12.8423 8 11.1384 8.00338 9.43518C8.00338 9.1141 8.12368 9.00438 8.47173 9.00313C9.39492 8.99876 10.3181 9.005 11.242 9.00001C11.5089 8.99876 11.6982 9.0954 11.7029 9.34665C11.7076 9.6191 11.5028 9.71324 11.2264 9.71199C10.5168 9.70825 9.80718 9.71947 9.09823 9.70638C8.8556 9.70202 8.75761 9.75563 8.76572 9.99878C8.78397 10.5468 8.7718 11.0954 8.7718 11.6883Z"/>
</mask>
<path d="M12.8518 13.1086C12.9478 14.1416 13.9859 14.6067 14.882 14.0649C14.9104 14.0481 14.9361 14.0275 14.9631 14.0094C15.1794 13.8679 15.3923 13.8635 15.5538 14.0693C15.7085 14.2675 15.6139 14.4402 15.4328 14.5861C14.5941 15.2601 13.0951 15.0868 12.4591 14.242C11.8854 13.4795 11.884 12.174 12.4571 11.4078C12.9153 10.7949 13.6973 10.5268 14.5056 10.7058C15.2909 10.8797 15.8755 11.5318 15.9796 12.3511C15.9904 12.4334 15.9965 12.5163 15.9992 12.5992C16.0113 12.9895 15.8944 13.1061 15.472 13.1079C14.7293 13.111 13.9865 13.1086 13.2438 13.1092C13.1221 13.1092 12.9991 13.1086 12.8518 13.1086ZM15.1577 12.3716C15.101 11.7588 14.6056 11.3492 13.9669 11.3729C13.3803 11.3947 12.9106 11.8348 12.9086 12.3716H15.1577Z" fill="#6C3C87"/>
<path d="M8.7718 11.6883C9.4375 11.6883 10.0444 11.6871 10.6513 11.6883C10.9966 11.6896 11.1866 11.8143 11.1724 12.0431C11.1541 12.3442 10.9277 12.4028 10.6506 12.4009C10.0444 12.3972 9.4375 12.3997 8.79275 12.3997C8.78464 12.5225 8.77248 12.621 8.77248 12.7195C8.77045 13.3324 8.77045 13.9452 8.77112 14.5581C8.77112 14.7956 8.67718 14.9801 8.39469 14.9833C8.09394 14.987 8 14.8 8 14.5456C8.0027 12.8423 8 11.1384 8.00338 9.43518C8.00338 9.1141 8.12368 9.00438 8.47173 9.00313C9.39492 8.99876 10.3181 9.005 11.242 9.00001C11.5089 8.99876 11.6982 9.0954 11.7029 9.34665C11.7076 9.6191 11.5028 9.71324 11.2264 9.71199C10.5168 9.70825 9.80718 9.71947 9.09823 9.70638C8.8556 9.70202 8.75761 9.75563 8.76572 9.99878C8.78397 10.5468 8.7718 11.0954 8.7718 11.6883Z" fill="#6C3C87"/>
<path d="M12.8518 13.1086C12.9478 14.1416 13.9859 14.6067 14.882 14.0649C14.9104 14.0481 14.9361 14.0275 14.9631 14.0094C15.1794 13.8679 15.3923 13.8635 15.5538 14.0693C15.7085 14.2675 15.6139 14.4402 15.4328 14.5861C14.5941 15.2601 13.0951 15.0868 12.4591 14.242C11.8854 13.4795 11.884 12.174 12.4571 11.4078C12.9153 10.7949 13.6973 10.5268 14.5056 10.7058C15.2909 10.8797 15.8755 11.5318 15.9796 12.3511C15.9904 12.4334 15.9965 12.5163 15.9992 12.5992C16.0113 12.9895 15.8944 13.1061 15.472 13.1079C14.7293 13.111 13.9865 13.1086 13.2438 13.1092C13.1221 13.1092 12.9991 13.1086 12.8518 13.1086ZM15.1577 12.3716C15.101 11.7588 14.6056 11.3492 13.9669 11.3729C13.3803 11.3947 12.9106 11.8348 12.9086 12.3716H15.1577Z" stroke="#6C3C87" stroke-width="0.2" mask="url(#path-3-outside-1_7511_45581)"/>
<path d="M8.7718 11.6883C9.4375 11.6883 10.0444 11.6871 10.6513 11.6883C10.9966 11.6896 11.1866 11.8143 11.1724 12.0431C11.1541 12.3442 10.9277 12.4028 10.6506 12.4009C10.0444 12.3972 9.4375 12.3997 8.79275 12.3997C8.78464 12.5225 8.77248 12.621 8.77248 12.7195C8.77045 13.3324 8.77045 13.9452 8.77112 14.5581C8.77112 14.7956 8.67718 14.9801 8.39469 14.9833C8.09394 14.987 8 14.8 8 14.5456C8.0027 12.8423 8 11.1384 8.00338 9.43518C8.00338 9.1141 8.12368 9.00438 8.47173 9.00313C9.39492 8.99876 10.3181 9.005 11.242 9.00001C11.5089 8.99876 11.6982 9.0954 11.7029 9.34665C11.7076 9.6191 11.5028 9.71324 11.2264 9.71199C10.5168 9.70825 9.80718 9.71947 9.09823 9.70638C8.8556 9.70202 8.75761 9.75563 8.76572 9.99878C8.78397 10.5468 8.7718 11.0954 8.7718 11.6883Z" stroke="#6C3C87" stroke-width="0.2" mask="url(#path-3-outside-1_7511_45581)"/>
<path d="M12.8518 13.1086C12.9478 14.1416 13.9859 14.6067 14.882 14.0649C14.9104 14.0481 14.9361 14.0275 14.9631 14.0094C15.1794 13.8679 15.3923 13.8635 15.5538 14.0693C15.7085 14.2675 15.6139 14.4402 15.4328 14.5861C14.5941 15.2601 13.0951 15.0868 12.4591 14.242C11.8854 13.4795 11.884 12.174 12.4571 11.4078C12.9153 10.7949 13.6973 10.5268 14.5056 10.7058C15.2909 10.8797 15.8755 11.5318 15.9796 12.3511C15.9904 12.4334 15.9965 12.5163 15.9992 12.5992C16.0113 12.9895 15.8944 13.1061 15.472 13.1079C14.7293 13.111 13.9865 13.1086 13.2438 13.1092C13.1221 13.1092 12.9991 13.1086 12.8518 13.1086ZM15.1577 12.3716C15.101 11.7588 14.6056 11.3492 13.9669 11.3729C13.3803 11.3947 12.9106 11.8348 12.9086 12.3716H15.1577Z" stroke="#6C3C87" stroke-width="0.2" mask="url(#path-3-outside-1_7511_45581)"/>
<path d="M8.7718 11.6883C9.4375 11.6883 10.0444 11.6871 10.6513 11.6883C10.9966 11.6896 11.1866 11.8143 11.1724 12.0431C11.1541 12.3442 10.9277 12.4028 10.6506 12.4009C10.0444 12.3972 9.4375 12.3997 8.79275 12.3997C8.78464 12.5225 8.77248 12.621 8.77248 12.7195C8.77045 13.3324 8.77045 13.9452 8.77112 14.5581C8.77112 14.7956 8.67718 14.9801 8.39469 14.9833C8.09394 14.987 8 14.8 8 14.5456C8.0027 12.8423 8 11.1384 8.00338 9.43518C8.00338 9.1141 8.12368 9.00438 8.47173 9.00313C9.39492 8.99876 10.3181 9.005 11.242 9.00001C11.5089 8.99876 11.6982 9.0954 11.7029 9.34665C11.7076 9.6191 11.5028 9.71324 11.2264 9.71199C10.5168 9.70825 9.80718 9.71947 9.09823 9.70638C8.8556 9.70202 8.75761 9.75563 8.76572 9.99878C8.78397 10.5468 8.7718 11.0954 8.7718 11.6883Z" stroke="#6C3C87" stroke-width="0.2" mask="url(#path-3-outside-1_7511_45581)"/>
</svg>
