<svg width="24" height="24" viewBox="0 0 24 24" fill="none" xmlns="http://www.w3.org/2000/svg">
<rect width="24" height="24" rx="12" fill="#F5F2FF"/>
<path d="M5.63623 10.4167C5.93171 9.02722 6.6193 7.72115 7.68658 6.70754C8.75387 5.69393 10.0415 5.12411 11.3559 4.98474M18.3624 13.5816C18.067 14.9711 17.3794 16.2772 16.3121 17.2908C15.2448 18.3044 13.9571 18.8742 12.6428 19.0136M10.2502 8.96382C11.193 10.1206 12.5337 10.9753 12.5475 10.9835C15.0208 12.5468 15.8855 14.7525 16.2337 13.0327C16.539 11.5249 17.2427 10.1467 18.3162 9.12723L20 7.5281L17.1245 4L15.4407 5.59912C14.3673 6.61858 13.0112 7.19652 11.587 7.33128C9.30264 7.54761 10.2313 8.94059 10.2502 8.96382ZM13.7498 15.0362C12.807 13.8794 11.4663 13.0247 11.4525 13.0165C8.97921 11.4532 8.11449 9.24746 7.76625 10.9673C7.46102 12.4751 6.75725 13.8533 5.68381 14.8728L4 16.4719L6.87548 20L8.55929 18.4009C9.63273 17.3814 10.9888 16.8035 12.413 16.6687C14.6974 16.4524 13.7687 15.0594 13.7498 15.0362Z" stroke="#6C3C87" stroke-miterlimit="10"/>
</svg>
