<svg width="24" height="24" viewBox="0 0 24 24" fill="none" xmlns="http://www.w3.org/2000/svg">
<rect width="24" height="24" rx="12" fill="#F5F2FF"/>
<path d="M8.38342 11.0922C8.38342 11.0922 9.24907 12.1646 10.2766 11.0922M13.7233 11.0922C13.7233 11.0922 14.589 12.1646 15.6165 11.0922M20 12.001C20 12.7464 19.421 13.3507 18.7068 13.3507C18.665 13.3507 18.624 13.3485 18.5833 13.3446C17.9829 16.568 15.2637 19.001 12 19.001C8.73594 19.001 6.0167 16.568 5.41668 13.3446C5.37599 13.3485 5.33495 13.3507 5.29316 13.3507C4.57895 13.3507 4 12.7464 4 12.001C4 11.2555 4.57895 10.6513 5.29316 10.6513C5.33495 10.6513 5.37599 10.6534 5.41668 10.6574C6.0167 7.43433 8.73594 5.00098 12 5.00098C15.2637 5.00098 17.9829 7.43433 18.5833 10.6574C18.624 10.6534 18.665 10.6513 18.7068 10.6513C19.421 10.6513 20 11.2555 20 12.001Z" stroke="#6C3C87" stroke-miterlimit="10" stroke-linecap="round" stroke-linejoin="round"/>
<path d="M12.7473 15.0954C12.7473 15.6234 12.4173 16.0513 12.0103 16.0513C11.6033 16.0513 11.2734 15.6234 11.2734 15.0954C11.2734 14.5675 11.6033 14.1396 12.0103 14.1396C12.4173 14.1396 12.7473 14.5675 12.7473 15.0954Z" fill="#6C3C87"/>
</svg>
