<svg width="30" height="30" viewBox="0 0 30 30" fill="none" xmlns="http://www.w3.org/2000/svg">
<path d="M4.5 11.6699V20.2499C4.5 21.0456 4.81607 21.8086 5.37868 22.3712C5.94129 22.9339 6.70435 23.2499 7.5 23.2499H22.5C23.2956 23.2499 24.0587 22.9339 24.6213 22.3712C25.1839 21.8086 25.5 21.0456 25.5 20.2499V11.6699L16.572 17.1629C16.0992 17.4538 15.5551 17.6078 15 17.6078C14.4449 17.6078 13.9008 17.4538 13.428 17.1629L4.5 11.6699Z" fill="currentColor"/>
<path d="M25.5 9.908V9.75C25.5 8.95435 25.1839 8.19129 24.6213 7.62868C24.0587 7.06607 23.2956 6.75 22.5 6.75H7.5C6.70435 6.75 5.94129 7.06607 5.37868 7.62868C4.81607 8.19129 4.5 8.95435 4.5 9.75V9.908L14.214 15.886C14.4504 16.0314 14.7225 16.1084 15 16.1084C15.2775 16.1084 15.5496 16.0314 15.786 15.886L25.5 9.908Z" fill="currentColor"/>
</svg>
