<svg width="48" height="48" viewBox="0 0 48 48" fill="none" xmlns="http://www.w3.org/2000/svg">
<rect width="48" height="48" rx="24" fill="#F5F2FF"/>
<path d="M26.9388 18.5291C26.9388 20.053 25.6532 21.2847 24.0684 21.2847C22.4835 21.2847 21.1953 20.053 21.1953 18.5291C21.1953 17.0051 22.4809 15.7734 24.0684 15.7734C25.6558 15.7734 26.9388 17.0051 26.9388 18.5291Z" fill="#BEABCF"/>
<path d="M28.2768 25.0289C30.1699 23.7223 31.4246 21.5725 31.5441 19.1641C31.5441 18.7132 31.1305 18.5295 30.8416 18.5195H29.3967C29.0949 18.5195 28.6659 18.6882 28.6364 19.2203C28.6068 19.5126 28.4951 19.9835 28.4617 20.0997L28.4514 20.1322C27.912 21.9572 26.2822 23.2963 24.3955 23.4549L24.3762 23.4612C24.113 23.4799 23.8625 23.4799 23.5954 23.4549C22.6244 23.3713 21.719 22.9865 20.9779 22.3382C20.2343 21.6949 19.7039 20.8105 19.4817 19.8499L19.4624 19.7774C19.4393 19.65 19.3866 19.3777 19.3712 19.2216C19.3558 18.6957 18.914 18.5208 18.6109 18.5208H17.1545C16.8745 18.5308 16.4597 18.7144 16.4622 19.1816C16.5791 21.58 17.8467 23.7248 19.7373 25.0326C17.8467 26.3417 16.5804 28.489 16.4609 30.9012C16.4609 31.3521 16.8745 31.5345 17.166 31.5445H18.6122C18.9166 31.5445 19.3674 31.3584 19.3725 30.8449C19.3815 30.7288 19.3969 30.6139 19.4149 30.5002H19.4187L19.483 30.2129C19.9376 28.2367 21.5905 26.7852 23.5813 26.6091H23.6057C23.8574 26.5878 24.1155 26.5878 24.3775 26.6091H24.3968C26.2835 26.7702 27.9133 28.108 28.4527 29.9356L28.5221 30.1604V30.1579C28.5773 30.3853 28.6171 30.6176 28.6377 30.8462C28.6415 31.1273 28.7776 31.3434 29.0255 31.4608C29.1912 31.5395 29.3517 31.5457 29.398 31.5457H30.8544C31.1318 31.5345 31.5467 31.3534 31.5467 30.8849C31.4285 28.4853 30.1737 26.3417 28.2793 25.0314" fill="#6C3C87"/>
</svg>
