<svg width="42" height="48" viewBox="0 0 42 48" fill="none" xmlns="http://www.w3.org/2000/svg">
<path d="M20.9991 33.9093C27.9784 33.9093 33.6363 28.1897 33.6363 21.1343C33.6363 14.0789 27.9784 8.35938 20.9991 8.35938C14.0198 8.35938 8.36195 14.0789 8.36195 21.1343C8.36195 28.1897 14.0198 33.9093 20.9991 33.9093Z" fill="#6C3C87"/>
<path d="M35.8492 6.21774C31.8829 2.20819 26.6093 0 21 0C15.3907 0 10.1171 2.20819 6.15077 6.21774C2.18437 10.2275 0 15.5585 0 21.229C0 31.2328 6.91829 39.8694 16.5293 41.9741L21 48L25.4708 41.974C35.0817 39.8693 42 31.2328 42 21.229C42 15.5585 39.8156 10.2275 35.8492 6.21774ZM21 5.54207C29.5053 5.54207 36.4248 12.5371 36.4248 21.135C36.4248 29.7329 29.5053 36.728 21 36.728C12.4947 36.728 5.57522 29.7329 5.57522 21.135C5.57522 12.5371 12.4947 5.54207 21 5.54207Z" fill="#6C3C87"/>
<path d="M23.5609 17.2712C23.5609 18.5272 22.5382 19.5423 21.2776 19.5423C20.0169 19.5423 18.9922 18.5272 18.9922 17.2712C18.9922 16.0151 20.0148 15 21.2776 15C22.5403 15 23.5609 16.0151 23.5609 17.2712Z" fill="#BEABCF"/>
<path d="M24.6255 22.6306C26.1314 21.5537 27.1295 19.7818 27.2245 17.7969C27.2245 17.4252 26.8956 17.2739 26.6657 17.2656H25.5164C25.2763 17.2656 24.9351 17.4046 24.9116 17.8432C24.8881 18.0841 24.7992 18.4722 24.7726 18.568L24.7644 18.5948C24.3354 20.0989 23.0389 21.2026 21.5382 21.3333L21.5228 21.3385C21.3134 21.3539 21.1142 21.3539 20.9017 21.3333C20.1293 21.2644 19.4091 20.9473 18.8196 20.4129C18.2281 19.8827 17.8062 19.1538 17.6294 18.3621L17.6141 18.3024C17.5957 18.1974 17.5538 17.9729 17.5416 17.8442C17.5293 17.4108 17.1779 17.2667 16.9368 17.2667H15.7782C15.5555 17.2749 15.2255 17.4262 15.2276 17.8113C15.3205 19.788 16.3289 21.5557 17.8327 22.6337C16.3289 23.7126 15.3216 25.4824 15.2266 27.4704C15.2266 27.8421 15.5555 27.9924 15.7874 28.0007H16.9378C17.1799 28.0007 17.5385 27.8472 17.5426 27.4241C17.5497 27.3284 17.562 27.2336 17.5763 27.14H17.5794L17.6304 26.9032C17.9921 25.2744 19.3069 24.0781 20.8904 23.9329H20.9099C21.1101 23.9154 21.3154 23.9154 21.5239 23.9329H21.5392C23.0399 24.0657 24.3364 25.1684 24.7655 26.6746L24.8206 26.8599V26.8579C24.8646 27.0452 24.8962 27.2367 24.9126 27.4251C24.9156 27.6568 25.0239 27.8349 25.2211 27.9317C25.3529 27.9965 25.4806 28.0017 25.5174 28.0017H26.6759C26.8966 27.9924 27.2266 27.8431 27.2266 27.4571C27.1326 25.4793 26.1344 23.7126 24.6275 22.6326" fill="white"/>
</svg>
