<svg width="24" height="24" viewBox="0 0 24 24" fill="none" xmlns="http://www.w3.org/2000/svg">
<path d="M15.2475 6.17969H8.75781V17.8419H15.2475V6.17969Z" fill="#7375CF"/>
<path d="M9.1674 12.0106C9.16638 10.8874 9.42089 9.77874 9.91168 8.7685C10.4025 7.75825 11.1167 6.8729 12.0002 6.17947C10.9061 5.31945 9.59204 4.78462 8.20831 4.63611C6.82459 4.48759 5.427 4.73138 4.17528 5.33961C2.92356 5.94785 1.86822 6.89597 1.12989 8.07564C0.391547 9.2553 0 10.6189 0 12.0106C0 13.4022 0.391547 14.7658 1.12989 15.9455C1.86822 17.1251 2.92356 18.0733 4.17528 18.6815C5.427 19.2897 6.82459 19.5335 8.20831 19.385C9.59204 19.2365 10.9061 18.7017 12.0002 17.8417C11.1167 17.1482 10.4025 16.2629 9.91168 15.2526C9.42089 14.2424 9.16638 13.1337 9.1674 12.0106Z" fill="#EB001B"/>
<path d="M23.2895 16.6082V16.3694H23.3858V16.3208H23.1406V16.3694H23.2369V16.6082H23.2895ZM23.7656 16.6082V16.3203H23.6904L23.6039 16.5183L23.5175 16.3203H23.4423V16.6082H23.4954V16.391L23.5764 16.5782H23.6315L23.7125 16.3906V16.6082H23.7656Z" fill="#00A2E5"/>
<path d="M23.9998 12.0106C23.9999 13.4022 23.6084 14.7658 22.8701 15.9455C22.1318 17.1251 21.0765 18.0733 19.8248 18.6815C18.5731 19.2897 17.1755 19.5335 15.7918 19.385C14.4081 19.2365 13.0941 18.7017 12 17.8417C12.8828 17.1475 13.5964 16.262 14.0871 15.2519C14.5778 14.2418 14.8328 13.1335 14.8328 12.0106C14.8328 10.8876 14.5778 9.77927 14.0871 8.76918C13.5964 7.75909 12.8828 6.87359 12 6.17946C13.0941 5.31945 14.4081 4.78462 15.7918 4.63611C17.1755 4.48759 18.5731 4.73139 19.8248 5.33963C21.0765 5.94786 22.1318 6.896 22.8701 8.07566C23.6084 9.25532 23.9999 10.6189 23.9998 12.0106Z" fill="#00A2E5"/>
</svg>
