<svg width="42" height="29" viewBox="0 0 42 29" fill="none" xmlns="http://www.w3.org/2000/svg">
<g clip-path="url(#clip0_8542_56758)">
<rect x="0.164062" width="41.7565" height="28.633" rx="2.00627" fill="#F7F6F9"/>
<path fill-rule="evenodd" clip-rule="evenodd" d="M21.3353 20.4695C19.9138 21.696 18.0699 22.4364 16.0551 22.4364C11.5589 22.4364 7.91406 18.7493 7.91406 14.2009C7.91406 9.65252 11.5589 5.96533 16.0551 5.96533C18.0699 5.96533 19.9138 6.70574 21.3353 7.93226C22.7568 6.70574 24.6007 5.96533 26.6155 5.96533C31.1116 5.96533 34.7565 9.65252 34.7565 14.2009C34.7565 18.7493 31.1116 22.4364 26.6155 22.4364C24.6007 22.4364 22.7568 21.696 21.3353 20.4695Z" fill="#ED0006"/>
<path fill-rule="evenodd" clip-rule="evenodd" d="M21.3438 20.4695C23.0945 18.959 24.2046 16.7111 24.2046 14.2009C24.2046 11.6907 23.0945 9.44281 21.3438 7.93226C22.7653 6.70574 24.6091 5.96533 26.6239 5.96533C31.1201 5.96533 34.765 9.65252 34.765 14.2009C34.765 18.7493 31.1201 22.4364 26.6239 22.4364C24.6091 22.4364 22.7653 21.696 21.3438 20.4695Z" fill="#F9A000"/>
<path fill-rule="evenodd" clip-rule="evenodd" d="M21.3413 20.4694C23.0921 18.9588 24.2022 16.7109 24.2022 14.2008C24.2022 11.6906 23.0921 9.44269 21.3413 7.93213C19.5906 9.44269 18.4805 11.6906 18.4805 14.2008C18.4805 16.7109 19.5906 18.9588 21.3413 20.4694Z" fill="#FF5E00"/>
</g>
<defs>
<clipPath id="clip0_8542_56758">
<rect x="0.164062" width="41.7565" height="28.633" rx="8" fill="white"/>
</clipPath>
</defs>
</svg>
