<svg width="30" height="30" viewBox="0 0 30 30" fill="none" xmlns="http://www.w3.org/2000/svg">
<path fill-rule="evenodd" clip-rule="evenodd" d="M7.848 5.771C10.2161 5.4234 12.6065 5.24927 15 5.25C17.43 5.25 19.817 5.428 22.152 5.77C24.13 6.062 25.5 7.794 25.5 9.74V15.76C25.5 17.706 24.13 19.438 22.152 19.73C20.9983 19.8991 19.8389 20.0268 18.676 20.113C18.6168 20.1169 18.5593 20.1342 18.5079 20.1637C18.4564 20.1931 18.4123 20.234 18.379 20.283L15.624 24.416C15.5555 24.5187 15.4627 24.6029 15.3539 24.6612C15.245 24.7194 15.1235 24.7499 15 24.7499C14.8765 24.7499 14.755 24.7194 14.6461 24.6612C14.5373 24.6029 14.4445 24.5187 14.376 24.416L11.621 20.283C11.5877 20.234 11.5436 20.1931 11.4921 20.1637C11.4407 20.1342 11.3832 20.1169 11.324 20.113C10.1611 20.0265 9.00172 19.8984 7.848 19.729C5.87 19.439 4.5 17.705 4.5 15.759V9.741C4.5 7.795 5.87 6.061 7.848 5.771ZM9.75 11.25C9.75 11.0511 9.82902 10.8603 9.96967 10.7197C10.1103 10.579 10.3011 10.5 10.5 10.5H19.5C19.6989 10.5 19.8897 10.579 20.0303 10.7197C20.171 10.8603 20.25 11.0511 20.25 11.25C20.25 11.4489 20.171 11.6397 20.0303 11.7803C19.8897 11.921 19.6989 12 19.5 12H10.5C10.3011 12 10.1103 11.921 9.96967 11.7803C9.82902 11.6397 9.75 11.4489 9.75 11.25ZM10.5 13.5C10.3011 13.5 10.1103 13.579 9.96967 13.7197C9.82902 13.8603 9.75 14.0511 9.75 14.25C9.75 14.4489 9.82902 14.6397 9.96967 14.7803C10.1103 14.921 10.3011 15 10.5 15H15C15.1989 15 15.3897 14.921 15.5303 14.7803C15.671 14.6397 15.75 14.4489 15.75 14.25C15.75 14.0511 15.671 13.8603 15.5303 13.7197C15.3897 13.579 15.1989 13.5 15 13.5H10.5Z" fill="currentColor"/>
</svg>
