<svg width="24" height="24" viewBox="0 0 24 24" fill="none" xmlns="http://www.w3.org/2000/svg">
<rect width="24" height="24" rx="12" fill="#F5F2FF"/>
<path d="M20.113 6.89145C21.2957 8.08007 21.2957 10.0072 20.113 11.1958L17.4862 13.8357C17.2252 14.098 16.8021 14.098 16.5411 13.8357L13.2032 10.4812C12.9422 10.2189 12.9422 9.79361 13.2032 9.53132L15.83 6.89149C17.0127 5.70284 18.9302 5.70284 20.113 6.89145Z" stroke="#6C3C87" stroke-miterlimit="10" stroke-linecap="round" stroke-linejoin="round"/>
<path d="M3.88703 11.1959L6.5138 13.8357C6.77482 14.098 7.19798 14.098 7.45896 13.8357L10.7968 10.4812C11.0578 10.2189 11.0578 9.79364 10.7968 9.53136L8.17006 6.89153C6.98734 5.70291 5.06975 5.70291 3.88703 6.89153C2.70432 8.08014 2.70432 10.0073 3.88703 11.1959Z" stroke="#6C3C87" stroke-miterlimit="10" stroke-linecap="round" stroke-linejoin="round"/>
<path d="M9.33144 14.0373C9.33144 14.5052 9.70881 14.8844 10.1743 14.8844C10.6398 14.8844 11.0172 14.5052 11.0172 14.0373C11.0172 13.5695 10.6398 13.1902 10.1743 13.1902C9.70881 13.1902 9.33144 13.5695 9.33144 14.0373Z" stroke="#6C3C87" stroke-miterlimit="10" stroke-linecap="round" stroke-linejoin="round"/>
<path d="M12.7029 14.8844C12.7029 15.3522 13.0803 15.7315 13.5458 15.7315C14.0113 15.7315 14.3887 15.3522 14.3887 14.8844C14.3887 14.4166 14.0113 14.0373 13.5458 14.0373C13.0803 14.0373 12.7029 14.4166 12.7029 14.8844Z" stroke="#6C3C87" stroke-miterlimit="10" stroke-linecap="round" stroke-linejoin="round"/>
<path d="M10.1743 17.4256C10.1743 17.8935 10.5517 18.2727 11.0172 18.2727C11.4827 18.2727 11.8601 17.8935 11.8601 17.4256C11.8601 16.9578 11.4827 16.5786 11.0172 16.5786C10.5517 16.5786 10.1743 16.9578 10.1743 17.4256Z" stroke="#6C3C87" stroke-miterlimit="10" stroke-linecap="round" stroke-linejoin="round"/>
</svg>
