<svg width="24" height="24" viewBox="0 0 24 24" fill="none" xmlns="http://www.w3.org/2000/svg">
<rect width="24" height="24" rx="12" fill="#F5F2FF"/>
<path d="M19.8924 11.56L19.8769 11.5328C19.8164 11.4341 19.2577 10.5438 18.2587 9.66871C16.9387 8.51234 15.431 7.90107 13.8987 7.90107C12.4354 7.90107 10.88 8.46373 9.38989 9.53026C9.18994 9.00196 8.90906 8.55395 8.55334 8.19627C7.51831 7.15552 5.98559 7 5.16406 7C4.93713 7 4.78637 7.01252 4.75671 7.01522C4.37646 7.05094 4.0747 7.35424 4.0393 7.73659L4.03735 7.75844V7.76028C4.02673 7.89235 3.99218 8.45293 4.09899 9.14361C4.25341 10.1424 4.63891 10.9759 5.21398 11.5542C5.36975 11.7108 5.54406 11.8542 5.73388 11.982C5.5227 12.1186 5.32995 12.2742 5.15917 12.4458C4.58422 13.0241 4.22985 13.8576 4.07543 14.8564C3.96862 15.5471 4.00329 16.1076 4.01379 16.2397L4.01574 16.2634C4.05126 16.6458 4.3529 16.9491 4.7351 16.9849C4.76305 16.9875 4.91418 17 5.14062 17C5.96215 16.9999 7.46362 16.8444 8.49866 15.8036C8.85425 15.4459 9.13513 14.9979 9.33521 14.4697C10.8252 15.5361 12.3806 16.0989 13.844 16.0989C14.4105 16.0989 14.975 16.0151 15.5291 15.8514C15.5634 15.8449 15.5963 15.8348 15.6276 15.8212C16.5361 15.5365 17.4157 15.0361 18.2288 14.3341C19.2888 13.4191 19.8711 12.4777 19.877 12.4683L19.8987 12.4329L19.9351 12.3398C20.0347 12.0858 20.0191 11.8015 19.8924 11.56ZM9.73584 13.5989C9.53272 13.4483 9.26782 13.4041 9.02722 13.4804C8.78503 13.5574 8.59216 13.7481 8.51135 13.9908C8.35547 14.4583 8.12842 14.8442 7.83655 15.138C7.04016 15.9388 5.81726 16.0584 5.14062 16.0584C5.06078 16.0584 4.99304 16.0566 4.94055 16.0544C4.93224 15.8638 4.92846 15.4683 5.00073 15.001C5.08691 14.4431 5.27355 13.6623 5.82141 13.1116C5.97265 12.9594 6.14965 12.8236 6.34741 12.7079C6.36377 12.6983 6.37976 12.6882 6.39538 12.6776C6.39526 12.6776 6.3955 12.6776 6.39538 12.6776C6.62585 12.5195 6.77246 12.2422 6.77246 11.9556C6.77246 11.6762 6.63452 11.4285 6.40356 11.2927C6.40307 11.2925 6.40258 11.2923 6.4021 11.292C6.20434 11.1764 6.02734 11.0405 5.87609 10.8884C4.95654 9.96367 4.94714 8.39217 4.96472 7.9455C5.01708 7.94329 5.08459 7.94145 5.16418 7.94145C5.84082 7.94157 7.09485 8.06125 7.89123 8.86204C8.18323 9.15564 8.41028 9.54167 8.56616 10.0092C8.64697 10.2519 8.83984 10.4426 9.08203 10.5196C9.32263 10.5959 9.58753 10.5516 9.79053 10.4011C10.7493 9.69007 12.2402 8.84264 13.8988 8.84264C14.262 8.84264 14.6206 8.88192 14.9738 8.95974V15.0285C14.6022 15.114 14.2254 15.1574 13.844 15.1574C12.1853 15.1574 10.6945 14.3098 9.73584 13.5989ZM19.0596 12.0055C18.9558 12.1637 18.4519 12.9006 17.6188 13.6197C17.0673 14.0959 16.4965 14.4624 15.9102 14.7181V9.26218C16.5075 9.51823 17.0867 9.89064 17.6436 10.3785C18.4717 11.104 18.9645 11.8456 19.0623 11.9989L19.0596 12.0055Z" fill="#6C3C87"/>
</svg>
