<svg width="25" height="24" viewBox="0 0 25 24" fill="none" xmlns="http://www.w3.org/2000/svg">
<path d="M18.4471 12V7.6C18.4471 6.38525 17.4049 5.4 16.1225 5.4C14.8363 5.4 13.798 6.38525 13.798 7.6V12M18.4471 9.06665V3.2C18.4471 2.61663 18.1991 2.0571 17.7652 1.64462C17.3274 1.2321 16.7385 1 16.1225 1C13.5423 1 9.40086 1 6.82451 1C6.20466 1 5.61577 1.2321 5.17797 1.64462C4.74407 2.0571 4.5 2.61663 4.5 3.2C4.5 7.41519 4.5 16.5848 4.5 20.8C4.5 21.3837 4.74407 21.9433 5.17797 22.3558C5.61577 22.7683 6.20461 23 6.82451 23C9.40086 23 13.5423 23 16.1225 23C16.7385 23 17.3274 22.7683 17.7652 22.3558C18.1991 21.9433 18.4471 21.3838 18.4471 20.8C18.4471 20.3791 18.4471 20.0667 18.4471 20.0667M10.3113 3.93335H12.6358M21.5464 9.06665C21.5464 9.06665 22.2282 16.1972 22.4955 18.9762C22.5227 19.2559 22.4258 19.5335 22.2243 19.7411C22.0229 19.9486 21.74 20.0667 21.4456 20.0667H10.7994C10.5011 20.0667 10.2183 19.9486 10.0169 19.7411C9.81541 19.5335 9.71852 19.256 9.74568 18.9762C10.013 16.1972 10.6987 9.06665 10.6987 9.06665H21.5464Z" stroke="currentColor" stroke-miterlimit="10" stroke-linecap="round" stroke-linejoin="round"/>
</svg>
