<svg width="42" height="29" viewBox="0 0 42 29" fill="none" xmlns="http://www.w3.org/2000/svg">
<g clip-path="url(#clip0_7510_46605)">
<rect x="0.242188" width="41.7565" height="28.633" rx="2.00627" fill="#F7F6F9"/>
<path fill-rule="evenodd" clip-rule="evenodd" d="M11.1244 10.8132H9.079C8.93903 10.8132 8.81999 10.9149 8.79816 11.053L7.9709 16.2981C7.95445 16.4016 8.0346 16.4949 8.13959 16.4949H9.11608C9.25605 16.4949 9.3751 16.3932 9.39692 16.2548L9.62005 14.8401C9.64157 14.7016 9.76091 14.6 9.90058 14.6H10.5481C11.8955 14.6 12.673 13.9479 12.8762 12.6559C12.9677 12.0907 12.8801 11.6465 12.6153 11.3354C12.3247 10.9939 11.809 10.8132 11.1244 10.8132ZM11.3604 12.7289C11.2486 13.4628 10.6878 13.4628 10.1455 13.4628H9.83688L10.0534 12.092C10.0663 12.0093 10.138 11.9482 10.2218 11.9482H10.3633C10.7326 11.9482 11.0811 11.9482 11.2612 12.1588C11.3684 12.2844 11.4014 12.471 11.3604 12.7289ZM17.2387 12.7053H16.2591C16.1757 12.7053 16.1036 12.7664 16.0907 12.8493L16.0474 13.1232L15.9789 13.0239C15.7668 12.7161 15.294 12.6133 14.8221 12.6133C13.7396 12.6133 12.8152 13.4331 12.6351 14.5831C12.5416 15.1566 12.6746 15.7051 13 16.0877C13.2985 16.4394 13.7256 16.586 14.2337 16.586C15.1058 16.586 15.5895 16.0251 15.5895 16.0251L15.5458 16.2974C15.5293 16.4015 15.6095 16.4948 15.7138 16.4948H16.5962C16.7365 16.4948 16.8549 16.393 16.877 16.2546L17.4064 12.9021C17.4231 12.799 17.3433 12.7053 17.2387 12.7053ZM15.8733 14.6117C15.7787 15.1713 15.3346 15.5469 14.7682 15.5469C14.4838 15.5469 14.2564 15.4557 14.1105 15.2829C13.9658 15.1112 13.9107 14.8668 13.9568 14.5947C14.0451 14.0398 14.4967 13.652 15.0545 13.652C15.3325 13.652 15.5587 13.7443 15.7076 13.9187C15.8568 14.0949 15.916 14.3407 15.8733 14.6117ZM21.471 12.7052H22.4553C22.5932 12.7052 22.6736 12.8598 22.5953 12.9729L19.3215 17.6983C19.2685 17.7749 19.1812 17.8204 19.0879 17.8204H18.1048C17.9664 17.8204 17.8856 17.6646 17.9657 17.5512L18.9851 16.1123L17.9009 12.9306C17.8634 12.8201 17.9451 12.7052 18.0627 12.7052H19.0299C19.1556 12.7052 19.2664 12.7877 19.3027 12.908L19.8781 14.8296L21.2357 12.8299C21.2888 12.7518 21.3771 12.7052 21.471 12.7052Z" fill="#253B80"/>
<path fill-rule="evenodd" clip-rule="evenodd" d="M32.1393 16.2977L32.9787 10.9568C32.9916 10.8739 33.0634 10.8128 33.1469 10.8126H34.0919C34.1963 10.8126 34.2764 10.9061 34.2599 11.0097L33.4321 16.2544C33.4105 16.3928 33.2915 16.4946 33.1513 16.4946H32.3073C32.2029 16.4946 32.1228 16.4013 32.1393 16.2977ZM25.7104 10.8128H23.6646C23.525 10.8128 23.406 10.9146 23.3841 11.0527L22.5568 16.2977C22.5404 16.4013 22.6205 16.4946 22.725 16.4946H23.7747C23.8723 16.4946 23.9557 16.4234 23.9709 16.3265L24.2057 14.8398C24.2273 14.7012 24.3466 14.5996 24.4862 14.5996H25.1334C26.4811 14.5996 27.2585 13.9476 27.4618 12.6556C27.5536 12.0903 27.4654 11.6462 27.2008 11.335C26.9103 10.9936 26.395 10.8128 25.7104 10.8128ZM25.9464 12.7285C25.8349 13.4625 25.274 13.4625 24.7315 13.4625H24.4231L24.64 12.0917C24.6529 12.0089 24.724 11.9479 24.808 11.9479H24.9495C25.3186 11.9479 25.6674 11.9479 25.8473 12.1584C25.9547 12.2841 25.9874 12.4707 25.9464 12.7285ZM31.8241 12.705H30.8453C30.7611 12.705 30.6897 12.766 30.6771 12.8489L30.6338 13.1228L30.565 13.0236C30.353 12.7158 29.8805 12.613 29.4085 12.613C28.326 12.613 27.4019 13.4327 27.2218 14.5828C27.1285 15.1563 27.261 15.7048 27.5864 16.0874C27.8855 16.4391 28.312 16.5856 28.8201 16.5856C29.6922 16.5856 30.1758 16.0248 30.1758 16.0248L30.1322 16.2971C30.1158 16.4011 30.1959 16.4944 30.3009 16.4944H31.1829C31.3225 16.4944 31.4416 16.3927 31.4634 16.2543L31.9931 12.9018C32.0093 12.7987 31.9292 12.705 31.8241 12.705ZM30.4589 14.6114C30.3649 15.171 29.9202 15.5466 29.3537 15.5466C29.0698 15.5466 28.842 15.4554 28.696 15.2825C28.5512 15.1109 28.4968 14.8665 28.5424 14.5944C28.6311 14.0395 29.0821 13.6517 29.6399 13.6517C29.9181 13.6517 30.1441 13.744 30.2932 13.9184C30.443 14.0946 30.5022 14.3404 30.4589 14.6114Z" fill="#179BD7"/>
</g>
<defs>
<clipPath id="clip0_7510_46605">
<rect x="0.242188" width="41.7565" height="28.633" rx="8" fill="white"/>
</clipPath>
</defs>
</svg>
