<svg width="43" height="48" viewBox="0 0 43 48" fill="none" xmlns="http://www.w3.org/2000/svg">
<path d="M21.4991 33.5561C28.4784 33.5561 34.1363 27.8961 34.1363 20.9142C34.1363 13.9323 28.4784 8.2723 21.4991 8.2723C14.5198 8.2723 8.86195 13.9323 8.86195 20.9142C8.86195 27.8961 14.5198 33.5561 21.4991 33.5561Z" fill="#6C3C87"/>
<path d="M36.3492 6.15297C32.3829 2.18519 27.1093 0 21.5 0C15.8907 0 10.6171 2.18519 6.65077 6.15297C2.68437 10.1209 0.5 15.3964 0.5 21.0078C0.5 30.9074 7.41829 39.4541 17.0293 41.5368L21.5 47.5L25.9708 41.5368C35.5817 39.454 42.5 30.9074 42.5 21.0078C42.5 15.3964 40.3156 10.1209 36.3492 6.15297ZM21.5 5.48434C30.0053 5.48434 36.9248 12.4065 36.9248 20.9149C36.9248 29.4232 30.0053 36.3454 21.5 36.3454C12.9947 36.3454 6.07522 29.4232 6.07522 20.9149C6.07522 12.4065 12.9947 5.48434 21.5 5.48434Z" fill="#6C3C87"/>
<path d="M24.0609 17.0913C24.0609 18.3342 23.0382 19.3388 21.7776 19.3388C20.5169 19.3388 19.4922 18.3342 19.4922 17.0913C19.4922 15.8483 20.5148 14.8438 21.7776 14.8438C23.0403 14.8438 24.0609 15.8483 24.0609 17.0913Z" fill="#BEABCF"/>
<path d="M25.1255 22.395C26.6314 21.3293 27.6295 19.5759 27.7245 17.6116C27.7245 17.2439 27.3956 17.0941 27.1657 17.0859H26.0164C25.7763 17.0859 25.4351 17.2235 25.4116 17.6575C25.3881 17.8959 25.2992 18.28 25.2726 18.3747L25.2644 18.4012C24.8354 19.8897 23.5389 20.9819 22.0382 21.1113L22.0228 21.1164C21.8134 21.1317 21.6142 21.1317 21.4017 21.1113C20.6293 21.043 19.9091 20.7292 19.3196 20.2005C18.7281 19.6758 18.3062 18.9544 18.1294 18.171L18.1141 18.1119C18.0957 18.008 18.0538 17.7859 18.0416 17.6585C18.0293 17.2296 17.6779 17.087 17.4368 17.087H16.2782C16.0555 17.0951 15.7255 17.2449 15.7276 17.6259C15.8205 19.582 16.8289 21.3313 18.3327 22.398C16.8289 23.4658 15.8216 25.2171 15.7266 27.1844C15.7266 27.5522 16.0555 27.701 16.2874 27.7091H17.4378C17.6799 27.7091 18.0385 27.5573 18.0426 27.1386C18.0497 27.0439 18.062 26.9501 18.0763 26.8574H18.0794L18.1304 26.6231C18.4921 25.0113 19.8069 23.8274 21.3904 23.6838H21.4099C21.6101 23.6665 21.8154 23.6665 22.0239 23.6838H22.0392C23.5399 23.8152 24.8364 24.9064 25.2655 26.3969L25.3206 26.5803V26.5783C25.3646 26.7637 25.3962 26.9532 25.4126 27.1396C25.4156 27.3689 25.5239 27.5451 25.7211 27.6409C25.8529 27.7051 25.9806 27.7102 26.0174 27.7102H27.1759C27.3966 27.701 27.7266 27.5533 27.7266 27.1712C27.6326 25.2141 26.6344 23.4658 25.1275 22.397" fill="white"/>
</svg>
