<svg width="24" height="24" viewBox="0 0 24 24" fill="none" xmlns="http://www.w3.org/2000/svg">
<rect width="24" height="24" rx="12" fill="#F5F2FF"/>
<path d="M6.0382 10.9625H6.00995C5.75107 10.9625 5.5412 10.7524 5.5412 10.4935C5.5412 9.72778 5.92654 9.02475 6.57186 8.613C7.21736 8.20084 8.01742 8.14734 8.71173 8.46994L9.20457 8.69875C9.13473 8.10281 9.34082 7.50394 9.76776 7.07731L11.8202 5.02469C12.4811 4.36391 13.3597 4 14.2942 4H16.0516C16.1281 4 16.2022 4.01875 16.2682 4.05309C17.6425 4.74366 18.4374 6.23187 18.2466 7.75881L17.7994 11.3364C17.6287 12.7017 17.8638 14.074 18.4792 15.305C19.1736 16.6938 19.1736 18.3521 18.4792 19.7409C18.3998 19.8997 18.2375 20 18.0599 20H8.52032C8.26145 20 8.05157 19.7899 8.05157 19.531C8.05157 18.685 7.72211 17.8897 7.1237 17.2914L6.68251 16.8502C5.12389 15.3463 4.85089 12.7594 6.0382 10.9625ZM12.5704 8.95416H12.537C12.2782 8.95416 12.0683 8.74428 12.0683 8.48541V6.22603C12.0683 6.18322 12.0698 6.14075 12.0722 6.09853L10.4306 7.74025C10.1927 7.978 10.0857 8.31788 10.1444 8.64934C10.203 8.97969 10.419 9.26128 10.7224 9.40325L12.5704 10.2613V8.95416ZM8.31686 9.32022C7.91439 9.13322 7.45057 9.16419 7.07626 9.40325C6.83973 9.55416 6.66345 9.77253 6.56576 10.025H8.01826C8.11795 10.025 8.21507 10.0568 8.29548 10.1157L12.1832 12.9668C12.7397 13.3748 13.4676 13.4345 14.0829 13.1228C14.6984 12.8108 15.0808 12.1885 15.0808 11.4987V8.95416H13.5079V10.9958C13.5079 11.1559 13.4262 11.3048 13.2913 11.3909C13.1564 11.477 12.9869 11.4883 12.8417 11.421C12.8417 11.421 8.31686 9.32022 8.31686 9.32022ZM15.5829 6.22603C15.5179 4.51853 13.0701 4.51981 13.0058 6.22603V8.01666H15.5829V6.22603ZM7.34536 16.1872L7.78676 16.6286C8.45051 17.2922 8.85901 18.1432 8.96282 19.0625H17.7588C18.2007 17.9931 18.1613 16.7653 17.6406 15.7242C16.9422 14.3271 16.6754 12.7697 16.8691 11.2201L17.3164 7.64253C17.4394 6.65797 17.0103 5.6955 16.2271 5.12328C16.4135 5.44856 16.5204 5.825 16.5204 6.22606V8.48544C16.5204 8.74431 16.3105 8.95419 16.0516 8.95419H16.0183V11.4987C16.0183 12.5437 15.4391 13.4864 14.5068 13.9591C13.5766 14.4303 12.4736 14.3422 11.6289 13.7228L7.86485 10.9625H7.21479C5.86798 12.3913 5.92626 14.8247 7.34536 16.1872Z" fill="#6C3C87"/>
</svg>
