<svg width="16" height="18" viewBox="0 0 16 18" fill="none" xmlns="http://www.w3.org/2000/svg">
<path d="M11.3333 11.4V14.6C11.3333 16.2 10.5 17 8.83333 17H7.16667C5.5 17 4.66667 16.2 4.66667 14.6V11.4M11.3333 11.4H4.66667M11.3333 11.4V13.8H13C14.6667 13.8 15.5 13 15.5 11.4V7.4C15.5 5.8 14.6667 5 13 5H3C1.33333 5 0.5 5.8 0.5 7.4V11.4C0.5 13 1.33333 13.8 3 13.8H4.66667V11.4M4.04167 5H11.9583V3.4C11.9583 1.8 11.3333 1 9.45833 1H6.54167C4.66667 1 4.04167 1.8 4.04167 3.4V5Z" stroke="#111111" stroke-miterlimit="10" stroke-linecap="round" stroke-linejoin="round"/>
</svg>
