<svg width="24" height="24" viewBox="0 0 24 24" fill="none" xmlns="http://www.w3.org/2000/svg">
<rect width="24" height="24" rx="12" fill="#F5F2FF"/>
<path d="M11.765 12.3283C11.6972 12.7005 11.5452 13.0948 11.2695 13.3477C10.6929 13.8769 9.8044 13.8148 9.02036 13.8385C7.36795 13.8882 5.77172 15.1138 5.26072 16.5857C4.97615 17.4053 4.93779 18.2081 5.08148 19H6.62446C6.59609 18.8693 6.57241 18.7373 6.55374 18.6045C6.36351 17.2488 7.13569 15.4952 9.02796 15.583C9.89237 15.6231 10.3005 16.2582 10.6292 16.534C11.1362 16.9594 11.7123 17.4099 12.84 17.4099C14.4567 17.4099 16.2361 16.5894 17.3301 14.798C18.0018 13.6983 18.545 11.849 18.1856 10.2807C17.8914 8.99581 17.1806 8.2061 16.5082 7.88047C15.6482 7.46402 14.439 7.30193 13.7525 6.75528C13.1338 6.26254 13.0665 5.50617 13.1139 5H11.4957C11.3951 5.61188 11.4826 6.25462 11.7507 6.81468C12.0861 7.51539 12.7007 8.07922 13.4297 8.35473C13.079 8.5283 12.7419 8.81438 12.4893 9.11201M9.16937 9.011L10.3045 9.70517M13.1739 9.50793L12.0782 8.87282C11.9261 8.78468 11.7388 8.78468 11.5868 8.87282L10.491 9.50793C10.339 9.59605 10.2453 9.75893 10.2453 9.93519V11.2054C10.2453 11.3817 10.339 11.5445 10.491 11.6327L11.5868 12.2678C11.7388 12.3559 11.9261 12.3559 12.0782 12.2678L13.1739 11.6327C13.3259 11.5445 13.4196 11.3817 13.4196 11.2054V9.93519C13.4196 9.75891 13.3259 9.59605 13.1739 9.50793ZM15.2726 12.9638L14.1769 12.3287C14.0248 12.2406 13.8375 12.2406 13.6855 12.3287L12.5897 12.9638C12.4377 13.052 12.344 13.2148 12.344 13.3911V14.6613C12.344 14.8376 12.4377 15.0004 12.5897 15.0886L13.6855 15.7237C13.8375 15.8118 14.0248 15.8118 14.1769 15.7237L15.2726 15.0886C15.4247 15.0004 15.5183 14.8376 15.5183 14.6613V13.3911C15.5183 13.2148 15.4247 13.0519 15.2726 12.9638ZM9.3197 8.52747C9.3197 8.99418 8.94283 9.37252 8.47794 9.37252C8.01305 9.37252 7.63619 8.99418 7.63619 8.52747C7.63619 8.06076 8.01305 7.68241 8.47794 7.68241C8.94283 7.68241 9.3197 8.06076 9.3197 8.52747Z" stroke="#6C3C87" stroke-width="0.8" stroke-miterlimit="10" stroke-linecap="round" stroke-linejoin="round"/>
</svg>
