<svg width="24" height="24" viewBox="0 0 24 24" fill="none" xmlns="http://www.w3.org/2000/svg">
<rect width="24" height="24" rx="12" fill="#F5F2FF"/>
<circle cx="12" cy="12" r="7.5" stroke="#6C3C87"/>
<path d="M9.11349 15.9622C9.95146 16.6411 10.9377 17 11.9654 17C12.9931 17 13.9793 16.6411 14.8173 15.9622C15.0511 15.7728 15.1053 15.4041 14.9385 15.1388C14.7716 14.8733 14.4469 14.8118 14.213 15.0012C13.5524 15.5364 12.7752 15.8193 11.9653 15.8193C11.1554 15.8193 10.3782 15.5364 9.71758 15.0012C9.48383 14.8119 9.15904 14.8734 8.99214 15.1388C8.82545 15.4041 8.87967 15.7727 9.11349 15.9622Z" fill="#6C3C87"/>
<path d="M10.4471 10.0563L10.4702 10.0332C10.6856 9.81768 10.7063 9.44456 10.5164 9.19999C10.3265 8.95542 9.99781 8.93189 9.78244 9.14749L9.759 9.17087C9.37576 9.55492 8.79309 9.56122 8.40368 9.18567L8.35681 9.14048C8.1379 8.92945 7.80978 8.95959 7.62374 9.2081C7.43777 9.45653 7.46447 9.82917 7.6833 10.0403L7.73025 10.0855C8.11536 10.4569 8.59457 10.6419 9.07357 10.6419C9.56589 10.642 10.0579 10.4464 10.4471 10.0563Z" fill="#6C3C87"/>
<path d="M16.3167 10.0403C16.5355 9.82907 16.5622 9.45651 16.3763 9.20808C16.1903 8.95958 15.862 8.92943 15.6432 9.14047L15.5964 9.18565C15.2068 9.5612 14.6242 9.55483 14.2407 9.17069L14.2176 9.14755C14.0021 8.93195 13.6735 8.95556 13.4836 9.20006C13.2937 9.44463 13.3144 9.81774 13.5298 10.0333L13.5527 10.0562C13.9421 10.4464 14.434 10.642 14.9265 10.642C15.4054 10.642 15.8847 10.4567 16.2698 10.0855L16.3167 10.0403Z" fill="#6C3C87"/>
</svg>
