<svg width="16" height="17" viewBox="0 0 16 17" fill="none" xmlns="http://www.w3.org/2000/svg">
<path d="M3.81112 7.77152C3.6497 7.48106 3.39639 7.25243 3.09097 7.12151C2.78555 6.99059 2.4453 6.9648 2.12363 7.04818C1.80196 7.13155 1.51708 7.31939 1.31371 7.58219C1.11034 7.84499 1 8.16789 1 8.50019C1 8.83249 1.11034 9.15538 1.31371 9.41819C1.51708 9.68099 1.80196 9.86882 2.12363 9.9522C2.4453 10.0356 2.78555 10.0098 3.09097 9.87887C3.39639 9.74795 3.6497 9.51931 3.81112 9.22886M3.81112 7.77152C3.93112 7.98752 3.99979 8.23552 3.99979 8.50019C3.99979 8.76486 3.93112 9.01352 3.81112 9.22886M3.81112 7.77152L10.1885 4.22886M3.81112 9.22886L10.1885 12.7715M10.1885 4.22886C10.282 4.40495 10.4096 4.56063 10.564 4.68681C10.7184 4.81298 10.8964 4.90712 11.0875 4.96371C11.2787 5.0203 11.4793 5.0382 11.6774 5.01638C11.8756 4.99456 12.0675 4.93346 12.2417 4.83663C12.416 4.7398 12.5693 4.6092 12.6925 4.45246C12.8157 4.29573 12.9065 4.11599 12.9594 3.92378C13.0124 3.73156 13.0265 3.53072 13.0009 3.33299C12.9753 3.13526 12.9106 2.94461 12.8105 2.77219C12.6132 2.43242 12.2904 2.18361 11.9117 2.07926C11.5329 1.97492 11.1283 2.02335 10.7848 2.21416C10.4414 2.40497 10.1865 2.72291 10.075 3.09965C9.96345 3.47639 10.0042 3.88184 10.1885 4.22886ZM10.1885 12.7715C10.0928 12.9438 10.0319 13.1332 10.0095 13.3289C9.98696 13.5247 10.0033 13.723 10.0574 13.9124C10.1115 14.1019 10.2025 14.2788 10.325 14.4332C10.4475 14.5875 10.5992 14.7162 10.7715 14.8119C10.9437 14.9075 11.1331 14.9684 11.3289 14.9909C11.5246 15.0133 11.7229 14.9971 11.9124 14.9429C12.1018 14.8888 12.2788 14.7979 12.4331 14.6753C12.5874 14.5528 12.7161 14.4011 12.8118 14.2289C13.005 13.881 13.0522 13.4706 12.9429 13.0879C12.8335 12.7053 12.5767 12.3818 12.2288 12.1885C11.8809 11.9953 11.4705 11.9481 11.0879 12.0575C10.7052 12.1668 10.3817 12.4236 10.1885 12.7715Z" stroke="#111111" stroke-linecap="round" stroke-linejoin="round"/>
</svg>
