<svg width="24" height="24" viewBox="0 0 24 24" fill="none" xmlns="http://www.w3.org/2000/svg">
<rect width="24" height="24" rx="12" fill="#F5F2FF"/>
<path d="M7.41328 7.69804C7.32073 7.42274 7.27072 7.1289 7.27072 6.82373C7.27072 5.26423 8.57713 4 10.1887 4C11.8003 4 13.1067 5.26423 13.1067 6.82376C13.1067 7.11233 13.062 7.39081 12.9788 7.65302M10.1887 7.03731C13.0543 7.03731 15.3774 9.28535 15.3774 12.0585V14.9789C15.3774 17.752 13.0543 20 10.1887 20C7.32306 20 5 17.752 5 14.9789V12.0585C5 9.28535 7.32306 7.03731 10.1887 7.03731ZM10.1887 7.03731V8.15514M10.1887 7.03731C12.7029 7.03731 14.7993 8.7679 15.2757 11.0652H13.1959C11.5351 11.0652 10.1887 9.76234 10.1887 8.15514M10.1887 7.03731C7.67447 7.03731 5.57808 8.7679 5.10171 11.0652H7.18149C8.84233 11.0652 10.1887 9.76234 10.1887 8.15514M15.4459 13.6923C16.7035 13.6923 17.723 14.6788 17.723 15.8958C17.723 14.6788 18.7424 13.6923 20 13.6923V13.6867C18.7424 13.6867 17.723 12.7002 17.723 11.4832C17.723 12.7002 16.7035 13.6867 15.4459 13.6867V13.6923Z" stroke="#6C3C87" stroke-miterlimit="10" stroke-linecap="round" stroke-linejoin="round"/>
</svg>
