<svg width="24" height="24" viewBox="0 0 24 24" fill="none" xmlns="http://www.w3.org/2000/svg">
<path d="M15.5 17C15.5 17.2761 15.7239 17.5 16 17.5C16.2761 17.5 16.5 17.2761 16.5 17L15.5 17ZM16.3536 5.64645C16.1583 5.45118 15.8417 5.45118 15.6464 5.64645L12.4645 8.82843C12.2692 9.02369 12.2692 9.34027 12.4645 9.53553C12.6597 9.7308 12.9763 9.7308 13.1716 9.53553L16 6.70711L18.8284 9.53553C19.0237 9.7308 19.3403 9.7308 19.5355 9.53553C19.7308 9.34027 19.7308 9.02369 19.5355 8.82843L16.3536 5.64645ZM16.5 17L16.5 6L15.5 6L15.5 17L16.5 17Z" fill="#111111"/>
<path d="M8.5 6C8.5 5.72386 8.27614 5.5 8 5.5C7.72386 5.5 7.5 5.72386 7.5 6L8.5 6ZM7.64645 17.3536C7.84171 17.5488 8.15829 17.5488 8.35355 17.3536L11.5355 14.1716C11.7308 13.9763 11.7308 13.6597 11.5355 13.4645C11.3403 13.2692 11.0237 13.2692 10.8284 13.4645L8 16.2929L5.17157 13.4645C4.97631 13.2692 4.65973 13.2692 4.46447 13.4645C4.2692 13.6597 4.2692 13.9763 4.46447 14.1716L7.64645 17.3536ZM7.5 6L7.5 17L8.5 17L8.5 6L7.5 6Z" fill="#111111"/>
</svg>
