<svg width="31" height="30" viewBox="0 0 31 30" fill="none" xmlns="http://www.w3.org/2000/svg">
<g clip-path="url(#clip0_7510_46554)">
<path d="M24.4972 9.6882C21.9696 9.6882 19.9223 7.58865 19.9223 4.99652H16.4905V18.6146C16.4905 20.1971 15.2386 21.4809 13.6955 21.4809C12.1524 21.4809 10.9005 20.1971 10.9005 18.6146C10.9005 17.0322 12.1524 15.7484 13.6955 15.7484C13.9846 15.7484 14.3127 15.793 14.5757 15.8777V12.2937C14.2888 12.2513 13.9954 12.2313 13.6955 12.2313C10.2572 12.2313 7.46875 15.0909 7.46875 18.6169C7.46875 22.1429 10.2572 25.0025 13.6955 25.0025C17.1338 25.0025 19.9223 22.1429 19.9223 18.6169V11.4089C21.1698 12.4519 22.7629 13.0782 24.4972 13.0782V9.69043V9.6882Z" fill="currentColor"/>
<path d="M23.5257 9.58122C22.4195 9.33605 21.4632 8.68077 20.8134 7.7781C19.9331 7.11168 19.2942 6.13099 19.0551 4.99652H16.4905V18.6146C16.4905 20.1971 15.2386 21.4809 13.6955 21.4809C12.674 21.4809 11.7808 20.9193 11.2939 20.0812C10.4767 19.582 9.92903 18.6659 9.92903 17.6184C9.92903 16.0359 11.1809 14.7521 12.724 14.7521C13.0131 14.7521 13.3412 14.7967 13.6042 14.8814V12.2313C10.2072 12.2826 7.46875 15.1198 7.46875 18.6169C7.46875 20.1258 7.9795 21.5121 8.83364 22.6065C9.8986 23.4824 11.2526 24.0062 12.724 24.0062C16.1623 24.0062 18.9508 21.1466 18.9508 17.6206V10.4103C20.1983 11.4534 21.7914 12.0797 23.5257 12.0797V9.58122Z" fill="currentColor"/>
</g>
<defs>
<clipPath id="clip0_7510_46554">
<rect width="18" height="21" fill="white" transform="translate(6.5 4)"/>
</clipPath>
</defs>
</svg>
