<svg width="24" height="24" viewBox="0 0 24 24" fill="none" xmlns="http://www.w3.org/2000/svg">
<rect width="24" height="24" rx="12" fill="#F5F2FF"/>
<path d="M16.8751 4H6.46883C6.18605 4 5.96752 4.24891 6.00398 4.52919L7.46883 15.796V19.5312C7.46883 19.7901 7.6787 20 7.93758 20H15.4376C15.6965 20 15.9063 19.7901 15.9063 19.5312V15.7953L17.3401 4.52794C17.3757 4.24797 17.1573 4 16.8751 4ZM16.3429 4.9375L16.2196 5.90625H7.12842L7.00245 4.9375H16.3429ZM15.0247 15.2969H8.34933L7.2503 6.84375H16.1003L15.0247 15.2969ZM12.6095 19.0625H10.7345V18.4598L11.0849 18.1094H12.259L12.6095 18.4598V19.0625ZM14.9688 19.0625H13.547V18.2656C13.547 18.1413 13.4976 18.0221 13.4096 17.9342L12.7846 17.3092C12.6967 17.2213 12.5775 17.1719 12.4532 17.1719H10.8907C10.7664 17.1719 10.6471 17.2213 10.5593 17.3092L9.93427 17.9342C9.84633 18.0221 9.79695 18.1413 9.79695 18.2656V19.0625H8.40633V16.2344H14.9688V19.0625Z" fill="#6C3C87"/>
</svg>
