<svg width="42" height="29" viewBox="0 0 42 29" fill="none" xmlns="http://www.w3.org/2000/svg">
<g clip-path="url(#clip0_7510_46576)">
<rect x="0.078125" width="41.7565" height="28.633" rx="2.00627" fill="#F7F6F9"/>
<path d="M17.9469 19.1875H15.5859L17.0627 10.0564H19.4236L17.9469 19.1875Z" fill="#00579F"/>
<path d="M26.5043 10.2797C26.0386 10.095 25.2999 9.89096 24.3866 9.89096C22.055 9.89096 20.4132 11.1343 20.4031 12.9118C20.3837 14.2233 21.5786 14.9518 22.4723 15.389C23.3858 15.8359 23.6963 16.1275 23.6963 16.5258C23.687 17.1376 22.9582 17.4195 22.2784 17.4195C21.3358 17.4195 20.8307 17.2742 20.0632 16.9338L19.7523 16.7879L19.4219 18.8377C19.9756 19.0899 20.9958 19.3138 22.055 19.3236C24.5324 19.3236 26.1452 18.0996 26.1643 16.2053C26.1737 15.1658 25.5428 14.3693 24.1825 13.7185C23.3567 13.3007 22.851 13.019 22.851 12.5915C22.8607 12.2029 23.2787 11.8049 24.2109 11.8049C24.9784 11.7854 25.5424 11.9699 25.9696 12.1545L26.1832 12.2515L26.5043 10.2797Z" fill="#00579F"/>
<path d="M29.6372 15.9527C29.8317 15.4281 30.5799 13.3979 30.5799 13.3979C30.5701 13.4174 30.7739 12.8636 30.8905 12.5237L31.0555 13.3104C31.0555 13.3104 31.5026 15.4961 31.5997 15.9527C31.2307 15.9527 30.1036 15.9527 29.6372 15.9527ZM32.5516 10.0564H30.7254C30.1622 10.0564 29.7343 10.2214 29.4913 10.814L25.9844 19.1873H28.4617C28.4617 19.1873 28.8696 18.0604 28.9572 17.8176C29.229 17.8176 31.6389 17.8176 31.9886 17.8176C32.0563 18.1382 32.2703 19.1873 32.2703 19.1873H34.4563L32.5516 10.0564Z" fill="#00579F"/>
<path d="M13.6104 10.0564L11.2982 16.2829L11.0455 15.0201C10.618 13.563 9.27736 11.9799 7.78125 11.1927L9.89915 19.1778H12.3958L16.1069 10.0564H13.6104Z" fill="#00579F"/>
<path d="M9.14999 10.0564H5.35136L5.3125 10.2409C8.27567 10.9986 10.2381 12.8251 11.0444 15.0205L10.2186 10.8239C10.0827 10.2408 9.66488 10.0756 9.14999 10.0564Z" fill="#FAA61A"/>
</g>
<defs>
<clipPath id="clip0_7510_46576">
<rect x="0.078125" width="41.7565" height="28.633" rx="8" fill="white"/>
</clipPath>
</defs>
</svg>
