<svg width="24" height="24" viewBox="0 0 24 24" fill="none" xmlns="http://www.w3.org/2000/svg">
<rect width="24" height="24" rx="12" fill="#F5F2FF"/>
<path d="M12.9029 5.05265C12.2241 4.37387 11.3216 4 10.3616 4C9.40162 4 8.4991 4.37387 7.82029 5.05265L6.43663 6.43628L5.05265 7.82022C4.37387 8.49903 4 9.40155 4 10.3615C4 11.3215 4.37384 12.2241 5.05265 12.9029C5.7533 13.6035 6.67366 13.9538 7.59397 13.9538C8.51429 13.9538 9.43465 13.6035 10.1353 12.9029L12.9029 10.1353C14.3042 8.73396 14.3042 6.45392 12.9029 5.05265ZM9.48083 12.2484C8.44043 13.2887 6.74761 13.2887 5.70721 12.2483C5.20322 11.7444 4.92568 11.0743 4.92568 10.3615C4.92568 9.64877 5.20326 8.97873 5.70721 8.47475L6.76375 7.41821L10.5374 11.1918L9.48083 12.2484ZM12.2484 9.48077L11.1919 10.5373L7.41827 6.76369L8.47481 5.70715C8.97879 5.20316 9.64889 4.92562 10.3616 4.92562C11.0743 4.92562 11.7444 5.20319 12.2484 5.70715C13.2888 6.74755 13.2888 8.44037 12.2484 9.48077Z" fill="#6C3C87"/>
<path d="M18.9435 11.0971C17.5422 9.69586 15.2621 9.69586 13.8608 11.0971L11.0932 13.8647C9.69197 15.266 9.69197 17.546 11.0932 18.9473C11.772 19.6261 12.6746 20 13.6346 20C14.5945 20 15.4971 19.6261 16.1759 18.9473L17.5595 17.5637L18.9435 16.1798C19.6223 15.5009 19.9961 14.5984 19.9961 13.6384C19.9961 12.6785 19.6223 11.7759 18.9435 11.0971ZM15.5213 18.2928C15.0174 18.7968 14.3473 19.0744 13.6346 19.0744C12.9218 19.0744 12.2517 18.7968 11.7478 18.2928C10.7074 17.2524 10.7074 15.5596 11.7478 14.5192L12.8043 13.4627L16.5779 17.2363L15.5213 18.2928ZM18.2889 15.5252L17.2324 16.5818L13.4588 12.8082L14.5153 11.7516C15.0355 11.2314 15.7188 10.9713 16.4021 10.9713C17.0854 10.9713 17.7688 11.2314 18.2889 11.7516C18.7929 12.2556 19.0705 12.9257 19.0705 13.6384C19.0705 14.3512 18.7929 15.0212 18.2889 15.5252Z" fill="#6C3C87"/>
</svg>
