<svg width="24" height="24" viewBox="0 0 24 24" fill="none" xmlns="http://www.w3.org/2000/svg">
<path fill-rule="evenodd" clip-rule="evenodd" d="M4 12C4 7.58154 7.58154 4 12 4C16.4185 4 20 7.58154 20 12C20 16.4185 16.4185 20 12 20C7.58154 20 4 16.4185 4 12ZM12 8.92308C12.1632 8.92308 12.3197 8.98791 12.4351 9.10332C12.5505 9.21873 12.6154 9.37525 12.6154 9.53846V12.6154C12.6154 12.7786 12.5505 12.9351 12.4351 13.0505C12.3197 13.1659 12.1632 13.2308 12 13.2308C11.8368 13.2308 11.6803 13.1659 11.5649 13.0505C11.4495 12.9351 11.3846 12.7786 11.3846 12.6154V9.53846C11.3846 9.37525 11.4495 9.21873 11.5649 9.10332C11.6803 8.98791 11.8368 8.92308 12 8.92308ZM12 15.6923C12.1632 15.6923 12.3197 15.6275 12.4351 15.5121C12.5505 15.3967 12.6154 15.2401 12.6154 15.0769C12.6154 14.9137 12.5505 14.7572 12.4351 14.6418C12.3197 14.5264 12.1632 14.4615 12 14.4615C11.8368 14.4615 11.6803 14.5264 11.5649 14.6418C11.4495 14.7572 11.3846 14.9137 11.3846 15.0769C11.3846 15.2401 11.4495 15.3967 11.5649 15.5121C11.6803 15.6275 11.8368 15.6923 12 15.6923Z" fill="#6C3C87"/>
</svg>
