<svg width="30" height="30" viewBox="0 0 30 30" fill="none" xmlns="http://www.w3.org/2000/svg">

<path fill-rule="evenodd" clip-rule="evenodd" d="M20.0238 17.1636C19.7667 17.0227 18.4959 16.3379 18.2585 16.2414C18.0212 16.145 17.8457 16.0956 17.6602 16.3502C17.4748 16.6074 16.9482 17.1809 16.79 17.3491C16.6293 17.5196 16.476 17.5345 16.2164 17.3936C15.9593 17.2526 15.1211 16.9411 14.1495 16.009C13.393 15.2822 12.8985 14.402 12.7551 14.1325C12.6117 13.8631 12.7551 13.7271 12.8911 13.601C13.0147 13.4873 13.1655 13.3018 13.304 13.1535C13.44 13.0052 13.4894 12.8964 13.5834 12.7258C13.6773 12.5527 13.6402 12.3994 13.5784 12.2635C13.5166 12.13 13.0394 10.8147 12.8417 10.2806C12.6414 9.74663 12.4189 9.82574 12.2656 9.81832C12.1123 9.81338 11.9368 9.78371 11.7612 9.77877C11.5857 9.77135 11.2964 9.82821 11.0467 10.0804C10.7946 10.335 10.0924 10.9457 10.043 12.2412C9.99352 13.5367 10.891 14.8223 11.0146 15.0028C11.1407 15.1833 12.7255 17.9894 15.361 19.144C17.9965 20.2985 18.0113 19.9475 18.4934 19.9203C18.978 19.8956 20.0732 19.3418 20.318 18.736C20.5603 18.1303 20.5801 17.6037 20.5182 17.49C20.4564 17.3787 20.2834 17.3045 20.0263 17.1636H20.0238ZM15.1904 4.5127C9.49659 4.5127 4.88074 9.12854 4.88074 14.8223C4.88074 16.7705 5.42218 18.5926 6.35919 20.1453L4.5 25.6759L10.2086 23.8488C11.6871 24.6647 13.3831 25.132 15.1904 25.132C20.8842 25.132 25.5 20.5161 25.5 14.8223C25.5 9.12854 20.8842 4.5127 15.1904 4.5127Z" fill="currentColor"/>

</svg>
