<svg width="24" height="24" viewBox="0 0 24 24" fill="none" xmlns="http://www.w3.org/2000/svg">
<rect width="24" height="24" rx="12" fill="#F5F2FF"/>
<path d="M15.7153 17.448C16.7956 17.4558 17.8356 17.0678 18.6337 16.3694C21.27 14.1502 19.8591 9.69611 16.3844 9.27709C15.1429 2.02955 4.28346 4.77648 6.85522 11.6748M8.19322 11.9929C7.76594 11.7834 7.29028 11.6747 6.81463 11.6825C3.05776 11.9386 3.06582 17.1996 6.81463 17.4557M15.0789 9.60302C15.4981 9.40127 15.9496 9.29263 16.4172 9.28487M10.3614 17.4481L8.74899 19M13.5862 17.4481L11.9738 19M13.5862 14.3442L11.9738 15.8961M10.3614 14.3442L8.74899 15.8961" stroke="#6C3C87" stroke-miterlimit="10" stroke-linecap="round" stroke-linejoin="round"/>
</svg>
