<svg width="31" height="30" viewBox="0 0 31 30" fill="none" xmlns="http://www.w3.org/2000/svg">
<g clip-path="url(#clip0_7510_46548)">
<path d="M25.9859 11.7155C25.9859 9.10974 23.8762 7 21.2704 7H9.21554C6.60974 7 4.5 9.10974 4.5 11.7155V17.3276C4.5 19.9334 6.60974 22.0431 9.21554 22.0431H21.2704C23.8762 22.0431 25.9859 19.9334 25.9859 17.3276V11.7155ZM18.8976 14.9429L13.4888 17.6204C13.2796 17.734 12.5565 17.5846 12.5565 17.3395V11.847C12.5565 11.602 13.2796 11.4526 13.4948 11.5721L18.6705 14.3871C18.8857 14.5126 19.1128 14.8234 18.8976 14.9429Z" fill="currentColor"/>
</g>
<defs>
<clipPath id="clip0_7510_46548">
<rect width="21.4859" height="15.0431" fill="white" transform="translate(4.5 7)"/>
</clipPath>
</defs>
</svg>
