<svg width="22" height="20" viewBox="0 0 22 20" fill="none" xmlns="http://www.w3.org/2000/svg">
<path d="M6.498 12.25H3.372C2.346 12.25 1.427 11.556 1.318 10.535C1.27263 10.1082 1.24993 9.67924 1.25 9.25C1.25 6.402 2.242 3.786 3.899 1.729C4.287 1.247 4.886 1 5.504 1H9.52C10.0036 0.999705 10.4841 1.07737 10.943 1.23L14.057 2.27C14.5159 2.42263 14.9964 2.5003 15.48 2.5H16.774M6.498 12.25C7.116 12.25 7.489 12.974 7.223 13.532C6.74528 14.5374 6.49826 15.6369 6.5 16.75C6.5 17.3467 6.73705 17.919 7.15901 18.341C7.58097 18.7629 8.15326 19 8.75 19C8.94891 19 9.13968 18.921 9.28033 18.7803C9.42098 18.6397 9.5 18.4489 9.5 18.25V17.617C9.5 17.044 9.61 16.477 9.822 15.945C10.126 15.185 10.752 14.615 11.475 14.23C12.5849 13.6377 13.5591 12.8203 14.335 11.83C14.833 11.196 15.561 10.75 16.367 10.75H16.751M6.498 12.25H8.7M16.774 2.5C16.784 2.55 16.802 2.6 16.825 2.648C17.418 3.848 17.75 5.198 17.75 6.625C17.75 8.112 17.39 9.515 16.751 10.75M16.774 2.5C16.698 2.135 16.957 1.75 17.349 1.75H18.257C19.146 1.75 19.97 2.268 20.229 3.118C20.568 4.228 20.75 5.405 20.75 6.625C20.75 8.178 20.455 9.661 19.919 11.023C19.613 11.797 18.833 12.25 18.001 12.25H16.948C16.476 12.25 16.203 11.694 16.448 11.29C16.5552 11.1135 16.6563 10.9334 16.751 10.75" stroke="#6C3C87" stroke-linecap="round" stroke-linejoin="round"/>
</svg>
