<svg width="50" height="50" viewBox="0 0 50 50" fill="none" xmlns="http://www.w3.org/2000/svg">
<path d="M31.6885 12.4082C31.0649 13.832 29.8482 14.9207 28.2939 15.2475C25.6337 15.8069 22.992 13.9227 22.3934 11.0391M28.1473 15.3102L28.6226 18.9229M42.5262 12.4082C44.5112 14.5102 46 17.7769 46 19.5054C46 22.8957 44.2601 25.333 41.1278 26.5795L39.2964 27.3083M32.0947 17.0459V14.5806C32.0947 12.7062 31.5887 10.867 30.6308 9.2596L25.0339 6.66467L22.3067 10.674L22.0047 10.0053C20.6636 7.03491 21.7692 3.52477 24.5656 1.87481C27.1735 0.335984 30.4986 0.868764 32.5029 3.14662L35.4567 6.5034C36.1586 7.30116 38.7223 9.34838 39.5487 10.0053M29.2743 46.0436L36.1167 39.6194C38.1469 37.7133 39.2997 35.0442 39.2997 32.2497V21.2188C39.2997 17.561 35.4142 15.2333 32.2199 16.9775L27.1059 19.7702C24.2466 21.3316 22.8899 24.7155 23.8719 27.8371L24.4666 29.7277L22.055 32.0937C19.5687 34.533 18.1665 37.8795 18.1665 41.3742C18.1665 45.5858 21.5584 49 25.7425 49H40.2846C40.2846 46.1982 39.6301 43.4357 38.3739 40.9355L37.2053 38.61M29.2743 46.0436L25.9847 42.7256M29.2743 46.0436L28.812 47.0189C28.2383 48.2293 27.0245 49 25.6922 49C24.0824 49 22.8831 47.5047 23.2227 45.9208C23.3324 45.4087 23.5967 44.9431 23.9793 44.5879L25.9847 42.7256M25.9847 42.7256L32.8388 34.0247L31.5672 22.2951M15.1196 31.1039L17.5766 28.6307C18.4583 27.7432 18.4583 26.3042 17.5766 25.4167C16.6949 24.5292 15.2652 24.5292 14.3835 25.4167C13.5018 24.5292 12.0722 24.5292 11.1904 25.4167C10.3087 26.3042 10.3087 27.7432 11.1904 28.6307L13.6475 31.1039C14.054 31.5131 14.7131 31.5131 15.1196 31.1039ZM10.2334 20.8084L13.5698 17.45C14.7672 16.2449 14.7672 14.2908 13.5698 13.0856C12.3725 11.8805 10.4312 11.8805 9.23391 13.0856C8.0366 11.8805 6.0953 11.8805 4.89798 13.0856C3.70067 14.2908 3.70067 16.2449 4.89798 17.45L8.23443 20.8084C8.78641 21.364 9.68141 21.364 10.2334 20.8084Z" stroke="#6C3C87" stroke-width="1.5" stroke-miterlimit="10" stroke-linecap="round" stroke-linejoin="round"/>
</svg>
