<svg width="50" height="50" viewBox="0 0 50 50" fill="none" xmlns="http://www.w3.org/2000/svg">
<path d="M45 6.25V18.75C45 19.44 44.44 20 43.75 20C43.06 20 42.5 19.44 42.5 18.75V9.2675L32.735 19.0325C32.5 19.2675 32.1825 19.4 31.85 19.4C31.5175 19.4 31.195 19.265 30.9625 19.03C28.3875 16.43 24.9375 15 21.25 15C13.6675 15 7.5 21.1675 7.5 28.75C7.5 36.3325 13.6675 42.5 21.25 42.5C28.8325 42.5 35 36.3325 35 28.75C35 26.655 34.545 24.66 33.65 22.8225C33.3475 22.2025 33.605 21.455 34.2275 21.1525C34.8525 20.855 35.5975 21.11 35.8975 21.73C36.9625 23.9075 37.5 26.27 37.5 28.75C37.5 37.71 30.21 45 21.25 45C12.29 45 5 37.71 5 28.75C5 19.79 12.29 12.5 21.25 12.5C25.1875 12.5 28.895 13.88 31.82 16.41L40.7325 7.5H31.25C30.56 7.5 30 6.94 30 6.25C30 5.56 30.56 5 31.25 5H43.75C44.44 5 45 5.56 45 6.25Z" fill="#6C3C87"/>
</svg>
