<svg width="50" height="50" viewBox="0 0 50 50" fill="none" xmlns="http://www.w3.org/2000/svg">
<g clip-path="url(#clip0_9525_21680)">
<path fill-rule="evenodd" clip-rule="evenodd" d="M5.42939 6.16187C5.40158 6.16187 5.379 6.18444 5.379 6.21226V7.82827H7.04541V6.21226C7.04541 6.18444 7.02284 6.16187 6.99502 6.16187H5.42939ZM8.51025 7.82827V6.21226C8.51025 5.37543 7.83185 4.69702 6.99502 4.69702H5.42939C4.59256 4.69702 3.91416 5.37543 3.91416 6.21226V7.82827H3.86377C1.72987 7.82827 0 9.55814 0 11.692V41.4393C0 43.5732 1.72987 45.3031 3.86377 45.3031H46.1362C48.2701 45.3031 50 43.5732 50.0001 41.4394V11.692C50.0001 9.55814 48.2702 7.82827 46.1363 7.82827H46.0858V6.21226C46.0858 5.37543 45.4074 4.69702 44.5706 4.69702H43.005C42.1681 4.69702 41.4897 5.37543 41.4897 6.21226V7.82827H36.6919V6.21226C36.6919 5.37543 36.0135 4.69702 35.1767 4.69702H33.611C32.7742 4.69702 32.0958 5.37543 32.0958 6.21226V7.82827H27.298V6.21226C27.298 5.37542 26.6196 4.69702 25.7828 4.69702H24.2172C23.3804 4.69702 22.702 5.37543 22.702 6.21226V7.82827H17.9041V6.21226C17.9041 5.37543 17.2257 4.69702 16.3889 4.69702H14.8232C13.9864 4.69702 13.308 5.37543 13.308 6.21226V7.82827H8.51025ZM3.86377 9.29312C2.53888 9.29312 1.46484 10.3672 1.46484 11.692V12.5252H4.64658C5.05109 12.5252 5.379 12.8532 5.379 13.2577C5.379 13.6622 5.05109 13.9901 4.64658 13.9901H1.46484V41.4393C1.46484 42.7642 2.53888 43.8382 3.86377 43.8382H46.1362C47.4611 43.8382 48.5352 42.7642 48.5353 41.4394V13.9901H7.77783C7.37333 13.9901 7.04541 13.6622 7.04541 13.2577C7.04541 12.8532 7.37333 12.5252 7.77783 12.5252H48.5353V11.692C48.5353 10.3672 47.4612 9.29312 46.1363 9.29312H3.86377ZM14.7729 7.82827H16.4393V6.21226C16.4393 6.18444 16.4167 6.16187 16.3889 6.16187H14.8232C14.7954 6.16187 14.7729 6.18444 14.7729 6.21226V7.82827ZM24.1668 7.82827H25.8332V6.21226C25.8332 6.18444 25.8106 6.16187 25.7828 6.16187H24.2172C24.1894 6.16187 24.1668 6.18444 24.1668 6.21226V7.82827ZM33.5606 7.82827H35.2271V6.21226C35.2271 6.18444 35.2045 6.16187 35.1767 6.16187H33.611C33.5832 6.16187 33.5606 6.18444 33.5606 6.21226V7.82827ZM42.9546 7.82827H44.621V6.21226C44.621 6.18444 44.5984 6.16187 44.5706 6.16187H43.005C42.9772 6.16187 42.9546 6.18444 42.9546 6.21226V7.82827ZM25.5445 17.4647L25.0001 17.9546L24.4557 17.4647C24.5946 17.3103 24.7925 17.2222 25.0001 17.2222C25.2077 17.2222 25.4056 17.3103 25.5445 17.4647ZM25.0001 19.0855C24.8497 19.2685 24.673 19.4877 24.476 19.7393C23.8276 20.5679 22.9631 21.7446 22.0997 23.1357C20.356 25.945 18.6871 29.5175 18.6871 32.8283C18.6871 36.3148 21.5136 39.1413 25.0001 39.1413C28.4866 39.1413 31.3131 36.3149 31.3131 32.8283C31.3131 30.275 30.3194 27.5562 29.0491 25.1382C28.8609 24.7801 28.9987 24.3373 29.3568 24.1491C29.7149 23.961 30.1577 24.0988 30.3458 24.4569C31.662 26.9621 32.7779 29.9296 32.7779 32.8283C32.7779 37.1239 29.2956 40.6061 25.0001 40.6061C20.7046 40.6061 17.2223 37.1238 17.2223 32.8283C17.2223 29.0936 19.0761 25.2293 20.8551 22.3632C21.753 20.9165 22.6499 19.6958 23.3225 18.8365C23.659 18.4064 23.9401 18.0659 24.1381 17.8318C24.2371 17.7148 24.3154 17.6242 24.3694 17.5623C24.3965 17.5314 24.4175 17.5076 24.432 17.4913C24.4392 17.4831 24.4449 17.4767 24.4489 17.4723L24.4535 17.4671L24.4554 17.465C24.4556 17.4648 24.4557 17.4647 25.0001 17.9546C25.5445 17.4647 25.5445 17.4647 25.5446 17.4648L25.5448 17.465L25.5451 17.4654L25.5463 17.4667L25.5501 17.4709L25.5555 17.477C25.5579 17.4796 25.5606 17.4827 25.5638 17.4862C25.5755 17.4994 25.5924 17.5186 25.6142 17.5434C25.6578 17.5932 25.721 17.6659 25.8013 17.7602C25.9619 17.9487 26.1911 18.2235 26.4692 18.5724C27.025 19.2698 27.7781 20.2661 28.5698 21.465C28.7927 21.8026 28.6997 22.2569 28.3622 22.4798C28.0246 22.7027 27.5703 22.6098 27.3474 22.2722C26.5846 21.1171 25.8584 20.1564 25.3236 19.4853C25.2059 19.3376 25.0975 19.204 25.0001 19.0855Z" fill="#6C3C87"/>
</g>
<defs>
<clipPath id="clip0_9525_21680">
<rect width="50" height="50" fill="white"/>
</clipPath>
</defs>
</svg>
