<svg width="37" height="36" viewBox="0 0 37 36" fill="none" xmlns="http://www.w3.org/2000/svg">
<path d="M27.5621 26.1678C27.4443 26.1678 27.3241 26.1289 27.2221 26.0488C26.9717 25.8531 26.9218 25.4842 27.1099 25.2238C28.5209 23.2732 29.2667 20.9479 29.2667 18.5C29.2667 17.7316 29.1907 16.962 29.0411 16.2136C28.9777 15.8942 29.1749 15.583 29.4809 15.517C29.7857 15.451 30.0872 15.6561 30.1507 15.9743C30.3161 16.8017 30.4 17.6514 30.4 18.5C30.4 21.2048 29.5749 23.7765 28.0155 25.9333C27.9033 26.0876 27.7333 26.1678 27.5621 26.1678Z" fill="#6C3C87"/>
<path d="M7.41147 21.5454C7.14967 21.5454 6.91393 21.3545 6.85727 21.0775C6.68727 20.2325 6.6 19.3651 6.6 18.5C6.6 15.807 7.41713 13.2459 8.96413 11.0962C9.15113 10.8346 9.507 10.7804 9.75747 10.9772C10.0079 11.1728 10.0601 11.5417 9.87193 11.8022C8.47227 13.7468 7.73333 16.0627 7.73333 18.5C7.73333 19.2838 7.81153 20.0699 7.9668 20.8348C8.0314 21.153 7.83533 21.4653 7.52933 21.5325C7.48967 21.5419 7.45 21.5454 7.41147 21.5454Z" fill="#6C3C87"/>
<path d="M20.9265 35H14.9867C13.8794 35 12.7982 34.7431 11.7725 34.2363L7.80247 32.2304C6.78473 31.7224 5.70013 31.4643 4.5838 31.4643H2.06667C1.75387 31.4643 1.5 31.2003 1.5 30.875C1.5 30.5497 1.75387 30.2857 2.06667 30.2857H4.5838C5.87127 30.2857 7.1202 30.5827 8.29547 31.1696L12.2644 33.1744C13.1325 33.6022 14.0494 33.8214 14.9867 33.8214H20.8131L25.7624 31.6976C25.7624 31.6481 25.8293 31.192 25.6117 30.8043C25.2796 30.2103 24.5123 30.1914 23.9309 30.2798C23.0866 30.4154 22.3885 30.6593 21.7731 30.875L21.5396 30.9563C21.2415 31.0565 20.9219 30.8927 20.8233 30.5827C20.7247 30.2739 20.8857 29.9404 21.1826 29.8379L21.4115 29.7589C22.0711 29.5279 22.818 29.2663 23.7632 29.1154C26.1001 28.7618 26.6838 30.2798 26.8096 30.7524C27.017 31.5315 26.8447 32.5061 26.1976 32.7878L21.1418 34.9576C21.0738 34.9847 21.0001 35 20.9265 35Z" fill="#6C3C87"/>
<path d="M13.553 26.605C13.3399 26.605 13.1348 26.4789 13.0385 26.2644C11.9278 23.7788 9.04233 23.4229 6.89693 24.3481C6.8278 24.3775 6.75413 24.3929 6.67933 24.3929H2.06667C1.75387 24.3929 1.5 24.1289 1.5 23.8036C1.5 23.4783 1.75387 23.2143 2.06667 23.2143H6.5694C9.63733 21.9473 12.8435 23.0351 14.0675 25.7683C14.199 26.0629 14.0766 26.4141 13.7921 26.552C13.7139 26.5874 13.6335 26.605 13.553 26.605Z" fill="#6C3C87"/>
<path d="M18.9239 32.1985C18.8502 32.1985 18.7765 32.1832 18.7074 32.1537L12.2179 29.3523C11.9289 29.2274 11.7918 28.8832 11.9119 28.5815C12.0321 28.281 12.3641 28.1395 12.6531 28.2633L18.5725 30.8184C18.8207 29.6033 18.1815 28.6581 16.6629 28.004L13.3275 26.5638C13.0385 26.4389 12.9013 26.0935 13.0215 25.793C13.1416 25.4925 13.4737 25.3499 13.7627 25.4748L17.0969 26.915C19.4327 27.9215 20.2895 29.7141 19.4475 31.832C19.3897 31.977 19.2797 32.0925 19.1403 32.1514C19.0712 32.1832 18.9975 32.1985 18.9239 32.1985Z" fill="#6C3C87"/>
<path d="M12.5738 7.93882C10.7911 7.93882 10.3037 6.67304 10.1904 6.24875C9.983 5.46971 10.1553 4.49504 10.8024 4.21336L15.8582 2.04361C15.9262 2.01532 15.9999 2 16.0735 2H22.0122C23.1195 2 24.2007 2.25693 25.2263 2.76371L29.1964 4.76964C30.2153 5.27761 31.2999 5.53571 32.4162 5.53571H34.9333C35.2461 5.53571 35.5 5.79971 35.5 6.125C35.5 6.45029 35.2461 6.71429 34.9333 6.71429H32.4162C31.1287 6.71429 29.8798 6.41729 28.7045 5.83036L24.7356 3.82679C23.8675 3.39779 22.9506 3.17857 22.0133 3.17857H16.1869L11.2365 5.30236C11.2365 5.35186 11.1696 5.80796 11.3872 6.19571C11.7204 6.78971 12.4854 6.80857 13.0679 6.72018C13.9123 6.58464 14.6104 6.34068 15.2258 6.125L15.4593 6.04368C15.7573 5.94232 16.0769 6.10732 16.1755 6.41729C16.2741 6.72607 16.1132 7.05961 15.8163 7.16214L15.5873 7.24111C14.9277 7.47211 14.1809 7.73375 13.2357 7.88461C12.9977 7.92232 12.7767 7.93882 12.5738 7.93882Z" fill="#6C3C87"/>
<path d="M27.8602 14.3102C25.7182 14.3102 23.8119 13.1976 22.9325 11.2317C22.801 10.9371 22.9234 10.5859 23.2079 10.448C23.4923 10.3113 23.8289 10.4397 23.9615 10.7344C25.0711 13.2188 27.9554 13.5736 30.1031 12.6508C30.1722 12.6225 30.2459 12.6071 30.3207 12.6071H34.9333C35.2461 12.6071 35.5 12.8711 35.5 13.1964C35.5 13.5217 35.2461 13.7857 34.9333 13.7857H30.4306C29.5693 14.1405 28.6966 14.3102 27.8602 14.3102Z" fill="#6C3C87"/>
<path d="M23.4549 11.57C23.3824 11.57 23.3087 11.5559 23.2373 11.5252L19.9031 10.085C17.5673 9.0785 16.7105 7.28589 17.5525 5.168C17.6103 5.02304 17.7203 4.90754 17.8597 4.84861C17.9991 4.78968 18.1543 4.7885 18.2937 4.84861L24.7832 7.65007C25.0722 7.775 25.2093 8.11914 25.0892 8.42086C24.9691 8.72257 24.6393 8.86282 24.348 8.73907L18.4286 6.18393C18.1804 7.39904 18.8196 8.34425 20.3383 8.99836L23.6737 10.4386C23.9627 10.5635 24.0998 10.9088 23.9797 11.2094C23.8879 11.4333 23.6771 11.57 23.4549 11.57Z" fill="#6C3C87"/>
<path d="M20.0073 15.5397C20.0073 16.4129 19.2922 17.1185 18.4106 17.1185C17.529 17.1185 16.8125 16.4129 16.8125 15.5397C16.8125 14.6666 17.5276 13.9609 18.4106 13.9609C19.2936 13.9609 20.0073 14.6666 20.0073 15.5397Z" fill="#C0AED0"/>
<path d="M20.7522 19.2663C21.8052 18.5177 22.5032 17.286 22.5696 15.9062C22.5696 15.6478 22.3396 15.5426 22.1788 15.5369H21.3751C21.2073 15.5369 20.9686 15.6335 20.9522 15.9384C20.9358 16.1058 20.8736 16.3756 20.8551 16.4422L20.8493 16.4608C20.5493 17.5064 19.6427 18.2736 18.5933 18.3645L18.5825 18.3681C18.4361 18.3788 18.2968 18.3788 18.1482 18.3645C17.6081 18.3166 17.1044 18.0962 16.6922 17.7247C16.2786 17.3561 15.9835 16.8494 15.86 16.2991L15.8492 16.2576C15.8364 16.1846 15.8071 16.0285 15.7985 15.9391C15.7899 15.6378 15.5442 15.5376 15.3756 15.5376H14.5655C14.4097 15.5433 14.179 15.6485 14.1804 15.9162C14.2454 17.2903 14.9505 18.5191 16.0021 19.2684C14.9505 20.0185 14.2461 21.2487 14.1797 22.6307C14.1797 22.8891 14.4097 22.9936 14.5719 22.9993H15.3763C15.5456 22.9993 15.7964 22.8927 15.7992 22.5985C15.8042 22.532 15.8128 22.4661 15.8228 22.401H15.825L15.8607 22.2364C16.1136 21.1042 17.033 20.2726 18.1403 20.1716H18.1539C18.2939 20.1595 18.4375 20.1595 18.5833 20.1716H18.594C19.6434 20.264 20.55 21.0305 20.85 22.0775L20.8886 22.2063V22.2049C20.9193 22.3352 20.9415 22.4683 20.9529 22.5992C20.9551 22.7603 21.0308 22.8841 21.1687 22.9514C21.2608 22.9964 21.3501 23 21.3758 23H22.186C22.3403 22.9936 22.571 22.8898 22.571 22.6214C22.5053 21.2466 21.8073 20.0185 20.7536 19.2677" fill="#6C3C87"/>
</svg>
