<svg width="50" height="50" viewBox="0 0 50 50" fill="none" xmlns="http://www.w3.org/2000/svg">
<path d="M30.8 32.0875C30 32.35 29.7333 33.1375 30 33.6625C30.2667 34.45 31.0667 34.7125 31.6 34.45C38 32.0875 42 26.3125 42 19.75C42 11.0875 34.8 4 26 4C17.2 4 10 11.0875 10 19.75C10 27.8875 16.4 34.7125 24.6667 35.5V38.125H19.3333C18.5333 38.125 18 38.65 18 39.4375C18 40.225 18.5333 40.75 19.3333 40.75H24.6667V44.6875C24.6667 45.475 25.2 46 26 46C26.8 46 27.3333 45.475 27.3333 44.6875V40.75H32.6667C33.4667 40.75 34 40.225 34 39.4375C34 38.65 33.4667 38.125 32.6667 38.125H27.3333V34.1875C27.3333 33.4 26.8 32.875 26 32.875C18.5333 32.875 12.6667 27.1 12.6667 19.75C12.6667 12.4 18.5333 6.625 26 6.625C33.4667 6.625 39.3333 12.4 39.3333 19.75C39.3333 25.2625 36.1333 29.9875 30.8 32.0875Z" fill="#6C3C87"/>
</svg>
