<svg width="50" height="50" viewBox="0 0 50 50" fill="none" xmlns="http://www.w3.org/2000/svg">
<path d="M37.7936 35.9561C37.6272 35.9561 37.4576 35.903 37.3136 35.7938C36.96 35.527 36.8896 35.0239 37.1552 34.6687C39.1472 32.0089 40.2 28.838 40.2 25.5C40.2 24.4521 40.0928 23.4027 39.8816 22.3821C39.792 21.9466 40.0704 21.5223 40.5024 21.4323C40.9328 21.3423 41.3584 21.622 41.448 22.0559C41.6816 23.1841 41.8 24.3429 41.8 25.5C41.8 29.1884 40.6352 32.6952 38.4336 35.6362C38.2752 35.8468 38.0352 35.9561 37.7936 35.9561Z" fill="#6C3C87"/>
<path d="M9.3456 29.6529C8.976 29.6529 8.6432 29.3925 8.5632 29.0148C8.3232 27.8625 8.2 26.6796 8.2 25.5C8.2 21.8277 9.3536 18.3354 11.5376 15.4039C11.8016 15.0471 12.304 14.9732 12.6576 15.2416C13.0112 15.5084 13.0848 16.0114 12.8192 16.3666C10.8432 19.0184 9.8 22.1764 9.8 25.5C9.8 26.5687 9.9104 27.6407 10.1296 28.6838C10.2208 29.1177 9.944 29.5436 9.512 29.6352C9.456 29.648 9.4 29.6529 9.3456 29.6529Z" fill="#6C3C87"/>
<path d="M28.4256 48H20.04C18.4768 48 16.9504 47.6496 15.5024 46.9586L9.8976 44.2232C8.4608 43.5305 6.9296 43.1786 5.3536 43.1786H1.8C1.3584 43.1786 1 42.8186 1 42.375C1 41.9314 1.3584 41.5714 1.8 41.5714H5.3536C7.1712 41.5714 8.9344 41.9764 10.5936 42.7768L16.1968 45.5105C17.4224 46.0939 18.7168 46.3929 20.04 46.3929H28.2656L35.2528 43.4968C35.2528 43.4293 35.3472 42.8073 35.04 42.2786C34.5712 41.4686 33.488 41.4429 32.6672 41.5634C31.4752 41.7482 30.4896 42.0809 29.6208 42.375L29.2912 42.4859C28.8704 42.6225 28.4192 42.3991 28.28 41.9764C28.1408 41.5554 28.368 41.1005 28.7872 40.9607L29.1104 40.853C30.0416 40.538 31.096 40.1812 32.4304 39.9755C35.7296 39.4934 36.5536 41.5634 36.7312 42.2079C37.024 43.2702 36.7808 44.5993 35.8672 44.9834L28.7296 47.9421C28.6336 47.9791 28.5296 48 28.4256 48Z" fill="#6C3C87"/>
<path d="M18.016 36.5523C17.7152 36.5523 17.4256 36.3804 17.2896 36.0879C15.7216 32.6984 11.648 32.213 8.6192 33.4746C8.5216 33.5148 8.4176 33.5357 8.312 33.5357H1.8C1.3584 33.5357 1 33.1757 1 32.7321C1 32.2886 1.3584 31.9286 1.8 31.9286H8.1568C12.488 30.2009 17.0144 31.6843 18.7424 35.4112C18.928 35.813 18.7552 36.292 18.3536 36.48C18.2432 36.5282 18.1296 36.5523 18.016 36.5523Z" fill="#6C3C87"/>
<path d="M25.5984 44.1798C25.4944 44.1798 25.3904 44.1589 25.2928 44.1187L16.1312 40.2986C15.7232 40.1282 15.5296 39.6589 15.6992 39.2475C15.8688 38.8377 16.3376 38.6448 16.7456 38.8136L25.1024 42.2979C25.4528 40.6409 24.5504 39.352 22.4064 38.46L17.6976 36.4961C17.2896 36.3257 17.096 35.8548 17.2656 35.445C17.4352 35.0352 17.904 34.8407 18.312 35.0111L23.0192 36.975C26.3168 38.3475 27.5264 40.792 26.3376 43.68C26.256 43.8777 26.1008 44.0352 25.904 44.1155C25.8064 44.1589 25.7024 44.1798 25.5984 44.1798Z" fill="#6C3C87"/>
<path d="M16.6336 11.0984C14.1168 11.0984 13.4288 9.37232 13.2688 8.79375C12.976 7.73143 13.2192 6.40232 14.1328 6.01821L21.2704 3.05946C21.3664 3.02089 21.4704 3 21.5744 3H29.9584C31.5216 3 33.048 3.35036 34.496 4.04143L40.1008 6.77679C41.5392 7.46946 43.0704 7.82143 44.6464 7.82143H48.2C48.6416 7.82143 49 8.18143 49 8.625C49 9.06857 48.6416 9.42857 48.2 9.42857H44.6464C42.8288 9.42857 41.0656 9.02357 39.4064 8.22321L33.8032 5.49107C32.5776 4.90607 31.2832 4.60714 29.96 4.60714H21.7344L14.7456 7.50321C14.7456 7.57071 14.6512 8.19268 14.9584 8.72143C15.4288 9.53143 16.5088 9.55714 17.3312 9.43661C18.5232 9.25179 19.5088 8.91911 20.3776 8.625L20.7072 8.51411C21.128 8.37589 21.5792 8.60089 21.7184 9.02357C21.8576 9.44464 21.6304 9.89946 21.2112 10.0393L20.888 10.147C19.9568 10.462 18.9024 10.8187 17.568 11.0245C17.232 11.0759 16.92 11.0984 16.6336 11.0984Z" fill="#6C3C87"/>
<path d="M38.2144 19.7866C35.1904 19.7866 32.4992 18.2695 31.2576 15.5887C31.072 15.187 31.2448 14.708 31.6464 14.52C32.048 14.3336 32.5232 14.5087 32.7104 14.9105C34.2768 18.2984 38.3488 18.7821 41.3808 17.5237C41.4784 17.4852 41.5824 17.4643 41.688 17.4643H48.2C48.6416 17.4643 49 17.8243 49 18.2679C49 18.7114 48.6416 19.0714 48.2 19.0714H41.8432C40.6272 19.5552 39.3952 19.7866 38.2144 19.7866Z" fill="#6C3C87"/>
<path d="M31.9952 16.05C31.8928 16.05 31.7888 16.0307 31.688 15.9889L26.9808 14.025C23.6832 12.6525 22.4736 10.208 23.6624 7.32C23.744 7.12232 23.8992 6.96482 24.096 6.88446C24.2928 6.80411 24.512 6.8025 24.7088 6.88446L33.8704 10.7046C34.2784 10.875 34.472 11.3443 34.3024 11.7557C34.1328 12.1671 33.6672 12.3584 33.256 12.1896L24.8992 8.70536C24.5488 10.3623 25.4512 11.6512 27.5952 12.5432L32.304 14.5071C32.712 14.6775 32.9056 15.1484 32.736 15.5582C32.6064 15.8636 32.3088 16.05 31.9952 16.05Z" fill="#6C3C87"/>
<path d="M28.0276 20.4459C28.0276 21.7986 26.9197 22.8918 25.5539 22.8918C24.1882 22.8918 23.0781 21.7986 23.0781 20.4459C23.0781 19.0932 24.186 18 25.5539 18C26.9219 18 28.0276 19.0932 28.0276 20.4459Z" fill="#C0AED0"/>
<path d="M29.1822 26.2152C30.8136 25.0554 31.8949 23.1473 31.9978 21.0096C31.9978 20.6094 31.6414 20.4464 31.3924 20.4375H30.1473C29.8872 20.4375 29.5175 20.5872 29.4921 21.0595C29.4666 21.319 29.3703 21.737 29.3416 21.8401L29.3327 21.8689C28.8679 23.4888 27.4634 24.6774 25.8376 24.8182L25.821 24.8237C25.5941 24.8403 25.3783 24.8403 25.148 24.8182C24.3113 24.7439 23.5311 24.4024 22.8925 23.8269C22.2517 23.2559 21.7946 22.4709 21.6031 21.6183L21.5865 21.554C21.5666 21.4409 21.5212 21.1992 21.5079 21.0606C21.4946 20.5938 21.1139 20.4386 20.8527 20.4386H19.5976C19.3564 20.4475 18.9989 20.6105 19.0011 21.0251C19.1018 23.1539 20.1942 25.0577 21.8233 26.2185C20.1942 27.3805 19.1029 29.2864 19 31.4274C19 31.8277 19.3564 31.9896 19.6076 31.9984H20.8538C21.1161 31.9984 21.5046 31.8332 21.509 31.3775C21.5168 31.2744 21.5301 31.1724 21.5455 31.0715H21.5489L21.6042 30.8165C21.996 29.0625 23.4204 27.7741 25.1359 27.6178H25.1569C25.3738 27.5989 25.5963 27.5989 25.8221 27.6178H25.8387C27.4645 27.7608 28.869 28.9483 29.3338 30.5704L29.3936 30.7699V30.7677C29.4412 30.9695 29.4755 31.1757 29.4932 31.3786C29.4965 31.6281 29.6138 31.8199 29.8274 31.9241C29.9702 31.994 30.1085 31.9995 30.1484 31.9995H31.4035C31.6425 31.9896 32 31.8288 32 31.413C31.8982 29.2831 30.8169 27.3805 29.1844 26.2174" fill="#6C3C87"/>
</svg>
