<svg width="31" height="31" viewBox="0 0 31 31" fill="none" xmlns="http://www.w3.org/2000/svg">
<rect x="0.445312" y="0.100098" width="30" height="30" rx="15" fill="#6C3C87"/>
<path d="M18.0041 10.431C18.0041 11.7546 16.8875 12.8244 15.511 12.8244C14.1345 12.8244 13.0156 11.7546 13.0156 10.431C13.0156 9.10736 14.1322 8.0376 15.511 8.0376C16.8898 8.0376 18.0041 9.10736 18.0041 10.431Z" fill="#BEABCF"/>
<path d="M19.161 16.077C20.8053 14.9422 21.8951 13.075 21.9989 10.9832C21.9989 10.5915 21.6397 10.432 21.3887 10.4233H20.1338C19.8716 10.4233 19.499 10.5698 19.4734 11.032C19.4477 11.2859 19.3507 11.6949 19.3217 11.7958L19.3128 11.824C18.8442 13.4091 17.4287 14.5722 15.79 14.71L15.7733 14.7154C15.5446 14.7317 15.3271 14.7317 15.095 14.71C14.2517 14.6373 13.4653 14.3031 12.8217 13.74C12.1758 13.1813 11.7151 12.4131 11.5221 11.5788L11.5054 11.5159C11.4853 11.4052 11.4395 11.1687 11.4262 11.0331C11.4128 10.5763 11.029 10.4244 10.7658 10.4244H9.50081C9.25763 10.4331 8.89732 10.5926 8.89955 10.9984C9.00106 13.0815 10.1021 14.9443 11.7441 16.0803C10.1021 17.2173 9.00218 19.0823 8.89844 21.1774C8.89844 21.5691 9.25763 21.7275 9.51085 21.7361H10.7669C11.0313 21.7361 11.4228 21.5745 11.4273 21.1286C11.4351 21.0277 11.4485 20.9278 11.4641 20.8291H11.4674L11.5232 20.5796C11.9181 18.8632 13.3538 17.6025 15.0828 17.4495H15.104C15.3226 17.431 15.5468 17.431 15.7744 17.4495H15.7911C17.4298 17.5894 18.8454 18.7514 19.3139 20.3387L19.3741 20.534V20.5318C19.4221 20.7293 19.4567 20.9311 19.4745 21.1296C19.4779 21.3738 19.5961 21.5615 19.8114 21.6634C19.9553 21.7318 20.0947 21.7372 20.1349 21.7372H21.3999C21.6408 21.7275 22.0011 21.5701 22.0011 21.1633C21.8985 19.0791 20.8086 17.2173 19.1633 16.0792" fill="white"/>
</svg>
