<svg width="16" height="17" viewBox="0 0 16 17" fill="none" xmlns="http://www.w3.org/2000/svg">
<path d="M10.9388 3.52907C10.9388 5.05304 9.65321 6.28471 8.06835 6.28471C6.48349 6.28471 5.19531 5.05304 5.19531 3.52907C5.19531 2.0051 6.48092 0.773438 8.06835 0.773438C9.65578 0.773438 10.9388 2.0051 10.9388 3.52907Z" fill="#BEABCF"/>
<path class="logo-body" d="M12.2768 10.0289C14.1699 8.72226 15.4246 6.57247 15.5441 4.1641C15.5441 3.71315 15.1305 3.52952 14.8416 3.51953H13.3967C13.0949 3.51953 12.6659 3.68817 12.6364 4.22031C12.6068 4.51261 12.4951 4.98354 12.4617 5.09971L12.4514 5.13219C11.912 6.95721 10.2822 8.2963 8.39552 8.45494L8.37625 8.46119C8.11296 8.47993 7.86252 8.47993 7.59538 8.45494C6.62443 8.37125 5.71897 7.98651 4.97792 7.3382C4.23429 6.69488 3.70386 5.81048 3.48168 4.84988L3.46241 4.77743C3.43929 4.65002 3.38663 4.3777 3.37122 4.22156C3.35581 3.69566 2.914 3.52078 2.6109 3.52078H1.15447C0.87449 3.53077 0.459651 3.7144 0.462219 4.18158C0.579093 6.57996 1.84672 8.72476 3.73726 10.0326C1.84672 11.3417 0.58038 13.489 0.460938 15.9012C0.460938 16.3521 0.87449 16.5345 1.16603 16.5445H2.61219C2.91657 16.5445 3.36737 16.3584 3.37251 15.8449C3.3815 15.7288 3.39691 15.6139 3.41489 15.5002H3.41874L3.48296 15.2129C3.93761 13.2367 5.59054 11.7852 7.58125 11.6091H7.60565C7.85738 11.5878 8.11553 11.5878 8.37753 11.6091H8.3968C10.2835 11.7702 11.9133 13.108 12.4527 14.9356L12.5221 15.1604V15.1579C12.5773 15.3853 12.6171 15.6176 12.6377 15.8462C12.6415 16.1273 12.7776 16.3434 13.0255 16.4608C13.1912 16.5395 13.3517 16.5457 13.398 16.5457H14.8544C15.1318 16.5345 15.5467 16.3534 15.5467 15.8849C15.4285 13.4853 14.1737 11.3417 12.2793 10.0314" fill="#6C3C87"/>
</svg>
