<svg width="12" height="13" viewBox="0 0 12 13" fill="none" xmlns="http://www.w3.org/2000/svg">
<path d="M8.33433 2.27117C8.33433 3.52721 7.31168 4.54233 6.051 4.54233C4.79031 4.54233 3.76562 3.52721 3.76562 2.27117C3.76562 1.01513 4.78827 0 6.051 0C7.31373 0 8.33433 1.01513 8.33433 2.27117Z" fill="#BEABCF"/>
<path d="M9.39894 7.63056C10.9048 6.55366 11.9029 4.78182 11.998 2.79687C11.998 2.4252 11.669 2.27386 11.4391 2.26562H10.2898C10.0497 2.26562 9.7085 2.40461 9.685 2.8432C9.6615 3.08411 9.57262 3.47225 9.54606 3.56799L9.53788 3.59476C9.1088 5.09892 7.81236 6.20259 6.3116 6.33334L6.29627 6.33849C6.08684 6.35393 5.88762 6.35393 5.67512 6.33334C4.90277 6.26436 4.18253 5.94726 3.59305 5.41293C3.00153 4.88272 2.5796 4.1538 2.40286 3.36209L2.38754 3.30237C2.36915 3.19736 2.32726 2.97292 2.315 2.84423C2.30274 2.41079 1.9513 2.26665 1.7102 2.26665H0.551677C0.328962 2.27489 -0.00102374 2.42623 0.0010195 2.81128C0.0939873 4.788 1.10233 6.55572 2.60616 7.63365C1.10233 8.71261 0.0950111 10.4824 0 12.4704C0 12.8421 0.328962 12.9924 0.560871 13.0007H1.71122C1.95335 13.0007 2.31193 12.8472 2.31602 12.4241C2.32317 12.3284 2.33543 12.2336 2.34974 12.14H2.3528L2.40388 11.9032C2.76554 10.2744 4.08037 9.0781 5.66389 8.93293H5.68329C5.88353 8.91543 6.08888 8.91543 6.29729 8.93293H6.31261C7.81338 9.06574 9.10982 10.1684 9.53891 11.6746L9.59407 11.8599V11.8579C9.638 12.0452 9.66967 12.2367 9.68602 12.4251C9.68909 12.6568 9.79738 12.8349 9.99455 12.9317C10.1263 12.9965 10.254 13.0017 10.2908 13.0017H11.4493C11.67 12.9924 12 12.8431 12 12.4571C11.906 10.4793 10.9079 8.71261 9.40099 7.63262" fill="white"/>
</svg>
