<svg width="90" height="17" viewBox="0 0 90 17" fill="none" xmlns="http://www.w3.org/2000/svg">
<mask id="mask0_7510_46628" style="mask-type:luminance" maskUnits="userSpaceOnUse" x="0" y="0" width="16" height="17">
<path fill-rule="evenodd" clip-rule="evenodd" d="M0 0.865173H15.4308V16.4009H0V0.865173Z" fill="white"/>
</mask>
<g mask="url(#mask0_7510_46628)">
<rect y="0.865173" width="15.4308" height="15.5357" rx="1.60714" fill="#734EE1"/>
<path fill-rule="evenodd" clip-rule="evenodd" d="M2.49219 5.27052H5.21527V2.48801H2.49219V5.27052Z" fill="white"/>
<path fill-rule="evenodd" clip-rule="evenodd" d="M6.35156 6.42986H9.07464V3.64734H6.35156V6.42986Z" fill="white"/>
<path fill-rule="evenodd" clip-rule="evenodd" d="M3.63281 9.21306H6.35589V6.43054H3.63281V9.21306Z" fill="white"/>
<path fill-rule="evenodd" clip-rule="evenodd" d="M9.07812 11.9952H11.8012V9.21268H9.07812V11.9952Z" fill="white"/>
<path fill-rule="evenodd" clip-rule="evenodd" d="M9.07812 6.42986H11.8012V3.64734H9.07812V6.42986Z" fill="white"/>
<path fill-rule="evenodd" clip-rule="evenodd" d="M6.35156 11.9952H9.07464V9.21268H6.35156V11.9952Z" fill="white"/>
<path fill-rule="evenodd" clip-rule="evenodd" d="M3.63281 14.7774H6.35589V11.9948H3.63281V14.7774Z" fill="white"/>
<path fill-rule="evenodd" clip-rule="evenodd" d="M9.07812 9.21306H11.8012V6.43054H9.07812V9.21306Z" fill="white"/>
<path fill-rule="evenodd" clip-rule="evenodd" d="M3.63281 11.9952H6.35589V9.21268H3.63281V11.9952Z" fill="white"/>
</g>
<path fill-rule="evenodd" clip-rule="evenodd" d="M90 12.1169V14.3777H80.709V2.20389H89.7776V4.46465H83.469V7.10844H89.0401V9.29972H83.469V12.1169H90ZM70.2584 2.20389H73.0085V12.0819H78.9681V14.3777H70.2584V2.20389ZM62.7034 8.7357C63.5582 8.7357 64.208 8.54329 64.6534 8.15848C65.0982 7.77367 65.3212 7.22674 65.3212 6.51829C65.3212 5.79677 65.0982 5.24449 64.6534 4.85909C64.208 4.47428 63.5582 4.28187 62.7034 4.28187H60.3853V8.7357H62.7034ZM62.9906 2.20389C64.0585 2.20389 64.9853 2.38382 65.7716 2.7431C66.5584 3.10237 67.1635 3.61248 67.5885 4.27343C68.013 4.93438 68.2261 5.71706 68.2261 6.62149C68.2261 7.51403 68.013 8.29375 67.5885 8.96063C67.1635 9.62693 66.5584 10.1376 65.7716 10.491C64.9853 10.8443 64.0585 11.0213 62.9906 11.0213H60.5628V14.3777H57.7737V2.20389H62.9906ZM52.8365 6.50879C52.8365 5.79083 52.6135 5.24034 52.1687 4.85671C51.7234 4.47368 51.0736 4.28187 50.2188 4.28187H47.9007V8.7357H50.2188C51.0736 8.7357 51.7234 8.54092 52.1687 8.15195C52.6135 7.76239 52.8365 7.21486 52.8365 6.50879ZM52.5149 14.3777L50.2386 10.9868H47.7271V14.3777H44.9961V2.20389H50.1038C51.1491 2.20389 52.0567 2.38382 52.8267 2.7431C53.5967 3.10237 54.1896 3.61248 54.6053 4.27343C55.0211 4.93438 55.229 5.71706 55.229 6.62149C55.229 7.52591 55.0182 8.30563 54.5966 8.96063C54.175 9.61564 53.5769 10.1168 52.8011 10.4648L55.4485 14.3777H52.5149ZM37.0123 14.6746C35.3178 14.6746 33.9991 14.19 33.056 13.2209C32.113 12.2517 31.6409 10.8681 31.6409 9.0699V2.20389H34.3864V8.96479C34.3864 11.1602 35.2673 12.2576 37.0291 12.2576C37.888 12.2576 38.543 11.9922 38.9948 11.4607C39.4465 10.9292 39.673 10.0972 39.673 8.96479V2.20389H42.3842V9.0699C42.3842 10.8681 41.9121 12.2517 40.9691 13.2209C40.0255 14.19 38.7067 14.6746 37.0123 14.6746ZM24.3795 8.7357C25.2343 8.7357 25.8841 8.54329 26.3295 8.15848C26.7743 7.77367 26.9967 7.22674 26.9967 6.51829C26.9967 5.79677 26.7743 5.24449 26.3295 4.85909C25.8841 4.47428 25.2343 4.28187 24.3795 4.28187H22.0608V8.7357H24.3795ZM24.3737 2.20389C25.4416 2.20389 26.3684 2.38382 27.1547 2.7431C27.9415 3.10237 28.5466 3.61248 28.9716 4.27343C29.3961 4.93438 29.6087 5.71706 29.6087 6.62149C29.6087 7.51403 29.3961 8.29375 28.9716 8.96063C28.5466 9.62693 27.9415 10.1376 27.1547 10.491C26.3684 10.8443 25.4416 11.0213 24.3737 11.0213H21.9459V14.3777H19.1562V2.20389H24.3737Z" fill="#734EE1"/>
</svg>
