<svg width="75" height="29" viewBox="0 0 75 29" fill="none" xmlns="http://www.w3.org/2000/svg">
<g clip-path="url(#clip0_5106_104900)">
<path d="M68.8596 5.36797C68.8596 7.28621 67.2857 8.83652 65.3454 8.83652C63.4052 8.83652 61.8281 7.28621 61.8281 5.36797C61.8281 3.44973 63.402 1.89941 65.3454 1.89941C67.2888 1.89941 68.8596 3.44973 68.8596 5.36797Z" fill="#C0AED0"/>
<path d="M70.4967 13.5489C72.8143 11.9042 74.3504 9.19824 74.4967 6.16679C74.4967 5.59918 73.9904 5.36805 73.6366 5.35547H71.8677C71.4982 5.35547 70.9731 5.56773 70.9369 6.23754C70.9007 6.60547 70.764 7.19824 70.7231 7.34446L70.7105 7.38534C70.0501 9.68251 68.0548 11.368 65.7451 11.5677L65.7215 11.5756C65.3992 11.5992 65.0926 11.5992 64.7655 11.5677C63.5768 11.4624 62.4684 10.9781 61.5611 10.1621C60.6507 9.35232 60.0014 8.23912 59.7294 7.03L59.7058 6.9388C59.6775 6.77842 59.613 6.43566 59.5941 6.23912C59.5753 5.57717 59.0344 5.35704 58.6633 5.35704H56.8803C56.5375 5.36962 56.0297 5.60075 56.0328 6.1888C56.1759 9.20767 57.7278 11.9074 60.0423 13.5536C57.7278 15.2014 56.1775 17.9042 56.0312 20.9404C56.0312 21.508 56.5375 21.7375 56.8945 21.7501H58.6649C59.0375 21.7501 59.5894 21.5158 59.5957 20.8696C59.6067 20.7234 59.6256 20.5787 59.6476 20.4357H59.6523L59.7309 20.074C60.2875 17.5866 62.3111 15.7596 64.7482 15.5379H64.7781C65.0863 15.5111 65.4023 15.5111 65.7231 15.5379H65.7467C68.0564 15.7407 70.0517 17.4246 70.7121 19.725L70.797 20.008V20.0048C70.8646 20.291 70.9133 20.5835 70.9385 20.8712C70.9432 21.225 71.1099 21.497 71.4133 21.6448C71.6162 21.7438 71.8127 21.7517 71.8693 21.7517H73.6523C73.9919 21.7375 74.4998 21.5096 74.4998 20.9199C74.3551 17.8995 72.819 15.2014 70.4998 13.552" fill="#6C3C87"/>
<path d="M41.7362 13.1067C41.7362 10.2843 40.8714 8.13654 39.1686 6.7293C38.2441 5.97616 37.1214 5.27805 35.2488 5.27805L32.5444 5.2749C31.9547 5.2749 31.4705 5.75132 31.4705 6.33937V7.9793C31.4705 8.56421 31.9579 9.04062 32.5554 9.04062C32.5554 9.04062 33.9752 9.04377 34.1434 9.04377C35.0208 9.04377 35.9956 9.12553 36.5617 9.74188C37.3604 10.5595 37.7708 11.778 37.7708 13.363C37.7708 16.6334 36.2362 18.2922 33.2173 18.2922C31.8274 18.2922 30.733 17.8724 29.9579 17.0485C29.2032 16.2387 28.8211 15.0925 28.8211 13.6271V6.33937C28.8211 5.75446 28.3368 5.2749 27.7441 5.2749H26.0224C25.4296 5.2749 24.9453 5.75289 24.9453 6.33937V13.8472C24.9453 16.396 25.7629 18.4227 27.3714 19.8771C28.8525 21.2089 30.7708 21.8818 33.0664 21.8818C35.6796 21.8818 37.8117 21.0233 39.4044 19.3221C40.95 17.679 41.7378 15.5862 41.7378 13.1067" fill="#6C3C87"/>
<path d="M4.2327 6.23734C4.2327 5.67602 3.7673 5.21533 3.19969 5.21533H1.53145C0.962264 5.21533 0.5 5.67602 0.5 6.23734V27.0943C0.5 27.654 0.962264 28.11 1.53145 28.11H3.20126C3.7673 28.11 4.23428 27.6556 4.23428 27.0943V6.23734H4.2327Z" fill="#6C3C87"/>
<path d="M22.7295 12.602C22.7295 10.1272 22.0534 8.22464 20.7185 6.94476C19.3835 5.66489 17.3788 5.01709 14.7546 5.01709C12.1304 5.01709 10.0659 5.69319 8.69015 7.02023C7.24833 8.3913 6.51562 10.4841 6.51562 13.2466V20.5988C6.51562 21.179 6.9999 21.6555 7.59424 21.6555H9.31594C9.90871 21.6555 10.3883 21.1806 10.3883 20.5988V17.0029C10.3977 16.9605 10.3993 16.9133 10.3993 16.8709V13.6492C10.3993 11.9463 10.7169 10.6727 11.3537 9.86615C12.0109 9.04382 13.0927 8.62872 14.5691 8.62872C17.404 8.62872 18.8411 10.1256 18.8411 13.0753V14.8787C18.8411 16.9479 17.7436 18.0391 15.6713 18.0391H13.632C13.0361 18.0391 12.5549 18.5155 12.5549 19.1004V20.5878C12.5549 21.1743 13.0361 21.6492 13.632 21.6492H16.1005C18.1603 21.6492 19.8018 21.0517 20.981 19.863C22.143 18.7058 22.731 16.9888 22.731 14.7718V12.602H22.7295Z" fill="#6C3C87"/>
<path d="M47.0795 21.5432C47.3703 21.8011 47.5417 21.8341 47.6423 21.8341C47.8326 21.8341 48.0732 21.7036 48.3813 21.441C49.4206 20.5527 52.2037 17.3404 53.2162 15.6219C54.3578 13.68 54.96 11.7775 54.96 10.1219C54.96 5.26179 52.3499 5.26179 49.0496 5.26179H45.9961V3.01179C45.9961 2.98034 45.9945 2.95204 45.9945 2.92374V1.76651C45.9945 1.18003 45.5103 0.703613 44.9159 0.703613H43.1942C42.6015 0.703613 42.1172 1.18003 42.1172 1.76651V6.96462C42.1172 7.75864 42.3829 8.4033 42.6423 8.62814C42.8467 8.81053 43.309 9.02122 44.3515 9.02122H48.6361C49.1203 9.02122 50.1313 9.02122 50.6848 9.65959C51.0055 10.0228 51.1203 10.5228 51.0276 11.1439C50.8766 12.1407 50.3735 13.2225 49.3908 14.6454L49.2728 14.8168C48.4961 15.9347 48.1392 16.4395 46.1549 18.4489C46.0166 18.5825 45.8766 18.7193 45.7178 18.8781C45.1533 19.4379 45.4489 19.9615 45.7886 20.3027L47.0795 21.5417V21.5432Z" fill="#6C3C87"/>
</g>
<defs>
<clipPath id="clip0_5106_104900">
<rect width="74" height="27.4072" fill="white" transform="translate(0.5 0.703613)"/>
</clipPath>
</defs>
</svg>
